<?xml version="1.0" encoding="UTF-8"?>
<svg id="_レイヤー_2" xmlns="http://www.w3.org/2000/svg" version="1.1" viewBox="0 0 16.7 17">
  <!-- Generator: Adobe Illustrator 29.0.0, SVG Export Plug-In . SVG Version: 2.1.0 Build 186)  -->
  <defs>
    <style>
      .st0 {
        fill: #333;
        stroke: #333;
        stroke-miterlimit: 10;
        stroke-width: .2px;
      }
    </style>
  </defs>
  <g id="_940">
    <path class="st0" d="M11.9,0h-7.1C2.2,0,0,2.2,0,4.8v7.4c0,2.6,2.2,4.8,4.8,4.8h7.1c2.6,0,4.8-2.1,4.8-4.8v-7.4C16.7,2.2,14.6,0,11.9,0ZM1.4,4.7c0-1.8,1.5-3.2,3.2-3.2h7.4c1.8,0,3.2,1.5,3.2,3.2v7.7c0,1.8-1.4,3.2-3.2,3.2h-7.4c-1.8,0-3.2-1.4-3.2-3.2,0,0,0-7.7,0-7.7Z"/>
    <path class="st0" d="M8.4,12.9c2.4,0,4.4-2,4.4-4.4s-2-4.4-4.4-4.4-4.4,2-4.4,4.4,2,4.4,4.4,4.4ZM8.4,5.5c1.7,0,3,1.3,3,3s-1.4,3-3,3-3-1.4-3-3,1.3-3,3-3Z"/>
    <path class="st0" d="M12.9,5c.5,0,1-.4,1-1s-.4-1-1-1-1,.4-1,1,.4,1,1,1Z"/>
  </g>
</svg>