<?xml version="1.0" encoding="UTF-8"?>
<svg id="_レイヤー_2" xmlns="http://www.w3.org/2000/svg" version="1.1" viewBox="0 0 8.2 15.8">
  <!-- Generator: Adobe Illustrator 29.0.0, SVG Export Plug-In . SVG Version: 2.1.0 Build 186)  -->
  <defs>
    <style>
      .st0 {
        fill: #333;
        stroke: #333;
        stroke-miterlimit: 10;
        stroke-width: .2px;
      }
    </style>
  </defs>
  <g id="_940">
    <path class="st0" d="M2.4,15.8v-7.2H0v-2.8h2.4v-2.1c0-.8.1-1.4.4-1.9h0c0-.1,0-.2.1-.3,0,0,0,0,0-.1,0,0,0-.1.1-.2,0,0,0,0,0-.1,0,0,0-.1.1-.2,0,0,0,0,0,0,0,0,.1-.1.2-.2,0,0,0,0,0,0C4.3.3,5.1,0,6,0s1.9,0,2.2.1v2.5h-1.5c-1.2,0-1.4.5-1.4,1.4v1.8h2.5s.3,0,.3,0l-.4,2.8h-2.4v7.2h-2.9s0,0,0,0Z"/>
  </g>
</svg>