<?xml version="1.0" encoding="UTF-8"?><svg id="_レイヤー_2" xmlns="http://www.w3.org/2000/svg" viewBox="0 0 280 71.22"><defs><style>.cls-1{fill:#fff;}</style></defs><g id="_940"><path class="cls-1" d="M7.53,57.4l-.19-.13c.14-.24.29-.47.44-.71,1.44-2.23,2.91-4.53,4.39-6.89l-.05.02c-1.47,2.35-2.92,4.65-4.35,6.86-.12.18-.21.37-.32.56l-.78-.5s.03-.04.04-.06l-.38-.24c.1-.16.09-.39.19-.55.28-.43.45-.93.72-1.37l-.12-.08c-.28.44-.52.89-.8,1.32-.18.28-.31.59-.48.88l-.56-.36c.17-.29-.02-.8.16-1.08.77-1.22,1.3-2.61,2-3.93-.16.05-.31.1-.47.15-.7,1.17-1.37,2.32-2.07,3.44-.04.07-.02.18-.07.26l-.37-.24c.04-.07.08-.14.13-.21.63-1.01,1.27-2.04,1.92-3.09-1.43.47-2.9.98-4.43,1.51-.09.03-.17.06-.26.09l-.28-.78c.08-.03.18-.04.27-.07,1.85-.66,3.63-1.26,5.35-1.81.02-.04.04-.08.07-.11-1.74.57-3.55,1.19-5.44,1.86-.35.13-.69.29-1.04.42l-.2-.54c.35-.13.62-.48.97-.61,2.25-.8,4.38-1.57,6.41-2.27.06-.1.12-.2.19-.3-2.12.68-4.36,1.44-6.7,2.28-.14.05-.28.13-.42.18l-.14-.37c.14-.05.19-.35.33-.4,2.66-.94,5.15-1.83,7.5-2.64l.2-.32c-2.46.77-5.06,1.65-7.82,2.63-.27.09-.52.22-.78.32l-.29-.79c.26-.1.53-.2.79-.29,3.11-1.11,6.01-2.07,8.74-2.91C18.36,32.11,28,15.57,34.26,2.58c.11-.22.2-.45.3-.68l1.27.61c-.1.23-.25.43-.35.66-1.51,3.12-3.25,6.41-5.08,9.86l.18.08c1.83-3.44,3.48-6.78,4.99-9.9.07-.14.08-.3.15-.44l1.28.62c-.03.06-.07.1-.11.15l1.23.59c-.04.08-.08.17-.12.25-5.84,11.96-14.23,26.85-22.59,40.49,7.77-2.04,13.86-2.87,18.79-2.87,8.03,0,13.11,2.08,16.77,7.02.11.14.21.28.32.43l-.3.23c-.1-.14-.19-.29-.3-.44-2.46-3.32-5.55-5.32-9.76-6.26l-.08.07c4.22.92,7.35,2.89,9.81,6.21.04.05.09.08.13.13l-.95.7c.15.19.3.37.43.56l-.64.48c-.17-.24-.83-.13-1.02-.37-2.34-3.1-5.8-4.43-9.74-5.1l-.39.3c3.97.62,7.04,2.19,9.41,5.33.16.22.41.36.57.58l-.21.16c-.16-.21-.33-.42-.49-.63-3.15-4.16-7.38-5.66-13.54-5.66-5.44,0-12.46,1.15-21.71,3.86-1.52,2.44-3.03,4.81-4.52,7.11-.15.23-.28.47-.43.71ZM13.94,45.25l.06-.02c.85-1.36,1.69-2.74,2.53-4.13l-.06-.03c-.85,1.4-1.69,2.8-2.54,4.18ZM14.05,47.06c-.03.05-.06.1-.09.15.33-.09.66-.19.99-.28l-.04-.11c-.28.08-.57.16-.86.24ZM14.8,45.84l-.09.16c.72-.21,1.42-.4,2.11-.57l-.03-.1c-.65.16-1.31.34-1.98.52ZM15.03,44.96s.05-.01.07-.02c.73-1.2,1.47-2.4,2.2-3.61l-.05-.03c-.74,1.23-1.48,2.45-2.22,3.66ZM34.89,7.36c-1.05,2.01-2.16,4.08-3.29,6.22l.07.03c1.13-2.13,2.21-4.23,3.22-6.25ZM43.09,44.88c-.97-.41-2.03-.73-3.19-.94l-.06.04c1.16.22,2.24.51,3.25.9Z"/><path class="cls-1" d="M56.4,46.15c0-5.09,5.95-13.26,11.04-19.35.16-.2.32-.41.48-.61l1.16.93c-.16.21-.36.39-.53.59-1.53,1.86-3.18,3.86-4.67,5.93l.16.15c1.49-2.07,3.06-4.14,4.59-6.01.15-.18.25-.41.4-.6l1.65,1.32c-.15.2-.32.38-.47.57-3.48,4.29-7.4,9.47-9.06,13.45l.13.1c1.64-3.97,5.52-9.19,9-13.5.04-.06.06-.14.1-.19l.27.22c-.04.06-.08.11-.13.17-4.51,5.59-9.75,12.68-9.75,16.55,0,1.72.79,2.37,3.08,2.37,4.01,0,9.17-2.08,15.55-5.38.31-.16.6-.33.9-.5l.2.43c-.3.17-.61.32-.92.48-1.83.94-3.57,1.76-5.2,2.48l.03.1c1.63-.72,3.35-1.59,5.18-2.53.19-.1.37-.23.56-.34l.57,1.26c.21-.11.42-.23.62-.34l.38.82c-.22.12-.44.23-.67.34l.43.95c-.19.1-.38.2-.58.29-7.81,3.94-13.04,5.73-17.91,5.73s-6.59-2.44-6.59-5.88ZM69.96,48.96c-.81.24-1.59.44-2.34.61v.02c.76-.17,1.54-.38,2.34-.63ZM72.52,22.7c.15-.09.32-.14.47-.23,1.9-1.06,3.74-2.09,5.48-3.18l-.08-.14c-1.74,1.1-3.54,2.2-5.44,3.25-.08.05-.15.13-.23.18l-.05-.09c.08-.05.07-.27.15-.32,3.53-1.96,6.67-4.12,9.66-6.3l-.03-.06c-2.98,2.18-6.22,4.18-9.75,6.14-.27.15-.53.32-.8.48l-.38-.66c.27-.15.42-.51.69-.66,3.77-2.09,7.12-4.42,10.25-6.79l-.06-.11c-3.13,2.37-6.58,4.53-10.35,6.62-.18.1-.35.23-.53.33l-.41-.72c.18-.1.37-.2.55-.3,4.8-2.65,9.1-5.37,12.83-8.6.08-.07.16-.14.24-.22l.03.03c-.08.07-.16.14-.24.21-1.5,1.3-3.1,2.52-4.79,3.68h0c1.68-1.16,3.28-2.38,4.79-3.68.16-.13.31-.28.46-.42l.68.79c-.16.14-.22.38-.38.51-3.76,3.2-7.95,6.03-12.74,8.69l.13.15c4.78-2.66,9.02-5.44,12.79-8.63.19-.16.34-.36.52-.53l1.26,1.47c-.05.05-.11.09-.18.12l.34.4c-.13.12-.27.23-.41.34-4.01,3.3-8.46,6.16-13.47,8.96-.15.08-.3.18-.45.26l-.56-1ZM80.51,45.37c.19-.1.37-.22.55-.32-.19.09-.38.18-.57.28-2.64,1.34-5.01,2.41-7.17,3.28l.03.09c2.16-.86,4.52-1.99,7.15-3.33ZM86.62,14.02s.08-.07.11-.11c-.04.03-.09.06-.13.09-2.89,2.4-6.1,4.47-9.52,6.54l.12.14c3.42-2.07,6.52-4.26,9.42-6.66Z"/><path class="cls-1" d="M75.05,69.81c.07-.04.17-.04.25-.09,5.57-3.39,9.86-6.2,13.45-9.06l-.13-.2c-3.58,2.86-7.81,5.77-13.38,9.16-.08.05-.14.16-.22.21l-.3-.49c.08-.05-.06-.49.02-.54,3.03-1.84,5.43-3.91,7.77-5.52l-.09-.15c-2.34,1.61-4.94,3.33-7.97,5.18-.23.14-.42.32-.64.46l-.29-.48c.22-.14.44-.28.67-.42,8.46-5.16,13.76-9.03,18.35-13.61.1-.1.2-.21.31-.31l.55.55c-.1.11-.23.18-.33.28-2.63,2.63-5.53,5-9.09,7.54l.12.12c3.56-2.54,6.4-4.97,9.03-7.6.04-.04.06-.12.1-.16l.74.74s.04-.05.07-.08l.11.11s-.05.05-.07.08l.14.14s-.11,0-.18-.01l.81.81s.01.08,0,.09c-1.09,1.09-2.18,2.19-3.4,3.23l.12.12c1.21-1.04,2.32-2.13,3.41-3.22.04-.04.06-.12.1-.16l.31.32s-.09.09-.13.13c-4.73,4.73-10.39,8.81-19.13,14.12-.07.04-.14.09-.22.14l-.85-1.41ZM77.99,63.03l-.82-.45c.07-.13.18-.24.24-.37,1.44-2.76,3.04-5.56,4.67-8.38l-.18-.09c-1.63,2.82-3.15,5.67-4.59,8.43-.06.12-.08.27-.14.39l-1.05-.57c.06-.12.11-.24.18-.37,2.08-3.95,4.4-8.04,6.83-12.08l-.13-.07c-2.44,4.04-4.73,8.13-6.82,12.08-.12.23-.21.48-.33.72l-1.28-.7h0s-.35-.18-.35-.18c.12-.23.25-.47.37-.7,4.9-9.13,11.06-18.97,16.86-27.47-1.5.12-2.94.25-4.32.38-.17.02-.34.04-.51.05l-.07-.69c.17-.02.34-.01.51-.03,1.54-.15,3.17-.29,4.86-.42l.05-.07c-1.72.14-3.36.29-4.92.44-.12.01-.24.05-.36.06l-.13-1.35c.12-.01.25-.01.37-.02,1.74-.17,3.59-.31,5.52-.46v-.09c-1.94.15-3.79.33-5.53.5-.13.01-.25.05-.37.06l-.05-.51c.13-.01.23-.28.35-.29,2.13-.21,4.41-.61,6.83-.81l.09-.13c-2.46.18-4.79.39-6.94.6-.21.02-.41.08-.63.1l-.06-.68c.21-.02.42-.05.63-.07,2.31-.22,4.81-.43,7.46-.61,4.82-6.86,9.17-12.49,12.03-15.59,6.16-6.38,11.18-9.1,17.06-9.1,5.02,0,8.46,2.44,9.6,8.03.05.25.1.5.15.74l-.93.24c-.04-.23-.06-.48-.11-.72-.82-3.98-2.81-6.22-5.71-7.04l-.1.1c2.88.8,4.94,2.99,5.75,6.95.05.22.13.43.16.64l-.17.04c-.04-.21-.6-.28-.64-.5-.92-4.46-3.8-6.17-7.15-6.43l-.08.15c3.29.24,5.7,2.18,6.59,6.46.06.27.15.52.19.78l-.65.17c-.04-.25-.09-.51-.14-.78-.89-4.32-3.36-6.16-6.76-6.16v.04c3.37,0,5.84,1.82,6.73,6.12.02.09.05.17.07.26l-1.17.32c-.02-.08-.03-.17-.05-.25-.79-3.8-2.87-5.38-5.59-5.38-4.94,0-9.03,2.72-14.26,8.1-2.39,2.57-5.91,7.01-9.87,12.49,4.56-.23,9.41-.38,14.31-.38.26,0,.51-.02.77-.03v.72c-.26,0-.51-.01-.77-.01-1.9,0-3.78-.02-5.65.02v.16c1.86-.04,3.75-.1,5.65-.1.36,0,.72-.07,1.07-.08v.38c-.36.01-.71.29-1.07.29-4.11,0-8.17.36-12.05.53v.17c3.88-.17,7.94-.32,12.05-.32.26,0,.52-.06.78-.07v1.99c-.08,0-.16-.03-.25-.06v.2c-.18,0-.36.02-.54.02-5.97,0-11.8.22-17.13.55-6.18,8.88-13.01,19.7-18.2,29.76-.07.13-.13.26-.2.4ZM77.29,56.54c1.74-3,3.6-6.03,5.46-9.06l-.12-.06c-1.86,3.03-3.65,6.09-5.35,9.12ZM89.17,59.77c-1.12.87-2.3,1.74-3.53,2.64l.05.05c1.24-.91,2.39-1.8,3.48-2.7ZM93.96,55.69s.03-.04.04-.05c-.02,0-.03,0-.04,0l-.02.03c-.81.81-1.63,1.61-2.51,2.39l.02.02c.87-.78,1.7-1.58,2.51-2.38ZM96.93,32.09l-.07.09c.95-.06,1.91-.11,2.89-.16v-.1c-.96.05-1.9.1-2.82.16Z"/><path class="cls-1" d="M194.28,52.31c-4.88,0-6.95-2.22-6.95-6.23,0-3.01,1.94-6.81,3.37-9.39,1.58-2.94,2.44-4.51,2.44-6.02,0-.93-.5-1.43-1.43-1.43-4.59,0-11.68,5.3-26.95,17.2-1.65,1.29-3.29,2.29-4.59,2.29-1.93,0-3.51-.72-3.51-4.3,0-2.44,1.15-5.59,2.87-9.24.07-.14.14-.29.14-.43s-.07-.22-.22-.22c-.72,0-4.87,3.3-15.62,10.32-6.24,4.09-13.83,7.17-21.21,7.17-6.81,0-10.03-2.87-10.03-8.17,0-9.03,12.68-18.99,22.22-18.99,4.73,0,6.74,2.51,6.74,5.38,0,5.44-7.02,9.6-17.84,10.6-1.05.1-2.07.19-3.06.24l-.07-.7c.98-.06,2-.14,3.04-.25,3.78-.37,7.13-1.08,9.81-2.12l-.02-.1c-2.68,1.04-6.01,1.8-9.79,2.17-1.64.16-3.2.33-4.68.36l-.07-.83c1.14-.04,2.34-.15,3.57-.28l-.12-1.11c-.96.12-1.9.25-2.81.32l-.08-.85c1.24-.12,2.52-.34,3.85-.51,7.67-.93,13.9-2.87,13.9-6.66,0-1.15-1-1.86-2.72-1.86-6.74,0-17.56,7.59-17.56,14.91,0,3.01,2.01,4.66,6.38,4.66,6.09,0,12.75-2.51,18.56-6.45,12.61-8.38,17.06-11.9,20.85-11.9,1.79,0,2.51.93,2.51,2.15,0,.79-.36,1.58-.64,2.15-2.08,3.8-3.51,8.67-3.51,9.96,0,.22,0,.29.14.29s.22-.07.72-.43c16.27-12.47,24.37-18.56,30.31-18.56,3.58,0,5.23,1.79,5.23,4.73,0,2.44-1.08,4.66-3.15,8.46-1.15,2.01-2.58,5.09-2.58,7.45,0,1.5.64,2.51,2.58,2.51s5.01-.79,8.1-1.94c.37-.14.74-.3,1.1-.46l.21.53c-.37.16-.75.29-1.13.43-1.27.47-2.55.85-3.74,1.17l.03.12c1.2-.32,2.47-.76,3.74-1.23.9-.33,1.75-.76,2.58-1.15l.54,1.15h.01s.21.45.21.45c-.89.41-1.77.93-2.72,1.27-.96.35-1.9.78-2.85,1.06l.03.12c.96-.28,1.93-.62,2.9-.97.23-.08.44-.2.66-.29l.24.62c-.23.09-.43.27-.66.35-3.39,1.21-6.97,2.15-9.23,2.16v.13c2.27,0,5.88-.89,9.3-2.1.1-.04.19-.11.3-.15l.1.26c-.1.04-.21.08-.31.12-3.44,1.22-7.09,2.08-9.39,2.08ZM122.59,39.31c.3-.03.6-.06.91-.09,2.48-.26,4.79-.65,6.83-1.19v-.06c-2.05.54-4.35.96-6.83,1.22-.31.03-.61.09-.9.13ZM136.87,33.48c.47-.51.8-1.07.97-1.7l-.02-.03c-.16.62-.48,1.2-.95,1.73ZM199.71,49.45c-1.19.29-2.34.5-3.34.66v.1c1.03-.16,2.16-.43,3.34-.77Z"/><path class="cls-1" d="M211.33,44.57c-.06-.12-.12-.23-.18-.34l.3-.23c.06.12.11.24.17.36.91,1.69,2.01,3.22,3.3,4.42l.07-.05c-1.28-1.19-2.42-2.7-3.34-4.39-.08-.15-.18-.28-.25-.43l.83-.64c-.09-.14-.18-.29-.26-.43l1.19-.96c.19.3.55.49.76.81.3.48.77.81,1.06,1.23l.26-.16c-.3-.42-.67-.83-.98-1.31-.13-.2-.32-.34-.44-.53l.27-.21c.13.19.27.38.4.58,2.58,3.94,4.66,5.81,6.88,5.81,1.93,0,3.15-1.29,3.15-3.58,0-4.08-1.43-8.67-1.43-11.97,0-4.59,2.72-7.74,8.53-7.74,4.01,0,8.03,1.72,12.61,5.52.06.05.11.09.17.14l-.55.63c-.06-.05-.09-.11-.15-.16-3.96-3.34-7.46-5.03-10.83-5.35l-.04.1c3.36.31,6.88,1.95,10.84,5.29.29.24.6.45.88.69l-1.18,1.38c-.13-.12-.21-.32-.28-.52l-.08.09c-.15-.13-.54.03-.69-.11-2.01-1.78-4.15-2.78-5.91-3.58l-.11.12c1.76.8,3.67,2.03,5.69,3.84.1.09.22.14.32.23l-.49.56c-.1-.09-.19-.18-.29-.26-3.8-3.44-7.09-4.88-9.89-4.88s-4.23,1.36-4.23,3.87c0,3.3,1.43,7.67,1.43,11.75,0,5.52-3.8,7.74-7.52,7.74-4.23,0-7.81-3.23-9.96-7.31ZM221.31,50.46c-1.63,0-3.15-.6-4.56-1.64,1.39,1.09,2.9,1.72,4.56,1.72v-.08Z"/><path class="cls-1" d="M251.32,51.74c-4.73,0-7.45-2.15-7.45-6.31,0-8.46,14.05-19.2,25.87-19.2,4.66,0,6.23,2.22,6.23,4.66,0,5.02-6.31,8.74-16.48,11.03-1.57.36-3.07.65-4.5.86l-.26-1.38c1.41-.23,2.9-.48,4.45-.83,5.34-1.2,9.75-2.69,12.31-4.66l-.09-.17c-2.52,1.97-6.92,3.54-12.25,4.73-.63.14-1.24.33-1.84.45l-.11-.54c.6-.13,1.11-.78,1.73-.91,4.8-1.07,8.83-2.86,11.19-4.53l-.08-.17c-2.32,1.67-6.49,2.98-11.26,4.04-.7.16-1.38.36-2.06.5l-.09-.46c.68-.14,1.36-.3,2.06-.46,7.09-1.58,12.97-3.58,12.97-6.74,0-.93-.86-1.65-2.58-1.65-9.31,0-20.92,9.03-20.92,15.12,0,1.94,1.08,2.87,3.8,2.87,6.88,0,16.84-4.08,24.8-9.31.73-.48,1.43-1.01,2.13-1.54l.17.23c-.71.53-1.43,1.05-2.16,1.53-1.84,1.21-3.78,2.34-5.76,3.39l.03.05c1.98-1.05,3.91-2.21,5.75-3.41.37-.24.71-.51,1.07-.77l.44.62c-.09.07-.19.13-.28.19l.95,1.36.24-.17.66.93c-.38.25-.77.5-1.16.75-9.82,6.38-19.28,9.89-27.52,9.89ZM275.95,42.4c-2.55,1.5-5.14,2.78-7.67,3.93l.08.14c2.52-1.15,5.06-2.53,7.59-4.07ZM277.32,39.54c.13-.09.26-.18.38-.27-.13.08-.26.17-.39.25-.93.61-1.89,1.16-2.84,1.73l.04.06c.96-.57,1.89-1.17,2.82-1.78Z"/><path class="cls-1" d="M165.14.17v9.75h3.5v1.63h-5.27V.17h1.77Z"/><path class="cls-1" d="M174.92.17v11.38h-1.77V.17h1.77Z"/><path class="cls-1" d="M181.82,6.48v5.06h-1.77V.17h5.21v1.63h-3.44v3.07h2.54v1.63h-2.54Z"/><path class="cls-1" d="M194.89.17v1.63h-3.39v2.99h2.5v1.63h-2.5v3.51h3.39v1.63h-5.16V.17h5.16Z"/><path class="cls-1" d="M204.41,6.28l1.53.19c-.07,1.06-.38,2-.91,2.82.23.34.62.58,1.17.73v1.7c-.76-.04-1.48-.41-2.15-1.13-.31.31-.58.53-.82.68-.44.27-.91.4-1.42.4-.71,0-1.3-.24-1.78-.73-.55-.56-.83-1.25-.83-2.06,0-.66.21-1.34.63-2.05.18-.32.48-.73.9-1.21-.5-1.03-.75-1.94-.75-2.74s.21-1.46.63-1.98c.44-.56,1.03-.83,1.74-.83.59,0,1.09.2,1.48.61.43.45.65,1.03.65,1.73s-.23,1.33-.68,1.97c-.19.27-.58.76-1.16,1.46.37.88.81,1.63,1.3,2.23.26-.48.41-1.06.48-1.76ZM201.51,7.13c-.37.54-.56,1.04-.56,1.52,0,.33.09.62.27.88.2.31.45.46.76.46.36,0,.72-.19,1.07-.57-.62-.66-1.13-1.42-1.53-2.29ZM201.91,4.33c.65-.75.98-1.49.98-2.21,0-.62-.22-.93-.67-.93-.26,0-.45.12-.58.36-.12.22-.18.48-.18.8,0,.61.15,1.27.45,1.98Z"/><path class="cls-1" d="M212.7.17v9.75h3.5v1.63h-5.27V.17h1.77Z"/><path class="cls-1" d="M222.48.17v11.38h-1.77V.17h1.77Z"/><path class="cls-1" d="M233.67,3.87h-1.76v-.23c0-1.32-.44-1.98-1.33-1.98-.48,0-.83.19-1.04.56-.13.23-.21.48-.23.75-.02.26-.03.55-.03.88v3.78c0,.79.06,1.36.19,1.7.19.49.57.73,1.14.73.91,0,1.36-.74,1.36-2.23v-.28h1.76c0,.19,0,.34,0,.43,0,1.1-.22,1.97-.67,2.62-.52.75-1.34,1.13-2.46,1.13-1.18,0-2.03-.42-2.55-1.27-.27-.44-.43-.93-.48-1.46-.04-.44-.07-.98-.07-1.6v-3.18c0-1.09.07-1.84.21-2.27.24-.76.69-1.29,1.33-1.61.44-.22.96-.33,1.53-.33.97,0,1.72.3,2.26.89.56.62.84,1.49.84,2.61,0,.09,0,.21,0,.37Z"/><path class="cls-1" d="M243.76.17v1.63h-3.39v2.99h2.5v1.63h-2.5v3.51h3.39v1.63h-5.16V.17h5.16Z"/><path class="cls-1" d="M254.69.17v11.38h-1.58l-3.05-7.57v7.57h-1.68V.17h1.77l2.87,7.08V.17h1.68Z"/><path class="cls-1" d="M265.82,2.84l-1.68.5c-.27-1.13-.78-1.69-1.52-1.69-.32,0-.58.11-.8.32-.23.22-.34.5-.34.84,0,.42.16.8.48,1.14.21.22.71.64,1.51,1.25.82.63,1.38,1.14,1.7,1.53.49.59.73,1.29.73,2.09s-.28,1.53-.84,2.07c-.57.55-1.33.83-2.28.83-1.94,0-3.1-1.07-3.46-3.2l1.68-.49c.23,1.36.83,2.04,1.78,2.04.4,0,.72-.12.95-.37.23-.24.35-.55.35-.93s-.15-.77-.44-1.1c-.24-.28-.66-.66-1.25-1.12-.86-.67-1.37-1.08-1.54-1.25-.79-.76-1.18-1.59-1.18-2.49s.32-1.6.96-2.13c.54-.45,1.21-.68,2.01-.68,1.64,0,2.7.95,3.19,2.84Z"/><path class="cls-1" d="M275.69.17v1.63h-3.39v2.99h2.5v1.63h-2.5v3.51h3.39v1.63h-5.16V.17h5.16Z"/></g></svg>