<?xml version="1.0" encoding="UTF-8"?><svg id="_レイヤー_2" xmlns="http://www.w3.org/2000/svg" viewBox="0 0 200 50.87"><defs><style>.cls-1{fill:#333;}</style></defs><g id="_940"><path class="cls-1" d="M5.38,41l-.14-.09c.1-.17.21-.34.31-.5,1.03-1.59,2.08-3.24,3.13-4.92h-.04c-1.05,1.69-2.09,3.33-3.11,4.91-.08.13-.15.27-.23.4l-.56-.36s.02-.03.03-.04l-.27-.17c.07-.12.06-.28.13-.39.2-.31.32-.67.52-.98l-.08-.05c-.2.31-.37.64-.57.94-.13.2-.22.42-.35.63l-.4-.26c.12-.21-.01-.57.11-.77.55-.87.93-1.87,1.43-2.81-.11.04-.22.07-.33.11-.5.83-.98,1.66-1.48,2.45-.03.05-.02.13-.05.18l-.26-.17c.03-.05.06-.1.09-.15.45-.72.91-1.46,1.37-2.21-1.02.34-2.07.7-3.16,1.08-.06.02-.12.05-.18.07l-.2-.55c.06-.02.13-.03.19-.05,1.32-.47,2.59-.9,3.82-1.29.02-.03.03-.05.05-.08-1.24.41-2.53.85-3.88,1.33-.25.09-.49.21-.74.3l-.14-.39c.25-.09.44-.35.69-.43,1.61-.57,3.13-1.12,4.58-1.62.04-.07.09-.14.13-.22-1.52.49-3.11,1.03-4.79,1.63-.1.04-.2.09-.3.13l-.1-.26c.1-.04.14-.25.24-.29,1.9-.67,3.68-1.31,5.36-1.88l.14-.23c-1.75.55-3.61,1.18-5.58,1.88-.19.07-.37.16-.56.23l-.21-.57c.19-.07.38-.14.57-.21,2.22-.79,4.29-1.48,6.24-2.08C13.11,22.93,20,11.12,24.47,1.84c.08-.16.14-.32.21-.49l.9.44c-.07.16-.18.31-.25.47-1.08,2.23-2.32,4.58-3.63,7.04l.13.06c1.31-2.46,2.49-4.84,3.56-7.07.05-.1.06-.22.11-.32l.91.44s-.05.07-.08.11l.88.42c-.03.06-.06.12-.09.18-4.17,8.55-10.17,19.18-16.13,28.92,5.55-1.46,9.9-2.05,13.42-2.05,5.73,0,9.37,1.48,11.98,5.02.08.1.15.2.23.31l-.22.16c-.07-.1-.14-.21-.22-.31-1.76-2.37-3.96-3.8-6.97-4.47l-.06.05c3.01.66,5.25,2.07,7.01,4.44.03.04.07.06.09.1l-.68.5c.11.13.21.26.31.4l-.46.35c-.12-.17-.59-.09-.73-.26-1.67-2.22-4.15-3.17-6.96-3.64l-.28.21c2.83.44,5.03,1.57,6.72,3.8.12.15.29.26.4.41l-.15.11c-.11-.15-.23-.3-.35-.45-2.25-2.97-5.27-4.04-9.67-4.04-3.88,0-8.9.82-15.51,2.76-1.09,1.74-2.17,3.44-3.23,5.08-.11.16-.2.34-.31.51ZM9.96,32.32h.04c.61-.98,1.21-1.97,1.81-2.96l-.04-.02c-.6,1-1.21,2-1.81,2.98ZM10.03,33.61s-.04.07-.06.11c.24-.07.47-.13.71-.2l-.03-.08c-.2.06-.41.11-.62.17ZM10.57,32.75l-.07.11c.51-.15,1.01-.28,1.51-.41l-.02-.07c-.46.12-.94.24-1.42.37ZM10.73,32.11s.03,0,.05-.01c.52-.86,1.05-1.71,1.57-2.58l-.03-.02c-.53.88-1.06,1.75-1.59,2.61ZM24.92,5.26c-.75,1.43-1.54,2.91-2.35,4.44l.05.02c.81-1.52,1.58-3.02,2.3-4.46ZM30.78,32.06c-.69-.29-1.45-.52-2.28-.67l-.04.03c.83.15,1.6.37,2.32.64Z"/><path class="cls-1" d="M40.29,32.96c0-3.63,4.25-9.47,7.88-13.82.12-.14.23-.29.34-.44l.83.66c-.12.15-.26.28-.38.42-1.09,1.33-2.27,2.76-3.33,4.23l.11.11c1.06-1.48,2.19-2.96,3.28-4.29.11-.13.18-.29.29-.43l1.18.94c-.11.14-.23.27-.34.41-2.49,3.07-5.29,6.76-6.47,9.61l.09.07c1.17-2.83,3.94-6.57,6.43-9.64.03-.04.04-.1.07-.14l.19.16s-.06.08-.09.12c-3.22,3.99-6.96,9.06-6.96,11.82,0,1.23.56,1.69,2.2,1.69,2.87,0,6.55-1.49,11.11-3.84.22-.11.43-.24.64-.36l.14.31c-.21.12-.43.23-.66.34-1.31.67-2.55,1.26-3.71,1.77l.02.07c1.16-.52,2.39-1.13,3.7-1.81.14-.07.26-.16.4-.24l.41.9c.15-.08.3-.16.44-.24l.27.59c-.16.08-.32.16-.48.24l.3.68c-.14.07-.27.14-.41.21-5.58,2.82-9.32,4.1-12.8,4.1s-4.71-1.74-4.71-4.2ZM49.97,34.97c-.58.17-1.14.32-1.67.44v.02c.54-.12,1.1-.27,1.67-.45ZM51.8,16.21c.11-.06.23-.1.33-.16,1.36-.75,2.67-1.49,3.91-2.27l-.06-.1c-1.24.78-2.53,1.57-3.89,2.32-.06.03-.11.09-.17.13l-.04-.06c.06-.04.05-.19.11-.23,2.52-1.4,4.77-2.95,6.9-4.5l-.02-.04c-2.13,1.55-4.45,2.99-6.96,4.38-.19.11-.38.23-.57.34l-.27-.47c.19-.11.3-.36.5-.47,2.69-1.49,5.08-3.16,7.32-4.85l-.05-.08c-2.24,1.69-4.7,3.24-7.39,4.73-.13.07-.25.17-.38.24l-.29-.51c.13-.07.26-.14.39-.22,3.43-1.89,6.5-3.84,9.16-6.14.06-.05.11-.1.17-.15l.02.02c-.06.05-.11.1-.17.15-1.07.93-2.22,1.8-3.42,2.63h0c1.2-.83,2.34-1.7,3.42-2.63.11-.1.22-.2.33-.3l.48.56c-.11.1-.16.27-.27.37-2.69,2.29-5.68,4.31-9.1,6.21l.09.11c3.41-1.9,6.44-3.88,9.14-6.17.13-.11.24-.26.37-.38l.9,1.05s-.08.06-.13.09l.25.29c-.1.08-.19.17-.29.25-2.87,2.36-6.04,4.4-9.62,6.4-.11.06-.21.13-.32.19l-.4-.71ZM57.51,32.4c.14-.07.26-.16.4-.23-.13.07-.27.13-.41.2-1.88.96-3.58,1.72-5.12,2.34l.02.06c1.54-.62,3.23-1.42,5.11-2.38ZM61.87,10.02s.06-.05.08-.08c-.03.02-.06.04-.09.07-2.07,1.71-4.36,3.19-6.8,4.67l.08.1c2.44-1.48,4.66-3.05,6.73-4.76Z"/><path class="cls-1" d="M53.6,49.87c.05-.03.12-.03.18-.06,3.98-2.42,7.05-4.43,9.6-6.47l-.09-.14c-2.56,2.04-5.58,4.12-9.56,6.54-.06.04-.1.11-.16.15l-.21-.35c.06-.04-.04-.35.02-.39,2.16-1.32,3.88-2.79,5.55-3.94l-.07-.11c-1.67,1.15-3.53,2.38-5.69,3.7-.16.1-.3.23-.46.33l-.21-.35c.16-.1.31-.2.48-.3,6.04-3.68,9.83-6.45,13.1-9.72.07-.07.15-.15.22-.22l.4.39c-.07.08-.17.13-.24.2-1.88,1.88-3.95,3.57-6.5,5.38l.09.09c2.54-1.81,4.57-3.55,6.45-5.43.03-.03.04-.09.07-.12l.53.53s.03-.04.05-.05l.08.08s-.03.03-.05.05l.1.1s-.08,0-.13,0l.58.58s0,.06,0,.07c-.78.78-1.56,1.56-2.43,2.31l.09.09c.87-.74,1.66-1.52,2.44-2.3.03-.03.04-.09.07-.12l.22.23s-.06.06-.09.09c-3.38,3.38-7.42,6.3-13.67,10.08-.05.03-.1.07-.15.1l-.61-1.01ZM55.71,45.02l-.59-.32c.05-.09.13-.17.17-.26,1.03-1.97,2.17-3.97,3.34-5.99l-.13-.07c-1.17,2.02-2.25,4.05-3.28,6.02-.04.09-.06.19-.1.28l-.75-.41c.04-.09.08-.17.13-.26,1.49-2.82,3.14-5.74,4.88-8.63l-.09-.05c-1.74,2.89-3.38,5.81-4.87,8.63-.09.16-.15.35-.23.51l-.92-.5h0s-.25-.13-.25-.13c.09-.17.18-.33.26-.5,3.5-6.52,7.9-13.55,12.04-19.62-1.07.09-2.1.18-3.08.27-.12.01-.24.03-.36.04l-.05-.5c.12-.01.24,0,.36-.02,1.1-.11,2.26-.21,3.47-.3l.03-.05c-1.23.1-2.4.2-3.51.31-.09,0-.17.04-.26.05l-.09-.96c.09,0,.18,0,.26-.02,1.24-.12,2.56-.22,3.94-.33v-.07c-1.39.11-2.71.24-3.95.36-.09,0-.18.04-.27.05l-.03-.36c.09,0,.16-.2.25-.21,1.52-.15,3.15-.43,4.88-.58l.06-.09c-1.76.13-3.42.28-4.96.43-.15.01-.3.05-.45.07l-.04-.48c.15-.02.3-.03.45-.05,1.65-.16,3.44-.31,5.33-.44,3.44-4.9,6.55-8.92,8.59-11.13,4.4-4.55,7.99-6.5,12.18-6.5,3.58,0,6.04,1.74,6.86,5.73.04.18.07.35.11.53l-.66.17c-.03-.17-.04-.34-.08-.52-.58-2.84-2.01-4.44-4.08-5.03l-.07.07c2.06.57,3.53,2.14,4.11,4.97.03.16.09.3.12.46l-.12.03c-.03-.15-.43-.2-.46-.36-.66-3.18-2.72-4.41-5.1-4.59l-.05.11c2.35.17,4.07,1.56,4.7,4.62.04.19.11.37.14.56l-.46.12c-.03-.18-.06-.37-.1-.55-.64-3.09-2.4-4.4-4.83-4.4v.03c2.41,0,4.17,1.3,4.81,4.37.01.06.04.12.05.19l-.83.23c-.01-.06-.02-.12-.04-.18-.56-2.71-2.05-3.84-3.99-3.84-3.53,0-6.45,1.95-10.19,5.79-1.71,1.84-4.22,5-7.05,8.92,3.26-.17,6.72-.27,10.22-.27.18,0,.37-.01.55-.02v.51c-.18,0-.37,0-.55,0-1.35,0-2.7-.01-4.03.02v.11c1.33-.03,2.68-.07,4.03-.07.26,0,.51-.05.77-.06v.27c-.25,0-.51.21-.77.21-2.93,0-5.83.25-8.6.38v.12c2.77-.12,5.67-.23,8.6-.23.19,0,.37-.04.56-.05v1.42c-.06,0-.12-.02-.18-.05v.14c-.13,0-.25.02-.38.02-4.26,0-8.43.15-12.23.39-4.42,6.34-9.3,14.07-13,21.26-.05.09-.09.19-.14.28ZM55.21,40.39c1.24-2.14,2.57-4.31,3.9-6.47l-.08-.04c-1.33,2.16-2.61,4.35-3.82,6.51ZM63.69,42.7c-.8.62-1.64,1.24-2.52,1.89l.04.04c.88-.65,1.71-1.29,2.49-1.93ZM67.12,39.78s.02-.03.03-.04c-.01,0-.02,0-.03,0l-.02.02c-.58.58-1.17,1.15-1.79,1.71h.01c.62-.54,1.22-1.11,1.8-1.69ZM69.24,22.92l-.05.07c.68-.04,1.37-.08,2.06-.11v-.07c-.69.03-1.36.07-2.02.12Z"/><path class="cls-1" d="M138.77,37.37c-3.48,0-4.97-1.59-4.97-4.45,0-2.15,1.38-4.86,2.41-6.71,1.13-2.1,1.74-3.22,1.74-4.3,0-.66-.36-1.02-1.02-1.02-3.28,0-8.34,3.79-19.25,12.29-1.18.92-2.35,1.64-3.28,1.64-1.38,0-2.51-.51-2.51-3.07,0-1.74.82-3.99,2.05-6.6.05-.1.1-.21.1-.31s-.05-.15-.15-.15c-.51,0-3.48,2.36-11.16,7.37-4.45,2.92-9.88,5.12-15.15,5.12-4.86,0-7.17-2.05-7.17-5.84,0-6.45,9.06-13.56,15.87-13.56,3.38,0,4.81,1.79,4.81,3.84,0,3.89-5.02,6.86-12.75,7.57-.75.07-1.48.14-2.19.17l-.05-.5c.7-.04,1.43-.1,2.17-.18,2.7-.27,5.09-.77,7-1.51v-.07c-1.93.74-4.31,1.28-7.01,1.55-1.17.12-2.28.24-3.34.26l-.05-.59c.82-.03,1.67-.11,2.55-.2l-.09-.79c-.69.09-1.36.18-2.01.23l-.06-.61c.88-.09,1.8-.25,2.75-.36,5.48-.67,9.93-2.05,9.93-4.76,0-.82-.72-1.33-1.95-1.33-4.81,0-12.54,5.42-12.54,10.65,0,2.15,1.43,3.33,4.56,3.33,4.35,0,9.11-1.79,13.26-4.61,9.01-5.99,12.18-8.5,14.9-8.5,1.28,0,1.79.66,1.79,1.53,0,.56-.26,1.13-.46,1.54-1.48,2.71-2.51,6.19-2.51,7.12,0,.15,0,.2.1.2s.15-.05.51-.31c11.62-8.91,17.4-13.26,21.65-13.26,2.56,0,3.74,1.28,3.74,3.38,0,1.74-.77,3.33-2.25,6.04-.82,1.43-1.84,3.63-1.84,5.32,0,1.07.46,1.79,1.84,1.79s3.58-.56,5.78-1.38c.27-.1.53-.22.78-.33l.15.38c-.26.11-.53.21-.81.31-.91.33-1.82.61-2.67.84l.02.09c.86-.23,1.76-.55,2.67-.88.64-.24,1.25-.54,1.84-.82l.38.82h0s.15.32.15.32c-.63.29-1.26.66-1.94.91-.69.25-1.36.56-2.04.76l.02.08c.68-.2,1.38-.44,2.07-.69.16-.06.32-.14.47-.21l.17.44c-.16.06-.3.19-.47.25-2.42.86-4.98,1.54-6.6,1.54v.09c1.62,0,4.2-.63,6.64-1.5.07-.03.14-.08.21-.11l.07.19c-.07.03-.15.06-.22.08-2.46.87-5.07,1.48-6.7,1.48ZM87.57,28.08c.21-.02.43-.04.65-.07,1.77-.19,3.42-.46,4.88-.85v-.05c-1.46.39-3.11.69-4.88.87-.22.02-.43.06-.65.09ZM97.76,23.91c.34-.36.57-.77.69-1.21v-.02c-.13.44-.36.86-.69,1.23ZM142.65,35.32c-.85.21-1.67.36-2.39.47v.07c.73-.12,1.54-.31,2.39-.55Z"/><path class="cls-1" d="M150.95,31.84c-.04-.08-.09-.16-.13-.25l.21-.16c.04.08.08.17.12.26.65,1.21,1.44,2.3,2.36,3.15l.05-.04c-.91-.85-1.73-1.93-2.38-3.14-.06-.11-.13-.2-.18-.3l.59-.45c-.06-.1-.13-.2-.18-.31l.85-.69c.13.22.39.35.54.58.21.34.55.58.76.88l.18-.12c-.22-.3-.48-.6-.7-.94-.09-.14-.23-.25-.32-.38l.19-.15c.09.14.19.27.28.41,1.84,2.82,3.33,4.15,4.91,4.15,1.38,0,2.25-.92,2.25-2.56,0-2.92-1.02-6.19-1.02-8.55,0-3.28,1.94-5.53,6.09-5.53,2.87,0,5.73,1.23,9.01,3.94.04.03.08.07.12.1l-.39.45s-.07-.08-.11-.12c-2.83-2.39-5.33-3.6-7.74-3.82l-.03.07c2.4.22,4.91,1.39,7.74,3.78.21.17.43.32.63.49l-.84.99c-.09-.09-.15-.23-.2-.37l-.06.07c-.11-.09-.39.02-.5-.08-1.44-1.27-2.97-1.99-4.22-2.56l-.08.09c1.25.57,2.62,1.45,4.07,2.74.07.06.16.1.23.16l-.35.4c-.07-.06-.14-.13-.21-.19-2.71-2.46-5.07-3.48-7.06-3.48s-3.02.97-3.02,2.76c0,2.36,1.02,5.48,1.02,8.4,0,3.94-2.71,5.53-5.37,5.53-3.02,0-5.58-2.3-7.12-5.22ZM158.08,36.04c-1.16,0-2.25-.43-3.26-1.17.99.78,2.07,1.23,3.25,1.23v-.06Z"/><path class="cls-1" d="M179.51,36.96c-3.38,0-5.32-1.54-5.32-4.51,0-6.04,10.03-13.72,18.48-13.72,3.33,0,4.45,1.59,4.45,3.33,0,3.58-4.5,6.24-11.77,7.88-1.12.25-2.19.46-3.21.62l-.18-.98c1.01-.16,2.07-.34,3.18-.59,3.81-.86,6.97-1.92,8.8-3.33l-.06-.12c-1.8,1.4-4.94,2.53-8.75,3.38-.45.1-.88.23-1.32.32l-.08-.38c.43-.09.79-.55,1.24-.65,3.43-.77,6.31-2.04,7.99-3.23l-.05-.12c-1.66,1.19-4.64,2.13-8.04,2.89-.5.11-.98.26-1.47.36l-.07-.33c.48-.1.97-.21,1.47-.33,5.07-1.13,9.26-2.56,9.26-4.81,0-.66-.61-1.18-1.84-1.18-6.65,0-14.95,6.45-14.95,10.8,0,1.38.77,2.05,2.71,2.05,4.91,0,12.03-2.92,17.71-6.65.52-.34,1.02-.72,1.52-1.1l.12.16c-.51.38-1.02.75-1.54,1.09-1.31.86-2.7,1.67-4.12,2.42l.02.04c1.41-.75,2.79-1.58,4.11-2.44.26-.17.51-.37.77-.55l.32.44c-.07.05-.13.09-.2.14l.68.97.17-.12.47.66c-.27.18-.55.36-.83.54-7.01,4.56-13.77,7.06-19.66,7.06ZM197.11,30.28c-1.82,1.07-3.67,1.99-5.48,2.8l.05.1c1.8-.82,3.62-1.8,5.42-2.91ZM198.08,28.24c.09-.06.18-.13.27-.19-.09.06-.19.12-.28.18-.66.43-1.35.83-2.03,1.24l.03.05c.68-.4,1.35-.84,2.01-1.27Z"/><path class="cls-1" d="M117.96.12v6.96h2.5v1.16h-3.76V.12h1.26Z"/><path class="cls-1" d="M124.94.12v8.13h-1.26V.12h1.26Z"/><path class="cls-1" d="M129.87,4.63v3.61h-1.26V.12h3.72v1.16h-2.46v2.19h1.82v1.16h-1.82Z"/><path class="cls-1" d="M139.21.12v1.16h-2.42v2.14h1.79v1.16h-1.79v2.51h2.42v1.16h-3.68V.12h3.68Z"/><path class="cls-1" d="M146.01,4.48l1.09.14c-.05.76-.27,1.43-.65,2.01.17.24.44.41.83.52v1.21c-.54-.03-1.06-.3-1.54-.8-.22.22-.42.38-.58.48-.31.19-.65.29-1.01.29-.5,0-.93-.17-1.27-.52-.39-.4-.59-.89-.59-1.47,0-.47.15-.96.45-1.46.13-.23.35-.52.64-.86-.36-.73-.54-1.39-.54-1.96s.15-1.04.45-1.42c.32-.4.73-.6,1.24-.6.42,0,.78.14,1.05.43.31.32.46.73.46,1.23s-.16.95-.49,1.4c-.14.19-.41.54-.83,1.04.27.63.58,1.16.93,1.59.18-.34.3-.76.34-1.26ZM143.93,5.09c-.27.38-.4.75-.4,1.08,0,.23.06.44.19.63.14.22.32.33.54.33.26,0,.51-.13.76-.4-.44-.47-.81-1.01-1.1-1.64ZM144.22,3.09c.46-.54.7-1.06.7-1.58,0-.44-.16-.66-.48-.66-.18,0-.32.09-.41.26-.09.15-.13.35-.13.57,0,.44.11.91.32,1.41Z"/><path class="cls-1" d="M151.93.12v6.96h2.5v1.16h-3.76V.12h1.26Z"/><path class="cls-1" d="M158.91.12v8.13h-1.26V.12h1.26Z"/><path class="cls-1" d="M166.9,2.76h-1.26v-.17c0-.94-.32-1.42-.95-1.42-.35,0-.59.13-.74.4-.09.17-.15.35-.17.54-.02.18-.02.39-.02.63v2.7c0,.57.05.97.14,1.21.13.35.41.52.82.52.65,0,.97-.53.97-1.6v-.2h1.26c0,.14,0,.24,0,.3,0,.79-.16,1.41-.48,1.87-.37.54-.96.8-1.76.8-.85,0-1.45-.3-1.82-.9-.19-.31-.31-.66-.35-1.04-.03-.32-.05-.7-.05-1.14v-2.27c0-.78.05-1.32.15-1.62.17-.54.49-.92.95-1.15.32-.16.68-.24,1.1-.24.69,0,1.23.21,1.61.64.4.44.6,1.07.6,1.86,0,.06,0,.15,0,.26Z"/><path class="cls-1" d="M174.12.12v1.16h-2.42v2.14h1.79v1.16h-1.79v2.51h2.42v1.16h-3.68V.12h3.68Z"/><path class="cls-1" d="M181.92.12v8.13h-1.13l-2.18-5.41v5.41h-1.2V.12h1.26l2.05,5.05V.12h1.2Z"/><path class="cls-1" d="M189.87,2.03l-1.2.36c-.19-.81-.56-1.21-1.08-1.21-.23,0-.42.08-.57.23-.16.16-.24.36-.24.6,0,.3.11.57.34.82.15.16.51.46,1.08.89.58.45.99.82,1.21,1.09.35.42.52.92.52,1.49s-.2,1.09-.6,1.48c-.41.39-.95.59-1.63.59-1.39,0-2.21-.76-2.47-2.29l1.2-.35c.17.97.59,1.46,1.27,1.46.29,0,.51-.09.68-.26.17-.17.25-.39.25-.67s-.11-.55-.32-.79c-.17-.2-.47-.47-.89-.8-.61-.48-.98-.77-1.1-.89-.56-.54-.85-1.14-.85-1.78s.23-1.14.68-1.52c.38-.32.86-.48,1.43-.48,1.17,0,1.93.68,2.28,2.03Z"/><path class="cls-1" d="M196.92.12v1.16h-2.42v2.14h1.79v1.16h-1.79v2.51h2.42v1.16h-3.68V.12h3.68Z"/></g></svg>