<?xml version="1.0" encoding="UTF-8"?><svg id="_レイヤー_2" xmlns="http://www.w3.org/2000/svg" viewBox="0 0 206.71 113.32"><defs><style>.cls-1{fill:#333;}</style></defs><g id="_940"><polygon class="cls-1" points="157.37 61.9 151.97 51.42 139.08 51.42 132.78 51.42 127.47 51.42 132.78 61.9 157.37 61.9"/><path class="cls-1" d="M162.58,110.51c-1.37,0-2.55-.2-5.11-.6-3.78-.67-6.42-4.84-7.77-7.57-.09-.42-.23-.84-.43-1.24l-5.9-11.89-3.01-6.11v.02s-4.84-9.73-4.84-9.73h0s-10.82-21.83-10.82-21.83l-5.82,11.84,6.49,13.09h0s10.18,20.54,10.18,20.54c.01.03.03.05.05.08l.6,1.2h0s1.35,2.72,1.35,2.72l1.28,2.62s.77,5.18-3.17,5.85c-3.94.67-4.94.84-6.68,1.01-.59,0-1.38.6-1.38,1.2,0,1.21,1.18,1.61,3.14,1.61h30.66c1.77,0,2.95-.4,2.95-1.61,0-.6-.79-1.2-1.77-1.2Z"/><path class="cls-1" d="M204.94,110.51c-1.37,0-2.55-.2-5.11-.6-5.7-1-8.8-9.96-8.8-9.96l-2.28-4.62c-.07-.18-.14-.35-.22-.53l-5.36-10.81-.44-.89h0s-.64-1.28-.64-1.28c-.02-.04-.03-.08-.05-.12l-4.13-8.31h0s-10.82-21.83-10.82-21.83h0S142.97,2.91,142.97,2.91c-.88-1.78-2.7-2.91-4.69-2.91s-3.81,1.13-4.69,2.91l-31.08,62.68c-.14.28-.24.57-.33.87-.68,1.76-3.68,8.68-8.65,9.56-.92.14-1.66.26-2.3.36-1.02-.15-2.32-.37-4.59-.76-3.94-.67-3.17-5.85-3.17-5.85l1-2.06,8.51-17.45,9.7-19.56,6.87,13.85,5.84-11.79-8.02-16.17c-.88-1.78-2.7-2.91-4.69-2.91s-3.81,1.13-4.69,2.91l-16.69,33.67-7.41,15.26-.26.54s-3.1,8.96-8.8,9.96c-2.56.4-3.74.6-5.11.6-.98,0-1.77.6-1.77,1.2,0,1.21,1.18,1.61,2.95,1.61h59.36c1.96,0,3.14-.4,3.14-1.61,0-.6-.79-1.2-1.38-1.2-1.74-.16-2.74-.33-6.68-1.01-3.94-.67-3.17-5.85-3.17-5.85l2-4.11,1.46-2.97,22.64-45.66,26.39,53.22s0,0,0,0l3.09,6.23h0s10.18,20.54,10.18,20.54c0,.01-2.54-5.12-5-10.1l5.66,11.42,2.59,5.31s.77,5.18-3.17,5.85c-3.94.67-4.94.84-6.68,1.01-.59,0-1.38.6-1.38,1.2,0,1.21,1.18,1.61,3.14,1.61h30.66c1.77,0,2.95-.4,2.95-1.61,0-.6-.79-1.2-1.77-1.2ZM168.38,77.7l.6,1.2h0c-.37-.76-.6-1.21-.59-1.2Z"/><path class="cls-1" d="M8.58,105.7c.03.33.1.85.5.98.28.09.53.09.64.09.04,0,.08.02.08.07,0,.06-.09.09-.2.09-.22,0-1.31-.02-1.67-.06-.23-.02-.28-.06-.28-.1,0-.03.02-.07.07-.08.06-.01.07-.16.04-.33l-.47-4.79h-.02l-2.36,4.84c-.2.41-.26.5-.35.5s-.15-.09-.33-.43c-.26-.47-.9-1.68-1.15-2.2-.29-.6-1.08-2.2-1.25-2.59h-.04l-.38,4.28c-.01.14-.01.32-.01.48,0,.15.09.23.23.27.17.04.31.06.38.06.03,0,.08.03.08.07,0,.07-.07.09-.18.09-.37,0-.84-.03-.91-.03-.09,0-.56.03-.82.03-.1,0-.17-.02-.17-.09,0-.03.04-.07.1-.07.08,0,.14-.01.29-.03.32-.06.33-.4.38-.76l.71-6.19c.01-.1.06-.17.11-.17.07,0,.15.03.2.14l2.96,5.88,2.85-5.87c.04-.09.09-.16.16-.16s.12.08.14.26l.67,5.82Z"/><path class="cls-1" d="M16.75,99.95c.12-.31.17-.37.23-.37.1,0,.13.13.23.35.18.4,1.75,4.31,2.35,5.75.36.85.62.97.84,1.04.15.04.29.06.39.06.06,0,.12.02.12.08s-.11.08-.22.08c-.14,0-.87,0-1.55-.02-.19-.01-.35-.01-.35-.07,0-.04.02-.04.07-.07.06-.02.16-.1.09-.26l-.88-2.17s-.03-.06-.09-.06h-2.26s-.08.02-.1.08l-.56,1.52c-.09.23-.14.47-.14.64,0,.19.17.26.33.26h.09c.08,0,.1.03.1.08,0,.06-.06.08-.14.08-.23,0-.77-.03-.88-.03-.1,0-.59.03-.99.03-.12,0-.19-.02-.19-.08,0-.04.04-.08.09-.08.07,0,.21-.01.29-.02.45-.06.64-.39.82-.87l2.31-5.93ZM17.84,103.9s.04-.02.03-.07l-.97-2.6c-.06-.14-.11-.14-.17,0l-.91,2.6s0,.07.03.07h1.98Z"/><path class="cls-1" d="M25.94,102.5c0-1.47,0-1.74-.02-2.04-.02-.32-.08-.48-.4-.52-.08-.01-.25-.02-.33-.02-.03,0-.08-.04-.08-.08,0-.06.04-.08.16-.08.45,0,1.06.02,1.14.02.21,0,.95-.02,1.39-.02,1.26,0,1.71.39,1.87.53.22.2.49.62.49,1.14,0,1.36-1.03,2.26-2.53,2.26-.06,0-.22,0-.28-.01-.04,0-.1-.04-.1-.09,0-.08.06-.1.26-.1,1.06,0,1.82-.67,1.82-1.53,0-.31-.03-.93-.56-1.44-.51-.51-1.1-.46-1.33-.46-.17,0-.45.04-.55.07-.06.01-.08.08-.08.18v3.86c0,.91,0,1.66.04,2.05.03.28.09.46.39.5.13.02.35.04.43.04.06,0,.08.04.08.08,0,.04-.04.08-.16.08-.53,0-1.18-.03-1.23-.03-.03,0-.67.03-.97.03-.1,0-.16-.02-.16-.08,0-.03.02-.08.08-.08.09,0,.21-.02.3-.04.19-.04.21-.22.26-.5.06-.39.06-1.14.06-2.05v-1.67Z"/><path class="cls-1" d="M37.68,99.95c.12-.31.17-.37.23-.37.1,0,.13.13.23.35.18.4,1.75,4.31,2.35,5.75.36.85.62.97.84,1.04.15.04.29.06.39.06.06,0,.12.02.12.08s-.11.08-.22.08c-.14,0-.87,0-1.55-.02-.19-.01-.35-.01-.35-.07,0-.04.02-.04.07-.07.06-.02.16-.1.09-.26l-.88-2.17s-.03-.06-.09-.06h-2.26s-.08.02-.1.08l-.56,1.52c-.09.23-.14.47-.14.64,0,.19.17.26.33.26h.09c.08,0,.1.03.1.08,0,.06-.06.08-.14.08-.23,0-.77-.03-.88-.03-.1,0-.59.03-.99.03-.12,0-.19-.02-.19-.08,0-.04.04-.08.09-.08.07,0,.21-.01.29-.02.45-.06.64-.39.82-.87l2.31-5.93ZM38.78,103.9s.04-.02.03-.07l-.97-2.6c-.06-.14-.11-.14-.17,0l-.91,2.6s0,.07.03.07h1.98Z"/><path class="cls-1" d="M46.87,102.5c0-1.47,0-1.74-.02-2.04-.02-.32-.08-.48-.4-.52-.08-.01-.25-.02-.33-.02-.03,0-.08-.04-.08-.08,0-.06.04-.08.16-.08.45,0,1.1.02,1.16.02.1,0,.92-.02,1.23-.02.62,0,1.31.06,1.83.41.25.18.68.64.68,1.29,0,.7-.29,1.38-1.2,2.16.8,1,1.48,1.86,2.05,2.45.52.53.85.62,1.09.66.19.03.29.03.35.03s.09.04.09.08c0,.06-.06.08-.23.08h-.61c-.56,0-.8-.06-1.05-.19-.42-.22-.78-.68-1.34-1.39-.41-.51-.85-1.13-1.06-1.38-.04-.04-.07-.06-.13-.06l-1.25-.02s-.07.02-.07.08v.22c0,.91,0,1.65.04,2.04.03.28.09.46.39.5.13.02.35.04.43.04.07,0,.08.04.08.08,0,.04-.04.08-.16.08-.53,0-1.16-.03-1.2-.03-.01,0-.67.03-.97.03-.1,0-.16-.02-.16-.08,0-.03.02-.08.08-.08.09,0,.21-.02.3-.04.19-.04.21-.22.26-.5.06-.39.06-1.14.06-2.05v-1.67ZM47.71,103.31c0,.06.02.09.07.12.14.08.65.15,1.08.15.23,0,.5-.01.74-.17.33-.22.59-.72.59-1.45,0-1.18-.65-1.86-1.69-1.86-.29,0-.6.03-.7.06-.04.02-.08.06-.08.11v3.04Z"/><path class="cls-1" d="M60.22,104.17c0,.91,0,1.66.04,2.05.03.28.08.46.38.5.13.02.36.04.45.04.07,0,.08.04.08.08,0,.04-.04.08-.16.08-.53,0-1.16-.03-1.21-.03-.04,0-.72.03-1.01.03-.11,0-.16-.02-.16-.08,0-.03.02-.07.08-.07.09,0,.2-.02.29-.04.2-.04.26-.23.29-.51.04-.39.04-1.14.04-2.05v-3.98l-1.42.02c-.61.01-.85.08-.99.3-.11.17-.12.23-.16.3-.02.08-.06.09-.1.09-.02,0-.07-.02-.07-.08,0-.1.2-.95.21-1.03.02-.06.07-.18.1-.18.07,0,.17.08.43.11.28.03.66.04.77.04h3.7c.32,0,.55-.02.7-.04.15-.02.23-.04.28-.04s.04.06.04.11c0,.29-.03.97-.03,1.08,0,.08-.04.12-.09.12s-.07-.03-.08-.17v-.1c-.04-.29-.26-.5-1.19-.52l-1.23-.02v3.98Z"/><path class="cls-1" d="M75.95,105.7c.03.33.1.85.5.98.28.09.53.09.64.09.04,0,.08.02.08.07,0,.06-.09.09-.2.09-.22,0-1.31-.02-1.67-.06-.23-.02-.28-.06-.28-.1,0-.03.02-.07.07-.08.06-.01.07-.16.04-.33l-.47-4.79h-.02l-2.36,4.84c-.2.41-.26.5-.35.5s-.15-.09-.33-.43c-.26-.47-.9-1.68-1.15-2.2-.29-.6-1.08-2.2-1.25-2.59h-.04l-.38,4.28c-.01.14-.01.32-.01.48,0,.15.09.23.23.27.17.04.31.06.38.06.03,0,.08.03.08.07,0,.07-.07.09-.18.09-.37,0-.84-.03-.91-.03-.09,0-.56.03-.82.03-.1,0-.17-.02-.17-.09,0-.03.04-.07.1-.07.08,0,.14-.01.29-.03.32-.06.33-.4.38-.76l.71-6.19c.01-.1.06-.17.11-.17.07,0,.15.03.2.14l2.96,5.88,2.85-5.87c.04-.09.09-.16.16-.16s.12.08.14.26l.67,5.82Z"/><path class="cls-1" d="M82.62,102.5c0-1.47,0-1.74-.02-2.04-.02-.32-.08-.48-.4-.52-.08-.01-.25-.02-.33-.02-.03,0-.08-.04-.08-.08,0-.06.04-.08.16-.08.45,0,1.08.02,1.14.02.07,0,2.12.01,2.34,0,.19-.01.37-.04.45-.06.04-.01.09-.04.13-.04.03,0,.04.04.04.09,0,.07-.06.18-.08.45-.01.09-.03.51-.06.62-.01.04-.04.1-.09.1-.06,0-.08-.04-.08-.12,0-.07-.01-.22-.06-.33-.07-.16-.17-.22-.7-.29-.17-.02-1.3-.03-1.42-.03-.04,0-.06.03-.06.1v2.57c0,.07,0,.1.06.1.12,0,1.42,0,1.64-.02.23-.02.38-.03.48-.13.07-.07.11-.12.14-.12s.06.02.06.08-.06.21-.08.52c-.02.19-.04.55-.04.61,0,.08-.02.18-.09.18-.04,0-.07-.03-.07-.09,0-.09,0-.19-.04-.31-.03-.13-.12-.24-.5-.29-.27-.03-1.32-.04-1.48-.04-.06,0-.07.03-.07.07v.79c0,.32-.01,1.43,0,1.62.02.64.2.76,1.17.76.26,0,.72,0,.98-.1.26-.11.39-.28.45-.66.02-.11.04-.14.1-.14s.07.08.07.14-.08.71-.13.91c-.07.25-.17.25-.55.25-.74,0-1.3-.02-1.71-.03-.41-.02-.67-.02-.81-.02-.02,0-.21,0-.42.01-.19.01-.41.02-.57.02-.1,0-.16-.02-.16-.08,0-.03.02-.08.08-.08.09,0,.21-.03.3-.04.19-.03.21-.22.26-.5.06-.39.06-1.14.06-2.05v-1.67Z"/><path class="cls-1" d="M92.9,105.63c.02.78.11,1.01.38,1.08.18.04.4.06.49.06.04,0,.08.03.08.08,0,.06-.07.08-.18.08-.56,0-.95-.03-1.04-.03s-.5.03-.95.03c-.1,0-.16-.01-.16-.08,0-.04.03-.08.08-.08.08,0,.26-.01.4-.06.25-.07.28-.32.28-1.18v-5.43c0-.38.06-.48.13-.48.11,0,.28.19.38.29.16.16,1.58,1.67,3.1,3.23.97,1,2.02,2.13,2.32,2.44l-.1-4.75c-.01-.61-.07-.82-.37-.88-.18-.03-.4-.04-.48-.04-.07,0-.08-.06-.08-.09,0-.06.08-.07.19-.07.45,0,.91.02,1.03.02s.43-.02.84-.02c.1,0,.18.01.18.07,0,.03-.04.09-.11.09-.04,0-.12,0-.23.02-.32.07-.35.26-.35.82l-.02,5.55c0,.62-.01.68-.08.68-.1,0-.2-.08-.75-.58-.1-.09-1.52-1.48-2.55-2.56-1.14-1.19-2.24-2.35-2.54-2.69l.11,4.47Z"/><path class="cls-1" d="M107.63,104.17c0,.91,0,1.66.04,2.05.03.28.08.46.38.5.13.02.36.04.45.04.07,0,.08.04.08.08,0,.04-.04.08-.16.08-.54,0-1.16-.03-1.22-.03-.04,0-.72.03-1.01.03-.11,0-.16-.02-.16-.08,0-.03.02-.07.08-.07.09,0,.2-.02.29-.04.2-.04.26-.23.29-.51.04-.39.04-1.14.04-2.05v-3.98l-1.42.02c-.61.01-.85.08-.99.3-.11.17-.12.23-.16.3-.02.08-.06.09-.1.09-.02,0-.07-.02-.07-.08,0-.1.2-.95.21-1.03.02-.06.07-.18.1-.18.07,0,.17.08.43.11.28.03.66.04.77.04h3.7c.32,0,.55-.02.7-.04.14-.02.23-.04.28-.04s.04.06.04.11c0,.29-.03.97-.03,1.08,0,.08-.04.12-.09.12s-.07-.03-.08-.17v-.1c-.04-.29-.26-.5-1.19-.52l-1.23-.02v3.98Z"/></g></svg>