<?xml version="1.0" encoding="UTF-8"?><svg id="_レイヤー_2" xmlns="http://www.w3.org/2000/svg" viewBox="0 0 212.25 30.51"><defs><style>.cls-1{fill:#fff;fill-rule:evenodd;}</style></defs><g id="_レイヤー_1-2"><path class="cls-1" d="M20.86,1.15c-.39.02-.78.04-1.17.07v-.07h-.19v-.06c-.13-.04-.26-.09-.39-.13v-.07h-.26c-.41-.13-1.06.04-1.56-.06-.02,0-.02-.08-.13-.06v.06h-.91v.06h-.13v.07h-.19v.06c-.1.02-.31-.13-.52-.06v.06h-.26v.06c-.26.04-.52.09-.78.13v.06h-.13v.06c-.2.02-.39.04-.59.06v.06l-.39.13v.06h-.13v.06h-.13v.06h-.13v.06c-.13.02-.26.04-.39.06-.02.04-.04.09-.06.13h-.13l-.06.13h-.13v.07l-.45.06c-.04.06-.09.13-.13.2h-.13l-.13.19h-.13s-.04.09-.06.13c-.13.11-.26.22-.39.32-.02.06-.04.13-.06.19-.09.02-.18.04-.26.06v.06s-.09.04-.13.07v.13c-.06.04-.13.09-.19.13-.11.13-.22.26-.32.39-.35.32-.69.65-1.04.97v.13l-.13.06v.13s-.09.04-.13.06v.13h-.06v.19h-.06v.13h-.06v.13c-.06.04-.13.09-.2.13v.13l-.13.13v.13h-.06v.13l-.13.06c-.04.13-.09.26-.13.39h-.06v.13h-.06c-.04.13-.09.26-.13.39h-.06v.2h-.06v.13h-.06v.2h-.06c-.02.15-.04.3-.06.45h-.06c-.02.09-.04.17-.07.26h-.06v.13h-.06c-.02.13-.04.26-.06.39h-.06v.13h-.07c-.02.11-.04.22-.06.32h-.06v.2h-.07v.2h-.06v.26h-.06v.39h-.06v.26h-.06v.2h-.06v.71h-.06c.02.32.04.65.06.97h.06c-.02.17-.04.35-.06.52h.06v.46h.06v.84h.06c.02.15.04.3.06.46h.06v.19h.07v.2h.06c.02.13.04.26.06.39l.13.06v.13h.06v.13h.06v.13l.13.13v.13c.06.04.13.09.19.13v.13c.09.07.17.13.26.2v.13c.17.15.35.3.52.45v.13c.09.06.18.13.26.2v.13c.06.04.13.09.19.13v.06h.13c.09.11.17.22.26.32h.13c.07.09.13.17.2.26l.26.06v.06h.13v.06c.13.04.26.09.39.13v.07c.13.02.26.04.39.06v.06c.13.02.26.04.39.06v.07h.13v.06h.19v.06h.33v.06c.09.02.17.04.26.07v.06h.26v.06h.19s.04.09.07.13c.26.02.52.04.78.06.04-.12.06-.25.06-.46-.13-.15,0-.42-.06-.65-.05-.19-.16-1.1-.07-1.37h.07v-.13h.06v-.19h.06v-.46h.06c.04-.13.09-.26.13-.39h.07c.02-.09.04-.17.06-.26l.13-.06v-.13l.2-.13v-.13l.58-.52v-.13c.07-.04.13-.09.2-.13v-.13c.06-.04.13-.09.19-.13v-.13l.13-.06c.09-.11.17-.22.26-.32h.13l.07-.13c.06-.02.13-.04.2-.06v-.06l.26-.06.06-.13c.09-.02.18-.04.26-.06l.06-.13h.13s.04-.09.06-.13h.13l.06-.13.26-.06c.11-.13.22-.26.33-.39l.19-.06v-.13s.24-.73.13-.91h-.06c-.02-.06-.04-.13-.06-.2h-.06c-.18-.28-.1-.34-.59-.32-.08-.08-.44-.2-.65-.13v.06h-.2v.06h-.13v.06c-.19.04-.39.09-.59.13v.06h-.13v.06c-.13.04-.26.09-.39.13v.06c-.13.02-.26.04-.39.06v.06h-.19v.07c-.11.02-.22.04-.33.06v.06h-.13v.06h-.19v.06h-.13v.07l-.39.06v.06h-.13v.06h-.19v.06c-.09.02-.17.04-.26.06v.07h-.13v.06h-.19v.06c-.13.04-.26.09-.39.13v.07h-.26v.06c-.09.02-.17.04-.26.06v.06c-.19.07-.39.13-.58.2-.02.04-.04.09-.06.13h-.13v.06h-.13v.06h-.13l-.13.13h-.13l-.06.13h-.13s-.04.08-.06.13h-.13v.06h-.19v.06h-.2v.07h-.13v.06h-.13l-.06.19c-.07.04-.13.09-.2.13v.06h-.2c-.26.11-.38.19-.78.2-.1-.18-.18-.16-.19-.46.13-.11.26-.22.39-.32.02-.04.04-.08.06-.13h.13l.13-.13h.13v-.07h.13v-.06h.13l.06-.13c.09-.02.17-.04.26-.06v-.07h.13v-.06h.13v-.06h.13l.13-.13h.13l.06-.13.19-.06v-.07c.24-.08.48-.17.72-.26l.06-.13h.13s.04-.09.06-.13h.13l.06-.13h.13v-.07h.13v-.06h.2v-.06h.13v-.06h.13s.04-.09.06-.13h.2v-.06l.39-.06v-.06h.13c.04-.07.09-.13.13-.2.32-.13.65-.26.97-.39l.13-.13h.13s.04-.08.06-.13c.13-.04.26-.09.39-.13.02-.04.04-.09.06-.13h.13l.06-.13c.2-.06.39-.13.59-.2v-.06l.19-.06s.04-.09.06-.13c.13-.04.26-.09.39-.13v-.06c.06-.02.13-.04.19-.07l.06-.13h.13v-.06h.13v-.07h.13l.13-.13h.13s.04-.09.06-.13l.26-.06.07-.13c.06-.02.13-.04.2-.06v-.06h.13v-.06h.13l.13-.13h.13l.06-.13c.2-.06.39-.13.59-.2.04-.06.09-.13.13-.2.09-.02.17-.04.26-.06l.06-.13c.09-.02.17-.04.26-.07v-.06h.13v-.06h.13v-.06h.13v-.06h.13v-.06h.13l.13-.13h.13s.04-.09.06-.13h.13l.06-.13h.2v-.07c.19-.06.49.04.58.07h.91v.06h.13v.06h.13v.06h.13l.13.13h.13c.04.07.09.13.13.2h.13c.09.11.18.22.26.32l.2.13c.07.11,0,.15.13.26.02.4.12,1.1-.07,1.43-.15.13-.3.26-.45.39v.13h-.07v.13h-.06c-.11.25.06.3-.26.39-.05.13-.09.26-.13.39h-.13c-.07.08-.11.07-.19.13v.06l-.19.06v.13h-.07v.13c-.13.17-.26.35-.39.52h-.13s-.04.09-.06.13h-.13c-.06.09-.13.17-.2.26-.09.02-.17.04-.26.06v.06l-.19.06s-.04.09-.06.13h-.13l-.06.13c-.09.07-.17.13-.26.2-.02.09-.04.17-.06.26-.09.06-.17.13-.26.2v.13s-.09.04-.13.06v.13l-.13.07c-.02.09-.04.17-.06.26-.04.02-.09.04-.13.07-.14.23-.13.6-.13.97.15.09.19.29.32.39.11.07.15,0,.26.13,1.05.02,1.9-.13,2.66-.39h.33v-.06h.19v-.06h.13v-.06l.32-.06s.04-.09.07-.13h.13l.06-.13h.13c.06-.09.13-.17.19-.26h.13c.04-.06.09-.13.13-.2h.13l.06-.13h.13v-.07h.13v-.06h.19v-.06h.13v-.06h.13v-.06h.13l.13-.13h.13s.04-.08.06-.13c.06-.02.13-.04.2-.06.04-.06.08-.13.13-.2.19-.11.39-.22.58-.32.13-.17.26-.35.39-.52h.13c.04-.06.09-.13.13-.19h.13c.17-.2.35-.39.52-.58.13-.11.26-.22.39-.32v-.13c.06-.04.13-.09.2-.13.02-.06.04-.13.06-.2l.13-.06v-.13l.13-.07v-.13h.06c.02-.09.04-.17.07-.26h.07c.04-.19.08-.39.13-.58h.06v-.46h.06v-.52h-.06v-.65h-.06c-.04-.39-.09-.78-.13-1.17h-.07c-.02-.13-.04-.26-.07-.39h-.06v-.13h-.06v-.26h-.06v-.13h-.06v-.13l-.13-.06c-.04-.13-.09-.26-.13-.39l-.2-.13c-.02-.07-.04-.13-.06-.2h-.06v-.13l-.13-.06v-.13c-.2-.17-.39-.35-.59-.52v-.06l-.13-.06v-.13c-.17-.15-.35-.3-.52-.45v-.13c-.15-.13-.3-.26-.46-.39-.04-.06-.09-.13-.13-.2h-.13c-.06-.09-.13-.17-.2-.26h-.13l-.13-.2h-.06v-.39c.2-.12.22-.19.58-.2.13.15.14.05.32.13v.06h.13v.06h.13s.04.09.07.13h.13c.04.06.09.13.13.19h.13v.06l.19.07s.04.09.06.13h.13l.06.13c.15.13.3.26.45.39v.13c.24.22.48.43.71.65v.13l.13.06v.13c.13.11.26.22.39.32.24.3.48.61.71.91.07.2.13.39.2.59l.13.06v.13h.06c.02.09.04.17.06.26h.06v.2h.07c.02.09.04.17.07.26h.06v.13h.06v.2h.06c.04.13.09.26.13.39h.06c.02.09.04.17.06.26.04.02.09.04.13.06.02.15.04.3.06.46h.06v.13h.07v.2h.06v.19h.06v.32h.06c.02.15.04.3.07.46h.06v.2h.06v.26h.06l.06.71h.06v.2h.06v.2h.06v.26h.07c.02.43.04.87.06,1.3h-.06v.06h.06v2.86h-.06v.32h-.07c.02.32.05.65.07.97h-.07v.13h-.06v.2h-.06v.13h-.06v.26h-.06v.91h-.06v.32h-.06v.26h-.06v.39h-.07v.26h-.06v.2h-.06v.13h-.06v.26h-.07c-.02.09-.04.17-.06.26h-.06c-.02.11-.04.22-.06.32h-.07c-.04.13-.09.26-.13.39h-.06v.13h-.06v.13h-.06v.13h-.06c-.09.24-.18.48-.26.72l-.26.19c-.02.11-.04.22-.06.32h-.06v.13s-.09.04-.13.06c-.02.09-.04.17-.06.26-.04.02-.09.04-.13.06v.13h-.06c-.02.06-.04.13-.06.2-.04.02-.09.04-.13.06v.13l-.19.13v.13c-.15.13-.3.26-.46.39v.13l-.26.2c-.42.59-.71,1.07-1.56,1.23-.07.25-.19.27-.39.39v.06h-.13v.06h-.13c-.13.15-.26.3-.39.46h-.13l-.06.13h-.19v.07c-.09.02-.17.04-.26.06v.06h-.2s-.04.09-.06.13h-.13l-.06.13h-.13v.06c-.09.02-.17.04-.26.06v.06h-.2v.06h-.13v.06h-.13c-.06.09-.13.18-.19.26-.09.02-.18.04-.26.06v.07h-.19v.06h-.2v.06h-.13v.06h-.39v.07h-.26v.06h-.13c-.04.06-.09.13-.13.2h-.2v.06h-.26v.06h-.26v.06h-.71v.06h-.26v.07h-.26v.06h-.26v.06h-.65v.06c-.09.02-.17.04-.26.06v.06c-.22-.02-.43-.04-.65-.06-.28.02-.56.04-.84.06-.11-.02-.18-.09-.39-.06v.06h-.06v-.06h-.26v-.06h-.19v-.06c-.14-.04-.2.06-.2.06l-1.3.06v-.06h-.46v-.06h-.32v-.06h-.26v-.06h-.26v-.07h-.39v.07c-.22-.02-.43-.04-.65-.07v-.06h-.2v-.06h-.39v-.06h-.26v-.06h-.2v-.07h-.2v-.06h-.19v-.06h-.19v-.06h-.13v-.07h-.13l-.06-.13c-.15-.02-.3-.04-.45-.06v-.07l-.26-.06v-.06h-.13v-.06h-.26v-.06c-.09-.02-.18-.04-.26-.07v-.06l-.32-.06s-.04-.09-.06-.13h-.13v-.06h-.19v-.07c-.13-.04-.26-.09-.39-.13v-.06h-.13v-.06c-.09-.02-.17-.04-.26-.06-.02-.04-.05-.09-.07-.13h-.13c-.06-.09-.13-.17-.19-.26h-.13l-.06-.13c-.09-.02-.17-.04-.26-.07-.06-.08-.13-.17-.2-.26h-.13l-.13-.19h-.13s-.04-.09-.06-.13c-.13-.04-.26-.09-.39-.13v-.06l-.19-.06s-.04-.09-.07-.13h-.13c-.04-.07-.09-.13-.13-.2h-.13c-.09-.11-.17-.22-.26-.32h-.13c-.04-.07-.09-.13-.13-.2-.18-.15-.35-.3-.52-.45v-.13c-.28-.26-.56-.52-.85-.78v-.13l-.13-.06v-.13c-.06-.04-.13-.09-.2-.13-.13-.17-.26-.35-.39-.52v-.13h-.06v-.19h-.07c-.02-.09-.04-.17-.06-.26h-.06v-.2h-.06v-.13s-.09-.04-.13-.07v-.13l-.13-.06v-.13s-.09-.04-.13-.07c-.04-.13-.09-.26-.13-.39h-.06v-.13h-.06c-.04-.13-.09-.26-.13-.39h-.07v-.26h-.06c-.02-.08-.04-.17-.06-.26h-.06c-.04-.2-.09-.39-.13-.59h-.06v-.13h-.06v-.2h-.07v-.2h-.06v-.2h-.06v-.26h-.06v-.32h-.07v-.52h-.06v-.39h-.06v-.26h-.06v-.78c-.02-.37-.04-.74-.07-1.11h.07v-.19h.06v-.2h.06v-.32l.13-.06c.12-.17-.07-.12.19-.2v-.06h.32c.12.13.13.05.26.13v.06h.13c.04.07.09.13.13.2h.13v.06c.09.02.18.04.26.07l.06.13h.13c.11.13.22.26.32.39h.13l.06.13c.35.11.7.22,1.04.32v.07c.08.02.17.04.26.06l.06.13h.06s.04.09.06.13h.13v.06c.13.1.16.11.39.13v-.06c-.07-.07-.03,0-.06-.13l-.19-.06v-.07h-.13l-.06-.13h-.13l-.13-.13v-.13c-.08-.11-.36-.28-.52-.32v-.13c-.29-.16-.55-.36-.78-.58-.06-.09-.13-.17-.19-.26h-.13v-.06c-.07-.04-.13-.09-.2-.13-.02-.09-.04-.17-.06-.26-.2-.15-.39-.3-.59-.45-.02-.09-.04-.17-.06-.26-.06-.04-.13-.09-.2-.13v-.13l-.19-.13c-.11-.13-.22-.26-.32-.39-.01-.49-.03-1.11.13-1.43l.13-.06v-.2h.06v-.19h.06v-.32h.06v-.2s.09-.04.13-.06c.14-.22.01-.31.32-.39v-.07h.32c.04.08.1.09.13.13v.13c.06.04.13.09.19.13v.13s.09.04.13.07v.13h.06c.02.13.04.26.06.39h.06c.02.09.04.17.06.26h.06v.32h.06c.05.13.09.26.13.39h.06c.02.09.04.17.06.26.06.04.13.09.19.13.09.24.18.48.26.71.15.13.3.26.46.39l.19-.06c.05-.12.06-.26.06-.46h.06c-.02-.11-.04-.22-.06-.32-.04-.02-.08-.04-.13-.06v-.13c-.06-.04-.13-.09-.19-.13-.02-.11-.04-.22-.07-.32h-.06c-.02-.09-.04-.17-.06-.26h-.06c-.02-.13-.04-.26-.07-.39h-.06v-.13h-.06v-.13l-.13-.06v-.2h-.06v-.13h-.06c-.02-.09-.04-.17-.06-.26h-.06c-.06-.35-.13-.69-.19-1.04h-.07v-.13h-.06c-.09-.22-.16-.91-.06-1.17h.06v-.13h.06c.02-.15.05-.3.07-.45l.13-.06c.02-.09.04-.17.06-.26l.13-.06c.02-.09.04-.17.06-.26.04-.02.09-.04.13-.07.02-.09.04-.17.06-.26.13-.11.26-.22.39-.32.02-.06.04-.13.07-.2l.19-.06c.04-.06.09-.13.13-.2h.26c.11.14.13.04.19.26h.06v.26h.06v.06h-.06v.59h-.06c-.02.09-.04.17-.06.26h-.06c.02.06.04.13.06.2v.84h.06c.04.22.09.43.13.65h.2c.04-.23.14-.51.2-.71v-.97h.06v-.26h.06v-.46h.06c.02-.13.04-.26.07-.39h.06v-.13h.06c.04-.2.09-.39.13-.59h.06c.04-.13.09-.26.13-.39h.07v-.13h.06v-.13h.06v-.13h.06v-.13l.13-.13v-.13c.13-.11.26-.22.39-.33h.13l.06-.13h.13c.2-.22.39-.43.59-.65h.13c.06-.09.13-.17.19-.26h.13c.09-.11.18-.22.26-.32h.13l.06-.13h.13c.04-.07.09-.13.13-.2l.26-.06s.04-.09.07-.13c.09-.02.17-.04.26-.06.02-.04.04-.09.06-.13h.13c.04-.06.09-.13.13-.19.13-.04.26-.09.39-.13v-.07h.13v-.06h.13v-.06c.13-.04.26-.09.39-.13v-.06c.26-.04.52-.09.78-.13l.06-.13h.13v-.07h.26v-.06h.32v-.06c.22-.02.43-.04.65-.06v-.07l.32-.06c.04-.06.09-.13.13-.2h.19v-.06h.2v-.06h.26v-.06h.39c.33-.1.89.03,1.3-.06,0,0,0-.09.13-.06v.06h.58V.04c.43-.12,1.13.06,1.49.06.26-.02.52-.04.78-.06v.06h.19v.06h.26v.06h.26v-.06c.15.02.3.04.45.06v.06h.13v.06h.26s.04.09.06.13h.13l.06.13h.13s.05.09.07.13c.11.06.22.13.32.2v.19ZM17.09,7.45c.43,0,.77.02,1.04.13.04.1.05.11.06.26-.11.13-.22.26-.32.39h-.13l-.13.13h-.13v.06h-.13s-.04.09-.07.13l-.39.06-.06.13h-.13c-.04.07-.09.13-.13.2l-.19.06c-.02.07-.04.13-.06.2-.1.07-.15,0-.26.13-.36,0-.52-.07-.78-.13-.05-.12-.06-.26-.07-.46.16-.1.04-.07.13-.19l.39-.33s.05-.09.07-.13h.13c.04-.06.08-.13.13-.19h.13l.06-.13c.08-.07.19-.11.26-.19.22,0,.48-.03.59-.13"/><path class="cls-1" d="M140.17,19.25c-.12.6-.22,1.15-.1,1.73.69.23,1.97.1,2.84.1v.1h.21v-.1h.74v-.1h.74c.18-.03.35-.06.53-.09v.09h.63v.1h.32v.1c.42.19.7.11.84.58.3.26.14.54.1.96-.32.19-.1.27-.53.38-.27.24-.45.07-.84.19v.1h-.32v.1c-1.65.03-3.3.06-4.95.1-.11.16-.22.2-.42.29v.29h-.11v1.06h-.1v.38h.1v.77h-.1c-.1.32.09.66-.11.86-.08.29-.28.45-.53.58-.22.2-.6.2-1.05.19-.18-.19-.25-.08-.42-.19v-.1c-.3-.23-.35-.34-.53-.67v-.19h-.11v-.19h-.11v-1.34h.11c.04-.35.07-.7.11-1.06h-.11c-.07-.18-.04-.25-.11-.38-.1-.03-.21-.06-.32-.1v-.1c-.58-.19-1.62.4-2.42.19v-.1h-1.58c-.59-.16-1.34-.37-2-.48-.32-.5-.53-.38-.53-1.25.12-.11.04,0,.11-.19.15-.08.42-.27.53-.38.35-.03.7-.06,1.05-.1v.1c.25.03.49.06.74.1v-.1c.46.03.91.06,1.37.1v-.1h.42v-.1h.1v.1h2.21v-.1c.14-.03.28-.06.42-.1.07-.54.14-1.09.21-1.63h-.11v-.58c-.11-.03-.21-.06-.32-.1-.29-.21-1.11.15-1.69,0-.61-.16-1.7.07-2.32-.1v-.1h-.53v-.1c-.21-.06-.42-.13-.63-.19v-.1h-.21c-.04-.06-.07-.13-.11-.19-.77-.67-.6-1.3-.63-2.59v-.38h-.11c.04-.42.07-.83.11-1.25v-.67c.16-.51.21-1.12.21-1.83,0-.94-.07-2.62.53-2.98.5-.45,1.36.02,2.11-.1,1.02-.1,2.04-.19,3.06-.29v.1c.28.03.56.06.84.09.08-.13.19-.29.32-.38.04-.38.07-.77.1-1.15h-.1v-.29h-.11c-.04-.09-.07-.19-.11-.29-.26-.04-.57-.18-.95-.1,0,0-.09.14-.32.1v-.1c-.84-.03-1.69-.06-2.53-.1l-2.11.19v-.1h-.21v-.1c-.65-.31-1.04-.46-1.05-1.35.14-.1.28-.19.42-.29v-.1c.21-.06.42-.13.63-.19.04-.06.07-.13.1-.19h1.47c.37-.1,2.55-.23,3.05-.1.74.19,1.05.27,1.79,0,.04-.09.07-.19.11-.29h.11c.23-.58-.28-1.04.53-1.25.17-.14.62-.1.95-.1.18.2.24.08.42.19.14.16.28.32.42.48h.11v.19h.11c.21.49-.23.69.42.87.29.23.93-.02,1.37.1,1.15.29,2.33.11,3.69.1.14.16.28.32.42.48.11.03.21.06.32.1v.19c.18.16.13.88,0,1.06l-.32.19c-.14.13-.59.27-.95.19,0,0-.09-.14-.32-.1v.1h-.95c-1.19,0-2.6-.18-3.37.1-.24.48-.32,1.09-.21,1.63.2.08.53.23.74.29h1.58v-.09c.28.03.56.06.84.09h1.37v.1h.32v.1h.32v.1h.21c.04.06.07.13.1.19h.21c.03.06.07.13.1.19h.11v.19c.07.03.14.06.21.1v.29c.15.15.18,2.11.11,2.5-.03.13-.06-.03-.11.09v.29h-.11v1.34h-.1v1.06h-.11v.29h-.1v.77h-.11v.38h-.11c0,.14.08-.04.11.1v1.06c-.08.21-.25.4-.32.67-.11.03-.21.06-.32.1-.04.06-.07.13-.1.19-.21.1-.64.08-.84.19-.04.06-.07.13-.1.19-.24.13-.55.1-.84.19v.1h-1.48c-.7.06-1.4.13-2.11.19M159.87,8.3c.04-.19.07-.38.11-.58h.1v-.58h.11v-.19h.1c.14-.25.1-.49.21-.77h.11c.03-.29.07-.58.11-.86.25-.67.49-1.35.74-2.02.49-.2.71-.38,1.47-.38.26.27.5.14.63.58.26.27-.1,1.5.1,2.02.35.06.7.13,1.05.19v-.1h.95v-.09c.56.03,1.12.06,1.69.09.56-.03,1.12-.06,1.69-.09v.09h.21c.04.06.07.13.11.19h.21v.1c.29.17.19-.09.32.29.34.26.19.68.11,1.06-.12.06-.16.17-.21.19h-.21v.1c-.25.03-.49.06-.74.1-.03.06-.07.13-.11.19h-.1v.19h-.11c-.07.19-.14.38-.21.58h-.11v.29h-.1c-.04.13-.07.26-.11.39h-.11c-.03.16-.07.32-.1.48-.07.03-.14.06-.21.1v.19h-.11v.38h-.11v.19h-.11c-.13.36.19.46,0,.87h-.1c-.04.13-.07.26-.1.38h-.11c-.03.19-.07.38-.1.58-.07.03-.14.06-.21.1v.19h-.1c-.07.32-.14.64-.21.96-.07.03-.14.06-.21.1v.29h-.11v.67h-.11v.19h-.1c-.07.19-.14.38-.21.58h-.11c-.03.13-.07.26-.1.38h-.1v.29h-.11c.04.42.07.83.11,1.25h.1c.04.32.07.64.1.96h.11c.03.13.07.26.1.38h.11v.29h.1v.19h.11v.29h.11v.19h.1c.04.19.07.38.11.58h.1v.39h.11v.19h.1v.29h.1v.29h.11v.29h.1c.07.32.14.64.21.96h.1c.04.19.07.38.11.58h.11c.03.13.07.26.11.38h.1v.19h.11v.29h.1v.19h.11v.38h.11c.07.19.14.38.21.58h.1v.19h.11v.19h.11v.29h.1c.33.98-1.36,1.5-1.9,1.06h-.21v-.1c-.21-.16-.42-.32-.63-.48v-.19c-.11-.06-.21-.13-.32-.19-.07-.19-.14-.38-.21-.58h-.1v-.38h-.1c-.04-.13-.07-.26-.11-.38h-.1v-.48h-.11v-.29h-.1v-.29h-.11v-.29h-.1v-.29h-.11v-.19h-.11v-.29h-.1v-.19h-.11c-.21-.64-.42-1.28-.63-1.92-.21-.05-.09.01-.21-.1-.21.05-.09-.01-.21.1-.07.03-.14.06-.21.1v.38h-.1c-.04.13-.07.26-.1.38h-.11v.19h-.11v.29h-.11v.19l-.32.19v.19h-.11c-.04.23-.07.45-.11.67h-.1c-.04.13-.07.26-.11.38h-.11v.19h-.1v.38h-.11c-.07.19-.14.38-.21.58h-.11c-.07.19-.14.38-.21.58-.07.03-.14.06-.21.1v.19h-.11c-.32.55-.32,1.36-1.05,1.54v.1h-.42v.1c-.63.18-1.4-.23-1.58-.48-.04-.13-.07-.26-.11-.38h-.1v-.67h.1c.04-.13.07-.26.11-.38.07-.03.14-.06.21-.1.07-.19.14-.38.21-.58.07-.03.14-.06.21-.1v-.19c.07-.03.14-.06.21-.1v-.19h.1c.04-.19.07-.38.11-.58.07-.03.14-.06.21-.1v-.19h.1v-.19h.11v-.29h.1v-.19h.11c.04-.23.07-.45.11-.67h.1c.07-.19.14-.38.21-.58h.11v-.29h.11v-.19h.1v-.19c.07-.03.14-.06.21-.1v-.19h.11v-.19h.1v-.38h.1v-.38h.11v-.19h.11v-.29h.11c.03-.13.07-.26.1-.38h.1c.04-.16.07-.32.11-.48.07-.03.14-.06.21-.1.11-.19.08-.58.21-.77.07-.03.14-.06.21-.1v-.19c.07-.03.14-.06.21-.1v-.19h.11c.14-.33-.14-.97-.21-1.15v-.29h-.11c-.07-.32-.14-.64-.21-.96h-.11c-.1-.29-.21-.58-.32-.87h-.21c-.31.52-.76.69-1.69.67-.12-.13-.19-.15-.42-.19-.11.19-.31.39-.42.58-.04.13-.07.26-.1.38-.18.09-.35.19-.53.29v.19c-.07.03-.14.06-.21.1-.04.13-.07.26-.11.38-.07.03-.14.06-.21.1-.03.13-.07.26-.1.38l-.32.19c-.27.26-.57.71-.63,1.15.18.03.35.06.53.1.29-.05,2.14-.23,2.53-.1v.1h.21c.04.06.07.13.11.19h.21v.1c.16.13.14.05.21.29h.11c.04.19.07.38.1.58h-.1v.29h-.11c-.17.2-.2.31-.53.38-.26.22-.56.09-.95.19v.1c-.05.02-.95.1-.95.1-.11-.03-.21-.06-.32-.1v.1c-.21.03-.42.06-.63.09-.24.37-.32.3-.32.96-.28.3-.11,1.33-.11,1.73v2.4c.04.26.07.51.11.77-.11.29-.21.58-.32.86-.1.06-.21.13-.32.19-.26.36-.07.63-.63.77-.34.3-.91.06-1.48.19v.1h-.53v-.1h-.74c-.34-.1-.63-.3-1.05-.38-.07-.1-.14-.19-.21-.29h-.11c-.14-.2-.11-.54-.11-.87.28-.16.56-.32.84-.48h1.05v-.1h.32v-.1c.1-.03.21-.06.32-.1.06-.57.1-1.31.1-2.02v-1.06c.07-.22.32-1.02.21-1.34h-.1c-.04-.19-.07-.38-.11-.58-.35-.11-.92-.2-1.26-.29h-1.58v-.1h-.42v-.1h-.21v-.1c-.4-.19-.71-.13-.84-.58-.19-.17-.22-.67-.1-1.06h.1c-.04-.22-.07-.45-.1-.67h.1v-.19h.11c.07-.19.14-.39.21-.58h.1c.07-.19.14-.38.21-.58h.1c.11-.29.21-.58.32-.87h.1c.04-.13.07-.26.1-.38h.11v-.38c.07-.03.14-.06.21-.1v-.19c.07-.03.14-.06.21-.1.04-.13.07-.26.11-.38h.1c.07-.19.14-.38.21-.58h.11c.03-.16.07-.32.1-.48h.1v-.19h.11v-.19c.07-.03.14-.06.21-.1.03-.13.07-.26.1-.38.29-.5.59-.88.63-1.63-.52.01-.81-.1-1.16-.19h-.95l-1.16-.58v-.19c-.21-.16-.29-.45-.32-.77.28-.14.62-.4.95-.48.21.03.42.06.63.1.89.07,1.68.12,2.42,0,.08-.39.11-.92.11-1.44-.28-.14-.44-.19-.95-.19v-.1c-.41.02-1.08.39-1.69.19v-.1c-.14-.03-.28-.06-.42-.1v-.09c-.16-.11-.18-.13-.42-.19-.1-.38-.21-.37-.21-.96.2-.09.43-.31.63-.38h.42v-.09h.42v-.1c.16-.03.2.1.21.1.23.03.21-.1.21-.1h.53v-.1c.56-.15,1.06.11,1.37-.29.51-.5-.21-1.41.74-1.63.28-.26.56-.12,1.05-.1.16.23.52.31.63.58v.67h.11c.07.22.02.38.1.58.11.03.21.06.32.1v.1h2.21v.1c.18.03.35.06.53.1.2.31.39.35.42.86h-.1c-.04.19-.07.39-.11.58-.07.03-.14.06-.21.1v.19c-.11.06-.21.13-.32.19v.1c-.07.03-.14.06-.21.1v.19c-.07.03-.14.06-.21.1-.19.26-.29.45-.32.87h.11v.09c.87,0,1.09.18,1.9.19M62.53,3.83c.07.25.1.25.21.42h.1v.95h.11c.04.32.07.63.11.95h.11v.42h-.11v2.74h.11c.1.32.22,1.64,0,1.9-.18.32-.35.63-.53.95h-.21c-.55.52-1.88-.03-2.74.21v.11h-.95v.11h-.63v.1h-.21v.1c-.39.07-.77.14-1.16.21-.09.21-.29.38-.21.74,0,0,.16.1.11.32h-.11v.42c-.07.03-.14.07-.21.1v1.58c-.01.9-.25,2.17,0,3.05-.04.74-.07,1.48-.11,2.21h.11v.95c0,.89-.03,1.83.21,2.42.11.03.21.07.32.1v.11h.95v.1c.56-.03,1.12-.07,1.69-.1v.1h.74v-.1c.22-.05.32.1.32.1.32.07.71-.08.84-.21h.1c.09-1.44-.21-3.1-.21-4.85v-1.79h.11v-.63c.03-.55.16-1.04.53-1.26.42-.44,1.09,0,1.58.11.06.12.18.17.21.21v.21h.1v2.42h.11v2.74h.1v.95h.11v1.16h.11c.13.49-.09,1.85-.11,2.53-.21.18-.42.35-.63.53h-.53c-1.57.53-3.81.1-5.79.11-1.14,0-2.61.3-3.69,0h-2.53v.1h-.53v-.1h-.42v.1h-.74v.11c-.37.1-1.49.06-1.69-.11h-.21v-.1c-.25-.21-.49-.42-.74-.63v-1.58c.31-.37.05-1.53.21-2.11h.11v-.84h.11v-1.37h.1v-.74h.11v-.95h.11v-1.05c.13-.47.2-.94.21-1.58.53-.31.61-.73,1.47-.74.15.17.36.26.63.32.04.21.07.42.11.63h.11v.74h.11c-.04.49-.07.98-.11,1.48v1.47h-.11v.95c-.06.22-.2.53-.21.84-.07.77-.14,1.55-.21,2.32h.1v.32h.11c.25.23,1.23.12,1.69.1.1.08,1.71.01,2.21,0,.15-.28.19-.18.21-.63h.11c-.04-.25-.07-.49-.11-.74.15-.69.12-1.78.11-2.63v-.53h-.11v-2.11c.04-.35.07-.7.11-1.05h-.11v-.84s.14,0,.11-.21h-.11v-.42c.16-.65.11-1.71.11-2.53-.35-.18-.46-.22-1.05-.21v-.11h-.53c-.22-.07-.88-.21-1.26-.11v.11h-.84c-.43-.12-.93-.29-1.48-.32v-.11c-.1-.04-.21-.07-.32-.11l-.32-.42h-.11v-.21c-.07-.04-.14-.07-.21-.1v-.84h.11l.11-.74h.11v-.53h.1c.04-.42.07-.84.1-1.26h.11v-1.05h.11v-.42h.11c.19-.64-.1-1.62.21-2.11.07-.04.14-.07.21-.11.32-.34.51-.5,1.16-.53.12.14.19.16.42.21.04.1.07.21.1.32h.1v.21h.11c.1.29.07,1.63,0,1.9h-.11c.04.21.07.42.11.63-.19.86-.27,2-.11,2.95,1.09.19,2.24.38,3.27.21.12-.33.11-.89.11-1.37.18-.26-.26-.96-.11-1.58h.11c.05-.23-.11-.32-.11-.32v-1.26h.11v-.95c0-.66.02-1.39.11-1.9.44-.24.56-.51,1.26-.53.16.19.37.17.53.32.18.17.23.47.42.63v.74h.1c-.04.53-.07,1.05-.1,1.58h.1v1.48c0,.99.06,2.01.11,2.84.27.14.37.21.84.21.24-.21.68,0,1.05-.11v-.1h.42v-.1h.32v-.11h.95c.06-.1.32-.32.32-.32v-2.84c-.14-.19.11-.61,0-1.05h-.1v-.53h.1c.2-.71-.26-1.17.53-1.37.2-.21.06,0,.32-.1.53-.21.7,0,1.16.1M95.72,5.83c.42.04.84.07,1.26.1v-.1c.53.04,1.05.07,1.58.1,1.16,0,2.66-.16,3.37.32.07.1.14.21.21.32.07.04.14.07.21.11.26.41.21,1.44.21,2.11.04.39.07.77.1,1.16-.15.6-.23,1.86-.1,2.63.07.42.27,1.42.1,2h-.1v1.58h-.11c.04.7.07,1.4.11,2.11-.11.98-.21,1.97-.32,2.95h-.1v1.79h.1v1.68h-.1v1.06c-.11.37-.47,1.17-.74,1.37h-.21c-.07.11-.14.21-.21.32h-.21c-.07.11-.14.21-.21.32h-.21v.1c-.32.15-1.28.28-1.79.21-.11-.03-.21-.07-.32-.11v.11c-1.19-.03-2.39-.07-3.58-.11h-.95v.11c-.53.07-1.05.14-1.58.21v-.11c-.61-.17-1.51.03-2-.11h-1.16v-.11h-.32v-.1h-.21c-.03-.07-.07-.14-.11-.21h-.21c-.07-.1-.14-.21-.21-.32h-.21c-.04-.11-.07-.21-.11-.32-.07-.04-.14-.07-.21-.11v-.32c-.17-.19-.17-1-.11-1.37.02-.15.06.04.11-.11v-1.79h.1v-.53h-.1v-1.26h.1c.07-.32.14-.63.21-.95h-.11c-.04-.35-.07-.7-.11-1.05h.11v-.95s.14,0,.11-.21h-.11v-2.42h.11v-.42h.1v-.74h.11c.12-.42-.14-1.03-.11-1.26h.11c.09-.41-.14-.94-.11-1.16h.11v-.95h.1v-1.79h.11v-.32h.11v-2.11c.18-.14.35-.28.53-.42v-.11h.21c.04-.07.07-.14.11-.21.14-.03.28-.07.42-.1.04-.07.07-.14.11-.21h2.42c.07-.11.14-.21.21-.32h.1c.07-.21.14-.42.21-.63.07-.04.14-.07.21-.11.04-.1.07-.21.1-.32.11-.07.21-.14.32-.21v-.21c.11-.07.21-.14.32-.21v-.21c.1-.07.21-.14.32-.21.5-.51.92-1.02,1.9-1.05v.11c.18.03.35.07.53.1.27.46.51.38.53,1.16-.47.42-.56,1.13-1.16,1.48.04.11.07.21.1.32M111.73,20.62c.13,0,.42.1.42.1,0,0,.05-.15.32-.1.15.03-.04.13.11.1.91-.22,1.9-.06,2.11.69.22.22.06.64,0,.89-.1.07-.21.13-.32.2v.1c-.23.14-.57.18-.84.3v.1h-.95c-.32.1-.63.2-.95.3-.05.27-.1.51-.11.89.28.14.45.2.95.2.23-.22.68-.2,1.05-.3v-.1c.15-.02-.04.07.11.1h.42c.26.35.8.32.95.79.24.24.03.74,0,1.08-.11.07-.21.13-.32.2v.1c-.18.03-.35.06-.53.1v.1c-.14.03-.28.06-.42.1v.1h-.32v.1h-.53c-1.45.43-3.56.44-5.16.69-.77.03-1.55.07-2.32.1v-.1h-.32v-.1h-.32c-.25-.16-.49-.33-.74-.49-.14-.21-.1-.56-.1-.89.18-.13.35-.26.53-.39v-.1c.22-.14.56-.1.84-.2v-.1h1.16v-.1h.95v-.1h.32v-.1c.59-.22.91-.02.95-.79.12-.11.04,0,.1-.2-.27-.13-.37-.2-.84-.2-.32.3-.84.07-1.37.2v.1c-.34.09-1.19-.1-1.37-.2-.04-.07-.07-.13-.11-.2-.33-.18-.28.17-.42-.3-.27-.21-.32-.51-.32-.99.32-.16.63-.33.95-.49,1.09-.16,2.18-.33,3.27-.49.07-.29.14-.59.21-.89-.1-.07-.18-.28-.21-.3h-1.26v-.1c-.49-.03-.98-.07-1.48-.1v-.1c-.14-.03-.28-.07-.42-.1-.04-.07-.07-.13-.11-.2h-.21v-.1c-.16-.13-.14-.05-.21-.3-.23-.19-.1-.21-.21-.49h-.11v-.49h-.1v-.2h-.1c-.04-.26-.07-.53-.11-.79h-.11c.11-1.05.21-2.1.32-3.15.04-1.09-.24-2.43.53-2.86v-.1h.32v-.1h.21v-.1h.42v-.1h2.63v-.1c.21-.03.42-.06.63-.1.06-.31.17-.44.21-.79-.28-.14-.18-.17-.63-.2-.03-.02-1.32-.19-1.79-.1v.1h-.21v-.1h-1.37c-.17-.05-.54-.22-.74-.3-.03-.1-.07-.2-.11-.3h-.1v-.2c-.07-.03-.14-.07-.21-.1-.11-.17-.1-.42-.11-.69.25-.16.49-.33.74-.49h.32v-.1h4.11c.09-.45.09-.74,0-1.18-.29-.04-.85-.22-1.26-.1v.1h-.32v.1h-.32v.1c-.83.24-1.97-.25-2.11-.69-.2-.16-.21-.33-.21-.69l.84-.59h.32v-.1c.53-.03,1.05-.07,1.58-.1v-.1h.53v-.1h.42v-.1h.21v-.1h1.69v-.1h.63v-.1h.74v-.1c.28-.03.56-.07.84-.1v-.1h.21v-.1h.42v-.1h.74c.17-.05.72-.19,1.05-.1v.1c.18.03.35.07.53.1.3.47.61.39.63,1.18-.33.26-.35.66-.84.79-.33.3-1.23.29-1.9.29h-.63v.1h-.21v.1h-.53s0,.06-.21.1c-.1.18-.15.16-.21.39-.23.23-.03.65,0,.98.1.03.21.07.32.1.13.11,1.38.18,1.69.1v-.1c.41-.12,1.07-.08,1.37.1.1.13.21.26.32.4h.21v.1h.1v.2c.26.23.17.48.11.79-.13.06-.15.16-.21.2h-.21v.1h-.21c-.03.07-.07.13-.1.2h-.32v.1c-.25.03-.49.06-.74.1v.1h-.32v.1h-.32v.1h-1.26c-.17.3-.2.18-.21.69.11.03.21.07.32.1.27.18.76-.15,1.26,0v.1h.32v.1c.46.03.91.07,1.37.1.11.13.21.26.32.39h.21v.1c.16.14.14.05.21.3.32.26.21.63.11.99v.69c-.26.82-.38,2.81-.11,3.74.11.38-.07,1.53-.21,1.67-.12.47-.71.88-1.37.89-.77.67-2.76-.47-2.84.98M123,7.42h.95v.1h1.9v.1h.32c.35.13.6.35.84.59.07.03.14.07.21.1v.39h.11v.59h.11v.39h.1c.07.25-.08.36-.1.49-.04.66-.07,1.31-.11,1.97h-.11v.99h-.1c-.05.19.05.13.1.2,0,.21-.1.2-.1.2v1.48h-.11c-.04.69-.07,1.38-.1,2.07h.1v1.18h-.1v.1h.1v.89h-.1v.49h-.11l-.11,1.97h-.1v1.18h-.11v.98h-.1v.49h-.11v.49h-.1v.59h-.11c-.04.16-.07.33-.1.49-.07.03-.14.07-.21.1v.2h-.1v.2h-.11c-.21.34-.16.57-.63.69v.1h-.63v.1c-.14.03-.28.07-.42.1v.1c-.36.1-.85-.23-1.05-.3h-.53v-.1h-.32c-.04-.07-.07-.13-.11-.2h-.21c-.04-.07-.07-.13-.1-.2h-.21v-.1c-.11-.07-.21-.13-.32-.2v-.2c-.07-.03-.14-.07-.21-.1v-.69c.17-.13.22-.28.42-.39.45-.43,1.4-.23,2.11-.2.05-.08.21-.2.21-.2v-.39h.11v-.49h.1v-.2h.11v-.3h.1c-.04-.2-.07-.39-.1-.59h-.11v-.1h.11v-1.57c.24-.8.32-1.83.32-2.86v-1.77h.1c.04-.99.07-1.97.11-2.95v-1.28c.19-.61.31-1.24.32-2.07-.15-.07-.32-.18-.42-.3-.46.03-.91.07-1.37.1-.05.09-.21.19-.21.2-.04.29-.07.59-.1.89h-.11v.3h-.1v1.08h-.11v1.97h-.1v.2h-.1c.04.36.07.72.1,1.08h-.1c-.05.21.1.3.1.3-.04.39-.07.79-.1,1.18h-.11v.2h-.11v1.28h-.11v.69h-.1v.59h-.1v.39h-.11v.49h-.11v.2h-.11c-.04.43-.07.85-.1,1.28h-.11c-.04.23-.07.46-.1.69h-.11v.29h-.11v.3c-.07.03-.14.07-.21.1v.2h-.11v.2h-.1c-.04.3-.07.59-.11.89h-.1v.3h-.11c-.07.2-.14.39-.21.59h-.1v.2c-.14.1-.28.2-.42.3v.2c-.07.03-.14.06-.21.1-.04.13-.07.26-.11.39-.07.03-.14.07-.21.1-.04.07-.07.13-.1.2-.28.17-.6.2-1.05.2v-.1c-.18-.03-.35-.06-.53-.1-.34-.53-.63-.45-.63-1.38h.11c.03-.16.07-.33.1-.49h.1v-.2h.11v-.2c.07-.03.14-.07.21-.1v-.2h.1v-.2l.21-.2v-.2c.07-.03.14-.07.21-.1v-.2h.1c.07-.43.14-.85.21-1.28h.11v-.29h.11v-.3h.1c.04-.26.07-.53.11-.79h.1v-.2h.11v-.39h.11c.04-.46.07-.92.1-1.38h.11c.04-.3.07-.59.1-.89h.11v-.49h.1c.04-.62.07-1.25.1-1.87h.11l.11-1.08h.11c-.04-.3-.07-.59-.11-.89h.11v-.59h-.11v-.1h.11v-.39h.1v-1.08h.1c-.04-.33-.07-.66-.1-.99.07-.23.14-.46.21-.69h-.11c-.04-.1-.07-.2-.1-.3-.91-.01-2.04-.42-2.21-1.08h-.1v-.69c.25-.16.49-.33.74-.49.48-.17,1.48.08,2-.1v-.3h.1v-1.08h.11c.23-.75-.19-1.73.1-2.36h.11c.18-.34-.05-.37.42-.49.37-.34,1.57.08,1.69.3v.2h.1v.59h.11v2.56h.11c.03.2.07.39.1.59M82.44,7.31c.18-.79,2.08-2.01,3.05-1.26.04.11.07.21.11.32h.11v.21h.1c.24.71-.62,1.38-1.05,1.48-.11.42-.35.6-.63.84v.1h-.21c-.42.46-.84.91-1.26,1.37h-.21c-.04.07-.07.14-.11.21h-.21v.1c-.11.07-.21.14-.32.21v.21h-.1v.21c-.18.14-.35.28-.53.42-.04.07-.07.14-.11.21h-.21l-.42.53h-.21c-.04.07-.07.14-.11.21h-.21v.1c-.07.04-.14.07-.21.11v.63h.1v.42h.11v.21h.1c.04.14.07.28.11.42l.21.21v.21c.07.03.14.07.21.11v.21h.11l.11.84h.11v.21h.1v.21h.11v.21h.11v.32h.1c.03.14.07.28.11.42h.1c.04.21.07.42.11.63h.11c.07.21.14.42.21.63h.1v.21h.11v.21h.11v.21h.1v.32h.11c.07.21.14.42.21.63h.1v.21h.11v.21h.1c.07.21.14.42.21.63.07.04.14.07.21.1v.21h.1c.04.25.07.49.11.74h.11v.21h.1c.04.18.07.35.11.53h.1v.21h.11c.03.14.07.28.1.42h.1c.04.21.07.42.11.63h.1l.11.42h.1c.04.25.07.49.11.74h.1v.32h.1c.16.34.2.56.21,1.05-.55.5-.18.76-1.37.74v-.11h-.42c-.16-.26-.11-.06-.32-.21-.04-.07-.07-.14-.11-.21l-.32-.11c-.04-.14-.07-.28-.1-.42h-.11v-.21h-.1c-.07-.21-.14-.42-.21-.63h-.11v-.32h-.11v-.21h-.1v-.32h-.11v-.21h-.1v-.32h-.11c-.04-.14-.07-.28-.11-.42h-.1v-.32h-.11v-.21h-.1v-.32h-.11c-.04-.14-.07-.28-.11-.42h-.1c-.07-.35-.14-.7-.21-1.05h-.11c-.07-.21-.14-.42-.21-.63h-.11v-.21h-.11v-.21h-.11c-.04-.14-.07-.28-.1-.42h-.11v-.32h-.1l-.11-.42h-.11v-.32h-.1v-.21h-.11v-.21c-.23-.43-.52-.9-.74-1.37-.21.06-.09-.01-.21.1h-.11v.74h-.11v.53h-.11v.11h.11v1.68h-.11c.04.39.07.77.11,1.16,0,1.18.05,2.47-.21,3.37v.74h-.1v.21h-.11v.21c-.07.03-.14.07-.21.1v.21c-.18.21-.35.42-.53.63-.14.04-.28.07-.42.11-.04.07-.07.14-.11.21h-.21c-.03.07-.07.14-.1.21h-.32c-.2.08-.59.3-.95.21v-.1c-.39.04-.77.07-1.16.1v-.1h-1.37v-.1h-.32v-.11h-.21c-.03-.07-.07-.14-.11-.21-.38-.24-.59-.07-.74-.63h-.11v-.63c.28-.21.56-.42.84-.63h.32v-.11h1.26c.47-.14,1.16-.22,1.69-.32.04-.1.07-.21.11-.32.27-.31.21-2.26.21-2.95.04-.88.07-1.76.11-2.63h.1c-.07-1.33-.14-2.67-.21-4h-.21c-.07.1-.14.21-.21.32h-.11v.21h-.1v.21h-.1v.32c-.07.04-.14.07-.21.11v.21c-.11.07-.21.14-.32.21v.21c-.07.03-.14.07-.21.1v.32h-.11v.21h-.1v.21l-.21.21v.21c-.11.07-.21.14-.32.21v.32h-.11v.21h-.1v.21c-.07.04-.14.07-.21.1v.32h-.1c-.04.14-.07.28-.11.42h-.11v.32c-.11.07-.21.14-.32.21-.04.11-.07.21-.11.32h-.11c-.07.28-.14.56-.21.84-.14.11-.28.21-.42.32-.04.18-.07.35-.1.53h-.11v.21c-.07.03-.14.07-.21.1-.07.32-.14.63-.21.95h-.11v.21c-.11.07-.21.14-.32.21-.04.14-.07.28-.1.42h-.11v.21h-.11v.21h-.11v.21h-.1v.32c-.1.07-.21.14-.32.21-.04.14-.07.28-.11.42-.1.07-.21.14-.32.21v.21c-.1.07-.21.14-.32.21v.21h-.11c-.07.11-.14.21-.21.32h-.21v.11c-.64.29-1.75-.08-1.9-.63h-.1c-.04-.21-.07-.42-.11-.63.33-.28.63-.87.84-1.26v-.21h.1v-.21c.18-.14.35-.28.53-.42.18-.49.35-.98.53-1.47h.11v-.21c.07-.04.14-.07.21-.11v-.21h.1v-.21l.21-.21v-.21c.07-.04.14-.07.21-.1v-.21l.21-.21v-.21h.1v-.21h.1v-.21h.11v-.21h.1v-.32h.11c.03-.14.07-.28.1-.42h.1v-.21c.11-.07.21-.14.32-.21.12-.19.1-.66.21-.84.1-.07.21-.14.32-.21.04-.11.07-.21.1-.32h.11v-.32h.1v-.21h.11v-.21c.07-.04.14-.07.21-.11.04-.14.07-.28.11-.42h.11c.03-.11.07-.21.11-.32.07-.04.14-.07.21-.1v-.21c.07-.04.14-.07.21-.1.07-.21.14-.42.21-.63.1-.07.21-.14.32-.21v-.21l.21-.21v-.21h.11v-.21h.11v-.21h.1v-.21h.11v-.21h.1c.15-.28.2-.54.32-.84h.11c-.04-.14-.07-.28-.11-.42-.23-.04-.41-.19-.74-.11-.16.04-.62.19-.95.11,0,0-.08-.15-.32-.11-.8.17-2.37.2-3.06-.1v-.11h-.21v-.1h-.21c-.04-.07-.07-.14-.11-.21-.1-.07-.21-.14-.32-.21v-.63c.12-.12.04,0,.11-.21.13-.07.15-.17.21-.21h.21c.04-.07.07-.14.11-.21.21-.03.42-.07.63-.1v-.11c2.18-.1,4.35-.21,6.53-.32.17-.33.2-.19.21-.74.24-.28.06-1.11.1-1.58.02-.2.11-.21.11-.21v-1.37c0-.71.08-1.32.1-1.9.51-.28.5-.42,1.37-.42v.11c.18.04.35.07.53.1.21.32.42.63.63.95v.95c.13.46.24,1.59.1,2.21h-.1c.04.35.07.7.1,1.05h-.1v.32h-.1v1.16c.27.14.18.19.63.21.11-.13.19-.11.32-.21v-.11h.21c.39-.42.77-.84,1.16-1.26.21-.07.42-.14.63-.21.07-.1.14-.21.21-.32h.11v-.21c.21-.18.42-.35.63-.53v-.1h.21ZM174.62,12.81c.29-.05,1.45-.5,1.58-.67h.11v-.38h.11v-.19h.1c.17-.3.29-.64.32-1.06h-.11v-.29h-.1v-.1c-.21.03-.42.06-.63.1v.1c-.26.07-.17.05-.32.19h-.11v.19c-.1.06-.21.13-.32.19v.1c-.18.03-.35.06-.53.1-.21.22-.42.45-.63.67h-.21l-.11.19h-.21c-.26.17-.6.89-1.26.67v-.09h-.21v-.1c-.16-.11-.18-.13-.42-.19-.08-.3-.33-.5-.42-.77-.15-.43.12-.92.32-1.06h.21c.11-.13.21-.26.32-.38.14-.03.28-.06.42-.1.04-.06.07-.13.11-.19.41-.23.68-.07.84-.58h.1v-.48c-.1-.03-.21-.06-.32-.1v-.1c-.17-.03-.35-.06-.53-.1v-.1h-.21c-.25-.26-.49-.51-.74-.77v-.58h.11v-.19h.1c.03-.1.07-.19.11-.29.18-.03.35-.06.53-.09v-.1c.25.06.49.13.74.19.03.06.07.13.1.19.18.03.35.06.53.1v.1h.21v.1c.14.03.28.06.42.1v.1h.32v.09h.32v.1h.32v.1h.32c.03.06.07.13.1.19.33.19.53.27,1.05.29.07-.18.11-.38.11-.67h-.11v-1.34s-.07-.02-.1-.19c-.34-.06-.91-.35-1.48-.19v.09h-.32v.1h-.32v.1h-.74v-.1h-1.58v-.1h-.21c-.22-.11-.36-.32-.53-.48-.07-.03-.14-.06-.21-.1v-.19c-.07-.03-.14-.06-.21-.09v-.77c.12-.06.17-.17.21-.19h.21v-.09h.42v-.1h2.21v-.1h.84v-.1c.49-.12,1.77,0,2.11.1h1.05v.1c.14.03.28.06.42.1.18.22.35.45.53.67-.04,1.18-.07,2.37-.1,3.55h.1c.09.31-.12.45-.1.67.01.14.07-.04.1.1-.07.51-.14,1.03-.21,1.54h-.11c-.04.58-.07,1.15-.1,1.73h-.11v.29h-.1l-.11.38h-.1v.19c-.14.1-.28.19-.42.29v.19h-.1c-.07.1-.14.19-.21.29h-.21c-.04.06-.07.13-.1.19-.11.03-.21.06-.32.1v.1h-.21c-.04.06-.07.13-.11.19h-.21c-.04.06-.07.13-.11.19-.23.19-.4.27-.84.29-.19-.19-.21-.08-.42-.19v-.1h-.21v-.1c-.07-.03-.14-.06-.21-.09v-.19c-.07-.03-.14-.06-.21-.1v-.48h-.11c.04-.19.07-.38.11-.58M196.85,3.4h.84v.1c.21-.03.42-.06.63-.1v.1c.21.03.42.06.63.1.21.43.25.23.53.48.11.1.07.19.21.29-.07.32-.14.64-.21.96-.15.07-.42.27-.53.38h-1.37c-.27-.07-.94-.3-1.37-.19-1.32.34-3.48.5-4.95.38-.32-.32-.63-.64-.95-.96v-.77c.11-.05.19-.18.21-.19h.32v-.1c.14-.03.28-.06.42-.1v-.09c.53.03,1.05.06,1.58.09.46-.03.91-.06,1.37-.09.14.02.36.18.63.09v-.09h.21v-.1h.32v-.1c.46-.13,1.16.15,1.47-.1M186.84,13.97c-.1.03-.21.06-.32.1v.1h-.21v.09h-.21l-.11.19c-.21.06-.42.13-.63.19v.1c-.59.19-1.55-.13-1.9-.19-.29-.44-.7-.54-.74-1.25h.1v-.29h.11v-.19h.1v-.1h.11v-.1c.35-.03.7-.06,1.05-.09.43-.16.53-.78.53-1.35-.18-.06-.33-.09-.63-.1-.49.32-.98.64-1.48.96-.14.03-.28.06-.42.09l-.11.19c-.14.03-.28.06-.42.1v.1h-.84v-.1h-.21l-.32-.38h-.1c-.12-.16,0-.22-.21-.38,0-.54.12-.76.21-1.15.1-.03.21-.06.32-.09.04-.06.07-.13.1-.19.14-.03.28-.06.42-.1v-.1h.42v-.1h.21l.32-.38h.21v-.1c.07-.03.14-.06.21-.1v-.29c-.49-.29-.98-.58-1.47-.86v-.19c-.16-.15-.21-.65-.21-.96.2-.11.39-.32.63-.38.32-.09.9.1,1.05.19.04.06.07.13.11.19.21.06.42.13.63.19.04.06.07.13.11.19.14.03.28.06.42.1v.1h.21v.1c.42.2.59.16,1.05.1.06-.65.07-1.21,0-1.92-.21-.03-.21-.1-.21-.1h-.74v-.1h-.32v-.1c-.35-.1-.64.13-.84.1v-.1h-1.26v-.09c-.14-.03-.28-.06-.42-.1-.13-.2-.66-.79-.53-1.15h.11v-.19h.1v-.19h.11c.17-.26-.1-.19.32-.29.13-.11,1.67-.18,2-.1v.1c.21-.03.42-.06.63-.1,1.37-.05,3-.08,3.27.87.19.2.01.55.11.86.13.45,0,1.23,0,1.92.04,1.31.07,2.63.1,3.94h-.1c-.04.32-.07.64-.11.96h-.11l.11.77h-.11v.67h-.11c-.03.16-.07.32-.1.48M210.33,5.6c-.3.05-.58.21-.84.29-.28.03-.56.06-.84.1l-.11.19c-.11.03-.21.06-.32.1v.1h-.32v.09c-.24.13-.15-.04-.32.19h-.1v.1h.1c.24.18.96.1,1.37.1,1.37,0,1.9-.34,2.74.38.21.18.33.17.42.48.31.29-.03.79-.11,1.06-.11.03-.21.06-.32.09v.1c-.21.03-.42.06-.63.1v.1h-1.16v.1h-.21c-.1.25-.11.67-.11,1.06.24.25.07,1.02.11,1.44.04.4.27,1.2.11,1.73,0,0-.09,0-.11.19v1.25h-.11v1.15h-.1v.1c.04.26.07.51.1.77h-.1c-.09.32.14.61.1.77h-.1v.38h-.11c-.13.39-.02,2.2,0,2.31v.48h-.1v.77h.1v2.02h.11c.04,1.06.07,2.12.1,3.17h-.1c-.04.16-.07.32-.11.48-.18.09-.75.46-.95.48h-.1v-.1h-.42c-.18-.19-.35-.38-.53-.58h-.1c-.07-.19-.14-.38-.21-.58h-.1v-2.69h-.11v-1.54h-.1c.03-.96.07-1.92.1-2.88v-.96s-.13-.03-.1-.19h.1v-.77h.11v-.29h.1c.03-.16-.1-.17-.1-.19v-1.63h.1c-.03-.22-.07-.45-.1-.67h.1c.04-.74.07-1.47.11-2.21h.11c-.07-.96-.14-1.92-.21-2.88-.45-.22-.66-.2-1.37-.19-.26-.22-1.08-.15-1.37-.1-.06.11-.18.15-.21.19v.19h-.1v.38h-.1c.04.26.07.51.1.77.02.7-.16,1.3,0,1.83-.04.51-.07,1.02-.1,1.54.1.35.26,1.33.1,1.83h-.1c-.04.48-.07.96-.11,1.44.03.13.07.26.11.38h-.11v.67h-.11v.96h-.11v.48h-.1v.77h-.11v.29h-.1v.19h-.11v.29h-.11c-.04.35-.07.71-.1,1.06h-.11c-.04.16-.07.32-.11.48h-.1v.19h-.11v.29h-.1v.19h-.11v.19c-.07.03-.14.06-.21.1v.19c-.07.03-.14.06-.21.1-.04.19-.07.38-.11.58-.07.03-.14.06-.21.1v.29h-.1v.19c-.07.03-.14.06-.21.1-.46.66-.85,1.83-1.89,1.92v-.09h-.42v-.1c-.33-.15-.56-.2-.74-.48-.23-.21-.22-.62-.21-1.06.18-.14.31-.38.42-.58v-.19h.1c.04-.1.07-.19.11-.29.07-.03.14-.06.21-.1.03-.13.07-.26.1-.38.07-.03.14-.06.21-.09v-.19c.07-.03.14-.06.21-.1v-.19c.07-.03.14-.06.21-.1v-.19h.11c.07-.19.14-.38.21-.58h.1v-.29h.11v-.29h.1v-.19h.11v-.29h.11v-.58h.1c.07-.35.14-.7.21-1.06h.11v-.38h.11v-.67h.1v-.58h.11v-1.06h.1v-.87h.11l-.11-.77h.11v-1.25h.1v-1.44h.1c-.04-.45-.07-.9-.1-1.35.04-.96.07-1.92.1-2.88h.11v-.38h.11v-1.54h-.11v-.19h-.11c-.1-.27.07-.48.11-.67.2-.09.43-.32.63-.38h.74v-.1h.63v-.09h.32v-.1h.32v-.09c.14-.03.28-.06.42-.1v-.1h.32c.07-.1.14-.19.21-.29.14-.03.28-.06.42-.09v-.1c.21-.06.42-.13.63-.19v-.1h.32v-.1c.14-.03.28-.06.42-.1v-.1c.14-.03.28-.06.42-.1.04-.06.07-.13.1-.19h.21v-.09h.53v-.1c.39-.03.77-.06,1.16-.1v.1h.32v.1c.21.16.42.32.63.48v.19c.25.24-.03.95-.1,1.25M199.9,7.91v.19c.07.03.14.06.21.1v1.34h-.11v1.35h-.1v.38h-.11v1.54h-.1v.19h-.11v.29h-.1v.29c-.07.03-.14.06-.21.1v.19c-.07.03-.14.06-.21.1v.19c-.14.09-.28.19-.42.29v.1c-.18.11-.24,0-.42.19-.42.03-.84.06-1.26.09-.5-.12-1.5.05-2-.09v-.1h-.32v-.1l-2,.19c-.09.49-.1,1.19-.1,1.83v.87h-.11v1.73h.11c.14.45,0,2.18-.11,2.5v1.54h-.1v.67h-.11v1.73h-.1v.86c-.11.29-.21.58-.32.87-.07.03-.14.06-.21.1-.04.09-.07.19-.11.29h-.21v.1c-.22.16-.32.18-.74.19-.33-.35-.9-.44-1.06-.96-.35-.36.09-.89.11-1.25v-.38h-.11c.04-.45.07-.9.11-1.35h.1v-.96c.06-.18.27-.58.21-.87h-.1c-.03-.2.1-.19.1-.19.04-.58.07-1.15.11-1.73-.1-.55-.24-1.6-.11-2.31.05-.25.32-.47.21-.87h-.11l.11-.96h-.11c-.16-.54.1-1.47.21-1.83-.04-.32-.07-.64-.1-.96.13-.46-.04-1.36.1-1.83h.11v-.48h.1c-.03-.32-.07-.64-.1-.96.04-.22.07-.45.1-.67h-.1c-.14-.52-.04-1.12,0-1.54.26-.14.29-.3.63-.38.45-.39,1.38-.02,2.11-.19v-.1c.46.03.91.06,1.37.1.64-.16,1.71-.1,2.53-.1h.95v.1h.32v.1h.74v.1c.18.03.35.06.53.1v.1c.16.11.18.13.42.19M96.35,8.36h1.9v.1c.58.16,1-.19,1.37.21.11.1.41,1.56.21,1.9h-.11c0,.7.09,1.68-.1,2.21-.23.04-.42.19-.74.11v-.11h-.53v.11h-.42v.11h-.32v.11c-.26.07-.39-.08-.53-.11-.74-.04-1.48-.07-2.21-.11v-.11c-.31-.09-2.1.11-2.21.21-.81,0-1.58.06-2.11-.21-.16-.9,0-2.75,0-4,.13-.1.24-.27.32-.42.58,0,.95.09,1.37.21.62.18,2.61-.09,3.05-.21h.84v-.11c.19.03.21.11.21.11M165.35,8.78h-.1v.19h-.11v.19c-.07.03-.14.06-.21.1-.07.19-.14.38-.21.58h-.1v.29h-.11v.38c-.19.51-.38,1.28-.84,1.54v.09h-.1c-.07-.09-.14-.19-.21-.29h-.1v-.19h-.11v-.29h-.11c-.03-.32-.07-.64-.11-.96h-.1v-.19h-.1v-.19c-.07-.03-.14-.06-.21-.1v-.19h-.11c-.14-.34.19-1.43.32-1.54.04-.1.07-.19.1-.29.21-.03.42-.06.63-.1v-.1c.64-.18,1.48.07,2,.1.06.37.1.6-.1.96M197.38,10.89v1.25h-.11c-.03.1-.07.19-.1.29-.25.09-.62.3-1.05.19v-.09h-.74c-.27.07-1.59.23-2,.09v-.09h-.21v-.1c-.1-.03-.21-.06-.32-.1-.03-.32-.07-.64-.11-.96h.11v-.1h-.11v-1.44c.07-.03.14-.06.21-.1.03-.06.07-.13.11-.19.42-.03.84-.06,1.26-.1.95-.03,1.9-.06,2.84-.1v.1c.14.03.28.06.42.1,0,.57-.08.94-.21,1.35M135.33,10.22v.1c.32.08.8-.06.95-.1.26-.06.38.07.53.1h.42v.1h.21v.09c.1.06.21.13.32.19,0,.33.07.88-.11,1.06-.04.1-.07.19-.11.29-.36.06-1.07.21-1.58.09v-.09c-.22-.03-.21.09-.21.09h-.63c-.37,0-.96.07-1.16-.09-.11-.03-.21-.06-.32-.1-.1-.43-.37-1.02,0-1.34.04-.1.07-.19.11-.29.18-.03.35-.06.53-.1v-.1c.35.03.7.06,1.05.1M140.91,10.51c1.12,0,1.99-.08,2.95,0v.1h.11c.1.49.06.85,0,1.34-.11.03-.21.06-.32.1v.09c-1.05.03-2.11.06-3.16.1,0-.95.07-1.14.42-1.73M155.03,11.66c.14-.1.28-.19.42-.29v-.19c.1-.06.21-.13.32-.19v-.19h.1c.11-.13.21-.26.32-.38.49,0,2.08-.1,2.32.09.1.03.21.06.32.1-.02.44-.19.57-.32.87v.38h-.11c-.04.1-.07.19-.1.29-.77-.03-1.55-.06-2.32-.09v-.1c-.32.03-.63.06-.95.1v-.38ZM107.94,12.94v.1c.36.07.51-.28.84,0,.11.03.21.07.32.1,0,.55-.02.66-.21.98-.21.06-.09-.01-.21.1h-1.26v-.1c-.37-.27-.04-.17-.21-.39h-.11c0-.66.13-.46.42-.79h.42ZM113.41,13.92c-.03.1-.07.2-.1.3-.32.06-.95.26-1.16.1-.11-.03-.21-.07-.32-.1,0-.54.05-.86.21-1.18.5-.09.87-.09,1.37,0,.06.25.22.67,0,.89M98.45,17.21v.1h-1.26v.11c-.35-.04-.7-.07-1.05-.11v.11c-.21.03-.42.07-.63.1v.11c-.23.06-.32-.11-.32-.11h-1.79c-.55,0-2.47.13-2.74-.1h-.21c-.46-.28-.04-1.67.11-2,.78-.31,2-.11,3.16-.11.91-.03,1.83-.07,2.74-.1v.1c.42.04.84.07,1.26.11.15-.04.63-.2.95-.11.28.08.55.19.95.21,0,.59-.06,1.12-.11,1.58-.35.04-.7.07-1.05.11M135.85,14.16c.37.09.9.19,1.37.19.04.1.07.19.1.29h.11c-.04.32-.07.64-.11.96h-.1c-.04.26-.07.51-.11.77h-.11c-.25.27-.85.37-1.37.38h-.63v.1c-.39.03-.77.06-1.16.1v-.1c-.25-.06-.23-.1-.42-.19-.12-.6-.11-1.47-.11-2.21.13-.09.24-.25.32-.38.74.03,1.48.06,2.21.1M152.08,17.33c.07-.03.14-.06.21-.1.03-.22.07-.45.11-.67h.1c.04-.13.07-.26.11-.38.07-.03.14-.06.21-.1v-.19l.32-.19v-.19h.11v-.19h.1v-.29h.11v-.29h.1v-.19s.15-.08.21-.19c.23-.05.3-.06.42-.19.33,0,.54.03.74.09-.03.38-.12.55-.32.77-.07.03-.14.06-.21.1v.19c-.07.03-.14.06-.21.1v.19l-.32.19v.19c-.07.03-.14.06-.21.1-.03.13-.07.26-.11.38h-.1v1.35s-.17.12-.21.19c-.48.08-.79.08-1.26,0,.01-.27,0-.5.1-.67M172.3,16.18c.34-.06.69-.32,1.16-.19v.1h.32v.1h.32v.1h.74v.1l1.9-.19c.21-.26.42-.51.63-.77h.21c.04-.06.07-.13.11-.19h.21c.07-.1.14-.19.21-.29h.21v-.1c.11-.03.21-.06.32-.09l.11-.19h.32c.43-.16.63-.28,1.26-.29.12.13.19.09.32.19l.11.19c.1.03.21.06.32.1v.19h.11c.05.08.04.9.11,1.06.29.11.83.32,1.37.19v-.1c.28.03.56.06.84.1v-.1h1.26c.32-.03.63-.06.95-.1.28.16.56.32.84.48v.19h.11c.1.12.08.19.21.29.03.87.18,1.69-.1,2.5v.38h-.11v.67h-.11c.04.74.07,1.47.11,2.21l-.11.58v2.21h-.11v.48h.11c-.03.32-.07.64-.11.96l-.74.58v.19l-.21.19h-.21c-.04.06-.07.13-.11.19-.18.03-.35.06-.53.1v.09c-.35.1-.85-.07-1.05-.09-.39.03-.77.06-1.16.09v-.09h-.42v.09h-1.79v.1h-2.63v-.1h-2.84v-.09h-.32v-.1h-.63v-.1h-.63v-.1c-.21-.06-.42-.13-.63-.19-.07-.1-.14-.19-.21-.29h-.1c-.07-.19-.14-.38-.21-.58h-.1c-.04-.26-.07-.51-.11-.77,0,0,.15-.09.11-.29h-.11v-.87h.11v-.67h.1v-.48s.13-.03.11-.19h-.11v-.77h.11v-.38h-.11v-.67h.11v-1.15h-.11v-.48h-.1c-.12-.38.15-.81.1-1.06h-.1c-.09-.36-.11-1.42,0-1.73h.1c.03-.22.07-.45.11-.67h.1c.04-.16.07-.32.1-.48M143.02,14.45v.1c.45.02.36.06.63.19-.04.51-.07,1.02-.1,1.54h-.11v.19s-.15.09-.21.19c-.36.07-1.94.23-2.11.1-.5,0-.67-.06-.95-.19-.14-.69-.07-1.15,0-1.83.11-.03.21-.06.32-.1v-.1c.63-.21,1.76.26,2.21-.1h.32ZM108.57,16.38c.11.18.23.29.42.39,0,.43-.07.69-.32.89-.24.23-.77.21-1.26.2-.14-.15-.29-.23-.42-.39h-.1v-.3c-.17-.43,0-.45.21-.79h1.48ZM112.99,17.47c-.43,0-.88,0-1.16-.1v-.59h.11v-.1c.21-.03.42-.07.63-.1v.1c.3,0,.45.03.63.1v.59c-.21.06-.09-.01-.21.1M96.66,19.74c.49-.13,1.37.37,1.79,0,.59,0,.7.03,1.05.21-.04,1.19-.07,2.39-.1,3.58,0,.52.03,1.31-.21,1.58-.03.11-.07.21-.1.32-1.05.04-2.11.07-3.16.11-.56-.04-1.12-.07-1.69-.11v.11h-.84c-.54,0-2.04.24-2.32,0-.38,0-.71-.02-.95-.11-.13-.72.02-1.75,0-2.74-.04-.7-.07-1.4-.1-2.11h.1v-.53s.07,0,.11-.21c2.05-.36,4.49.41,6.43-.11M174.41,20.11v-.96h-.11c0-.27.04-.41.11-.58.35-.03.7-.06,1.05-.1.03,0,.04.12.21.1.2-.03.63-.26.95-.19v.1c.74.03,1.47.06,2.21.1v-.1c.77-.03,1.54-.06,2.32-.1v.1c.91-.03,1.83-.06,2.74-.1.1.12.27.22.42.29-.04.45-.07.9-.1,1.35h-.11c-.07.19-.14.38-.21.58-.97.16-2.43,0-3.69,0h-.95c-.44.12-1.49.38-2.21.19v-.09h-1.16c-.46-.13-.91-.26-1.37-.39-.03-.18-.1-.19-.1-.19M176.73,23v.1h.84v-.1c.35.03.7.06,1.05.1v-.1c.39-.03.77-.06,1.16-.1.57,0,1.17.03,1.58.1.37.06.83-.08,1.05.1h1.37s.14.16.21.19c0,.37-.04,1.56-.21,1.73v.67c-.07.03-.14.06-.21.1-.03.06-.07.13-.1.19-.69.36-2.06-.26-2.95,0v.1h-.32v.1h-1.58v-.1h-1.68v-.1h-.95v.1c-.21.04-.32-.1-.32-.1-.24-.04-.32.1-.32.1-.28.05-.65-.12-.84-.19-.1-.53.02-1.42,0-2.21,0-.19-.11-.33-.1-.38h.1v-.29s.16-.11.21-.19l2,.19Z"/></g></svg>