<?xml version="1.0" encoding="UTF-8"?><svg id="_レイヤー_2" xmlns="http://www.w3.org/2000/svg" viewBox="0 0 232.54 232.54"><defs><style>.cls-1{fill:#fff;}</style></defs><g id="_レイヤー_1-2"><path class="cls-1" d="M104.67,18.57c2.53,3.93,6.16,3.65,8.06-.62l6.6-14.83c1.9-4.27,4.63-4.13,6.06.33l4.97,15.45c1.43,4.45,5.01,5.12,7.95,1.49l10.21-12.62c2.94-3.64,5.54-2.79,5.77,1.88l.8,16.21c.23,4.67,3.51,6.24,7.3,3.49l13.13-9.55c3.78-2.75,6.07-1.26,5.08,3.31l-3.43,15.87c-.99,4.57,1.78,6.94,6.14,5.26l15.15-5.82c4.37-1.68,6.19.35,4.05,4.51l-7.42,14.44c-2.14,4.16-.08,7.16,4.57,6.67l16.14-1.7c4.65-.49,5.89,1.94,2.75,5.41l-10.9,12.03c-3.14,3.47-1.93,6.9,2.69,7.63l16.03,2.53c4.62.73,5.18,3.4,1.25,5.94l-13.64,8.8c-3.93,2.53-3.65,6.16.62,8.06l14.83,6.6c4.27,1.9,4.13,4.63-.33,6.06l-15.45,4.97c-4.45,1.43-5.12,5.01-1.49,7.95l12.62,10.21c3.64,2.94,2.79,5.54-1.88,5.77l-16.21.8c-4.67.23-6.24,3.51-3.49,7.3l9.55,13.13c2.75,3.78,1.26,6.07-3.31,5.08l-15.87-3.43c-4.57-.99-6.94,1.78-5.26,6.14l5.82,15.15c1.68,4.37-.35,6.19-4.51,4.05l-14.44-7.42c-4.16-2.14-7.16-.08-6.67,4.57l1.7,16.14c.49,4.65-1.94,5.89-5.41,2.75l-12.03-10.9c-3.47-3.14-6.9-1.93-7.63,2.69l-2.53,16.03c-.73,4.62-3.4,5.18-5.94,1.25l-8.8-13.64c-2.53-3.93-6.16-3.65-8.06.62l-6.6,14.83c-1.9,4.27-4.63,4.13-6.06-.33l-4.97-15.45c-1.43-4.45-5.01-5.12-7.95-1.49l-10.21,12.62c-2.94,3.64-5.54,2.79-5.77-1.88l-.8-16.21c-.23-4.67-3.51-6.24-7.3-3.49l-13.13,9.55c-3.78,2.75-6.07,1.26-5.08-3.31l3.43-15.87c.99-4.57-1.78-6.94-6.14-5.26l-15.15,5.82c-4.37,1.68-6.19-.35-4.05-4.51l7.42-14.44c2.14-4.16.08-7.16-4.57-6.67l-16.14,1.7c-4.65.49-5.89-1.94-2.75-5.41l10.9-12.03c3.14-3.47,1.93-6.9-2.69-7.63l-16.03-2.53c-4.62-.73-5.18-3.4-1.25-5.94l13.64-8.8c3.93-2.53,3.65-6.16-.62-8.06l-14.83-6.6c-4.27-1.9-4.13-4.63.33-6.06l15.45-4.97c4.45-1.43,5.12-5.01,1.49-7.95l-12.62-10.21c-3.64-2.94-2.79-5.54,1.88-5.77l16.21-.8c4.67-.23,6.24-3.51,3.49-7.3l-9.55-13.13c-2.75-3.78-1.26-6.07,3.31-5.08l15.87,3.43c4.57.99,6.94-1.78,5.26-6.14l-5.82-15.15c-1.68-4.37.35-6.19,4.51-4.05l14.44,7.42c4.16,2.14,7.16.08,6.67-4.57l-1.7-16.14c-.49-4.65,1.94-5.89,5.41-2.75l12.03,10.9c3.47,3.14,6.9,1.93,7.63-2.69l2.53-16.03c.73-4.62,3.4-5.18,5.94-1.25l8.8,13.64Z"/></g></svg>