<?xml version="1.0" encoding="UTF-8"?>
<svg id="_レイヤー_2" xmlns="http://www.w3.org/2000/svg" version="1.1" viewBox="0 0 768.3 909.1">
  <!-- Generator: Adobe Illustrator 29.0.0, SVG Export Plug-In . SVG Version: 2.1.0 Build 186)  -->
  <defs>
    <style>
      .st0, .st1, .st2, .st3 {
        fill: #333;
      }

      .st0, .st2 {
        stroke: #fff;
      }

      .st4, .st5 {
        fill: none;
        stroke-width: .8px;
      }

      .st4, .st6 {
        stroke: #ccc;
        stroke-miterlimit: 10;
      }

      .st1 {
        stroke-width: .2px;
      }

      .st1, .st5 {
        stroke: #333;
      }

      .st6 {
        fill: #ccc;
        stroke-width: 2px;
      }

      .st2 {
        stroke-width: 1.2px;
      }
    </style>
  </defs>
  <path class="st6" d="M391.7,664.7c-7.2-.4-9.1-2.5-14.4-8.3-5.3-5.8,1.7-12.3-5.2-12.7-6.9-.4-10.7-4.5-15.2-9.4-2.3-2.5-4.5-3.9-6-5.9l-1.9-8.7,2.1-9.3-7.1-4.9v-4.9l-7.1-7.5-4.4-5.1,2.2-6-2.7-3.9h-17.7l-9.3-6.7-5.8,4.8c-.4.2-1.1.9-2.4,2h0c-4.5,3.8-12,5.9-14.5,3.3-2.5-2.7-3.1-6.4-2.6-13.1l-5.2-1.6-.7,7.4-4.4,5.9-5.9,2.9-7.4-.7-5.2-5.2-2.2-6.6-5.2-.8-5.9.8-3,3-1.5,6.6,1.5,8.1,5.2,7.4,3,6.7,2.2,9.6-.7,6.6-4.8,15.1-.3,8.5,5.9,5.2,8.9,5.9,4.6,5.9,5.7,19.1-1.4,10.4-3.1,8.9-8.1,4.5-5.9-1.5-8.9.8-1.5,8.8,7.4,8.9,5.1,16.2,9.6.8,1.5-2.9,28.8,4.4,4.4,11.8h15.5l7.4-6.6v-8.1l-4.4-8.1-7.4-6.7-4.5-11-1.4-7.4,4.4-21.5,4.4-8.8,3.9-9.8,4.2-7.9h5.9l10.3,5.1,2.2,5.9-2.2,5.9-5.2,7.4-7.4-3.7-7.4,5.2,2.2,9.6,8.1,7.4,6.6,10.4,9.6,11.1-17,35.5-5.9,7.4v15.5l5.2-2.2,5.9-5.2,19.9-5.2,27.3-24.3,8.9-3.7,4.4-6.6-1.5-5.9-7.4-3-5.2-.7-2.2-5.2,3-4.5,11.8-11.1,7.7-.3c.5-7.1,4.5-14,5-20.4.4-6.4,1.7-12.4-5.5-12.8Z"/>
  <circle class="st0" cx="264.9" cy="595.8" r="3.2"/>
  <line class="st5" x1="271.7" y1="567.7" x2="271.7" y2="578.9"/>
  <g>
    <path class="st4" d="M508.5,442l-2.9-2.2-1.5-6.7,5.9-1.5,5.9-1.5,3-4.4-3.7-2.2-6.6-.7-4.4-1.5-4.4-5.9-3.7-3.6-.7-5.2,3.7-5.9.7-5.2-6.6-1.5-14-1.5-8.9-2.2h-17l-3.7-3.7-5.2-8.1,4.4-2.2h7.4l8.1-5.2,6.6-4.4,5.2-6.6,1.5-22.2-4.4-6.6-3.7-5.9-5.9-4.4h-7.4l-7.4-2.2-7.4,3.7-7.4,3.7-3,8.1-6.6,4.4h-8.1l-13.3-1.5-8.1-4.4-7.4-3.7-9.6-5.9-8.9-6.6-1.5-11.8-5.2-3,.8-5.9v-5.9l2.9-7.4,3-4.4,2.2-4.5-7.4-1.5-3.7,4.5-5.2,5.1-7.4,2.2-3-3.6-7.4-2.2-5.9-2.3-14.8-.7-2.9,6.6-3,3.7-7.4,2.2h-7.4l-7.4,3-5.2,5.9-.7,8.8-2.2,5.9-4.4,5.2-5.9,3.7-3,.7-.7,4.4h5.2l6.6-1.5-.7,6.6-4.4,2.9-6.6,1.5h-5.9l-5.2-5.2-3-4.4-4.4-2.2h-4.4l-1.5,5.9-5.2,4.4-7.4,2.9v3.7l4.4.8,3.7,4.4-3.7,3-5.2.7-4.4,1.5v3.7l-1.5,3-4.4,1.4h-3.7l-3.7-7.3v-5.9l-4.5-1.5h-8.1l-3.7,2.2-1.5,3.7-1.5,3.7-3.7,2.9h-7.4l-3,3.7-.7,5.9,5.1.7,5.9-1.5,7.4,3.7.8,5.2-3,4.4-5.2,2.2-2.2-5.9-8.1-.8-5.9-1.5-3.7-2.9-8.9,2.2-2.2,5.9-3.7,11.1,2.2,8.8,8.9,7.4,4.4,8.9-2.2,11.8-7.4,4.4-2.9,5.9,5.2,6.6,2.9,6.6,3.7,10.4,8.1,11.1,9.6,3.7,4.4,6.7.7,5.9-4.4,5.9-5.9,7.4-3,5.9,3,3,6.7-3,14-9.6,9.6-12.5,10.3-5.2,3.7-6.6,6.7-.7,5.2.7,5.9,2.2.7,7.4-1.5,6.6-5.2,2.2v5.9l1.5,5.9,4.5,3,5.9-3.7,7.4-4.4,5.9-2.2,5.9-1.5,3-8.9,4.4-8.8-2.9-7.4-7.4-4.4-3-5.9h-7.4l-7.4,4.4-8.9.7-4.4-2.2,3.7-5.9,4.4-4.4,4.4-3.6.7-6-2.2-5.9-2.2-7.3-5.2-7.4,3-4.5,4.4-5.1,5.2-.8,5.9,1.5,9.6,2.9,8.1,5.2,5.2,5.2.8,8.1-.8,9.6v7.4l3.7,2.2,8.8,6.6,8.1,4.4,2.9,6.7-1.5,17.7-6.6,2.2-5.9,3.7-4.4,1.5-4.4,3-.8,7.4,2.2,4.4,6.6,2.2,1.5-4.4-.7-3.7,9.6-1.5,7.4-.7-5.2,5.9v19.2l-2.2,8.9-9.6,17.7-8.8,14.9-5.2-1.6-.7,7.4-4.4,5.9-5.9,2.9-7.4-.7-5.2-5.2-2.2-6.6-5.2-.8-5.9.8-3,3-1.5,6.6,1.5,8.1,5.2,7.4,3,6.7,1.5,5.2.7,4.4-.7,6.6-2.2,6.6-3,9.6v7.4l5.9,5.2,8.9,5.9,5.2,6.6,2.9,11,2.2,7.4-1.5,11.1-3,8.1-8.1,4.5-5.9-1.5-8.9.8-1.5,8.8,7.4,8.9,3,9.6,2.2,6.6,9.6.8,1.5-2.9,5.9.7,7.4,1.5,8.9.8,6.6,1.5,2.2,6.7,2.2,5.2h15.5l7.4-6.6v-8.1l-4.4-8.1-7.4-6.7-4.4-10.3-1.5-8.1,2.2-10.4,2.2-11.1,4.4-8.8,4.4-11,3.7-6.6h5.9l10.3,5.1,2.2,5.9-2.2,5.9-5.2,7.4-7.4-3.7-7.4,5.2,2.2,9.6,8.1,7.4,6.6,10.4,9.6,11.1-4.4,9.6-6.6,14-5.9,11.9-5.9,7.4v15.5l5.2-2.2,5.9-5.2,11.1-2.2,8.9-2.9,10.3-8.8,11.1-10.4,5.9-5.1,8.9-3.7,4.4-6.6-1.5-5.9-7.4-3-5.2-.7-2.2-5.2,3-4.5,6.6-6.6,5.2-4.4h8.9l4.4,5.2,7.4,5.9s5.2.8,7.4,1.5c2.2.7,5.2,5.9,5.2,5.9h3.7l2.9-8.2,1.5-12.6.7-8.1,3.7-9.6,5.9-14.7,4.4-8.1,3-7.4.7-8.1-5.9-4.4-4.4-6.6,1.5-6.6,3.7-11.1,4.4-12.5,4.5-13.3,4.4-15.5,5.9-8.8,5.2-14.1,7.4-8.9,3.7-8.1,3.7-7.4-3-2.9-2.2-4.4.7-5.9,5.2-6.7,3.7-6.6,5.2-3,5.2-3.7,7.4-2.2v-8.8l5.9-3.7,11.1-1.5.8-6.7-4.4-4.4,4.4-4.4,3.7-4.4.7-8.1-4.4-2.2-9.6-.7Z"/>
    <polyline class="st4" points="768.1 11.1 756.6 12.1 748.7 12.1 743.8 15.1 732 19 723.1 17 715.3 15.1 711.3 9.1 715.3 5.2 715.3 1.2 705.4 .3 692.6 1.2 679.8 2.2 670 4.2 664.1 8.2 653.3 9.1 643.4 11.1 631.6 19 620.8 21.9 611.9 26.8 612.9 29.8 614.9 41.6 612.9 49.5 607 52.5 597.1 58.4 587.3 63.3 581.4 68.2 576.5 74.1 571.6 80 567.6 87.9 556.8 89.9 551.9 93.8 541 100.7 532.2 109.5 526.3 118.4 518.4 124.3 509.5 131.2 500.7 135.1 488.9 146.9 476 153.8 462.3 154.8 455.4 163.7 444.5 173.5 442.6 179.5 437.7 189.3 427.8 196.2 416 201.1 404.2 201.1 394.4 198.1 385.5 195.2 377.6 194.2 371.7 195.2 368.8 199.1 369.7 204 364.8 205 357.9 204 354 204 350.1 208 346.1 213.9 349.1 218.8 353 228.6 353 235.5 349.1 238.5 345.1 243.4 345.1 250.3 352 257.2 348.1 265.1 348.1 275.9 355 275.9 361.9 268 368.8 261.2 376.6 260.1 384.5 265.1 393.4 273.9 397.3 277.9 409.1 277.9 416 276.9 419 271 428.8 267 433.7 266.1 438.6 266.1 448.5 264.1 455.4 267 458.3 263.1 467.2 261.2 474.1 257.2 481 260.1 483.9 263.1 483.9 270 484.9 273 490.8 272 496.7 268 500.7 270 507.6 273.9 515.4 279.9 521.3 280.8 530.2 285.8 534.1 289.7 539.1 298.5 543 292.7 542 283.8 538.1 278.9 542 274.9 552.8 271 551.9 261.2 554.8 250.3 551.9 235.5 553.8 223.7 566.6 216.8 570.6 208 579.4 206 588.3 206 593.2 214.9 598.1 225.7 608 232.6 619.8 231.6 628.7 225.7 635.5 221.8 646.4 216.8 655.2 211.9 668 211.9 677.9 211.9 682.8 207 689.7 205 697.6 205 702.5 200.1 709.4 200.1 712.3 205 719.2 203.1 732 196.2 740.9 193.2 748.8 191.2 760.6 188.3 766.5 183.4 768.1 184.4"/>
    <polyline class="st4" points="768.1 227 764.7 224.3 758.8 222 752.9 224.3 757.4 228.6 758.8 235.3 764 244.2 763.3 253 758.8 259.7 753.7 266.3 742.6 270.8 728.6 271.5 713.8 270 707.2 272.2 699 277.4 690.2 278.9 685 276.7 681.3 268.5 679.1 259.7 672.4 253 665.1 249.4 657.7 249.4 648.8 253.8 643.7 261.2 637 265.6 632.6 270 627.4 277.4 623.7 284 623 313.5 617.8 317.3 609.7 324.7 597.1 329.8 586.1 332 578.7 342.3 566.9 348.3 558.7 355.6 548.4 359.4 539.6 364.5 523.3 374.9 521.8 378.5 532.2 377.1 538.8 371.9 546.9 368.9 555.8 363 564.6 360.1 575.7 360.8 579.4 363 579.4 367.5 576.5 374.1 576.5 381.5 576.5 388.1 580.2 387.4 583.1 385.2 586.1 383.7 589.8 383.7 594.2 384.5 592 386.6 591.2 388.9 593.4 391.8 597.1 395.5 597.1 399.9 594.2 402.1 590.5 406.6 586.1 408.8 586.1 411.8 589 413.2 590.5 417.7 588.3 422.8 586.8 426.5 587.5 429.5 591.2 432.4 593.4 436.1 590.5 441.3 588.3 445.7 588.3 451.6 592 450.9 597.9 447.9 605.3 447.9 607.5 450.9 610.4 453.1 615.6 451.6 620 447.9 625.9 452.4 625.2 457.5 619.3 459.8 612.6 465.7 611.2 471.6 613.4 476.7 620.8 476.7 628.9 476.7 636.3 476.7 643.7 473.8 654 474.5 659.9 477.4 661.4 481.2 667.3 484.8 671 483.4 671.7 478.9 668 472.3 664.3 466.4 665.1 461.2 668.8 456.1 670.2 449.4 671.7 444.3 673.2 438.3 673.9 434.6 679.8 431 685 426.5 691.6 421.3 696.1 416.2 699.8 410.3 703.5 402.9 707.9 396.2 706.4 378.5 711.6 375.6 721.2 373.4 726.3 373.4 732.2 368.2 735.2 361.5 744.1 356.4 752.9 351.9 763.3 348.3 768.1 346.7"/>
    <polygon class="st4" points="572 281.1 565.4 280.4 559.5 275.9 552.8 275.9 548.4 279.6 546.9 285.5 550.6 294.4 557.3 290.7 563.2 292.1 571.3 292.1 575 285.5 584.6 282.5 592 277.4 583.1 276.7 572 281.1"/>
    <polygon class="st4" points="551.4 304 555.8 306.2 556.5 298.8 547.7 298.8 551.4 304"/>
    <polygon class="st4" points="527.8 302.5 532.2 300.3 532.2 295.1 529.2 294.4 527.8 302.5"/>
    <polygon class="st4" points="515.9 302.5 513.7 301.7 513 306.9 516.7 306.2 515.9 302.5"/>
    <polygon class="st4" points="606 274.4 610.4 278.2 614.1 275.9 616.3 266.3 610.4 266.3 606 274.4"/>
    <polygon class="st4" points="596.4 236 589 229.4 582.4 224.3 574.3 224.3 575 233.1 576.5 239.7 580.9 242.7 586.8 251.6 597.1 253 600.1 248.6 596.4 243.4 596.4 236"/>
    <polygon class="st4" points="630.4 236.8 625.2 234.6 620 237.5 623 242.7 636.3 244.2 645.1 240.5 647.3 233.1 637 236 630.4 236.8"/>
    <polygon class="st4" points="657 219.8 651.8 222.8 646.6 225.7 645.1 230.1 652.5 230.1 657.7 225.7 659.9 220.5 657 219.8"/>
    <path class="st4" d="M676.1,225.7l-5.9-5.9-4.4-.8-.7,6.6v4.4l-5.2,5.2h6.7l6.6.7-1.5,3-2.2,4.4,1.5,4.4,5.1-6.6,7.4-4.4,1.5-7.4-2.9-1.5s-2.2-1.5-5.9-2.2Z"/>
    <polygon class="st4" points="697.6 213.2 690.9 209.5 685 213.9 680.6 217.6 681.3 222 687.9 222 689.4 218.3 693.9 222 694.6 226.4 699.8 227.2 701.2 222.8 699 216.8 697.6 213.2"/>
    <polygon class="st4" points="182.9 314.3 189.6 313.5 192.5 309.1 188.1 305.4 185.2 298.1 178.5 292.9 171.1 291.4 171.1 295.8 170.4 301.7 167.5 304.7 165.2 308.4 168.9 314.3 182.9 314.3"/>
    <polygon class="st4" points="276 538.8 278.2 529.9 283.4 524 279.7 518.8 276 519.6 270.8 519.6 262.7 517.3 257.5 521.8 249.4 526.2 247.2 535.1 249.4 541 254.6 539.5 261.9 538.8 267.1 545.4 273.8 544.7 276 538.8"/>
    <polygon class="st4" points="264.2 554.3 269.3 555 270.1 549.1 265.6 548.4 264.2 554.3"/>
    <polygon class="st4" points="248.7 563.1 251.6 561.6 255.3 558.7 257.5 555 248.7 554.3 246.4 559.4 248.7 563.1"/>
    <polygon class="st4" points="239.8 556.5 244.2 552 246.4 545.4 245 542.4 243.5 515.9 233.9 513.6 222.8 521 218.4 526.2 216.9 537.3 215.4 549.1 212.5 557.9 212.5 567.6 218.4 572.7 222.8 572.7 226.5 569 233.9 560.9 239.8 556.5"/>
    <polygon class="st4" points="151.9 360.1 157.1 355.6 153.4 350.5 145.3 354.9 140.9 360.8 151.9 360.1"/>
    <polygon class="st4" points="128.3 378.5 135 374.9 135.7 366.7 127.6 369.7 128.3 378.5"/>
    <polygon class="st4" points="144.6 370.4 137.9 377.1 132.7 380 129 387.4 123.1 396.2 118.7 404.4 121.7 407.3 128.3 405.8 135 401.5 142.3 394.8 144.6 389.6 150.5 382.2 150.5 376.3 154.9 368.2 144.6 370.4"/>
    <polygon class="st4" points="112.1 205.8 116.5 208 118 211 119.5 216.8 123.1 217.6 126.1 213.9 126.1 205 124.6 197.7 129 190.3 134.2 184.4 137.9 176.2 140.1 166.6 141.6 155.6 136.4 149.7 128.3 149.7 120.9 154.1 116.5 157 112.8 159.2 109.8 168.9 109.8 172.5 114.3 173.3 115.7 176.2 115 182.9 112.1 185.8 108.4 192.5 103.9 205.8 108.4 205.8 112.1 205.8"/>
    <polygon class="st4" points="113.5 219.1 106.2 215.4 99.5 214.6 95.8 232.3 92.9 242 95.1 250.1 101 253.8 106.2 252.3 110.6 245.6 115 236 118 231.6 118.7 224.3 113.5 219.1"/>
    <polygon class="st4" points="92.9 386.6 88.4 382.2 83.3 385.9 80.3 391.8 87 391.8 92.9 386.6"/>
    <polygon class="st4" points="84.7 402.9 84.7 399.2 78.9 398.5 73.7 398.5 70.7 404.4 78.9 404.4 84.7 402.9"/>
    <polygon class="st4" points="89.9 432.4 87 429.5 87.7 425.8 87.7 416.2 84.7 411.1 81.8 411.8 81.8 422.1 81.1 431.7 78.9 436.9 74.4 439.8 67.8 444.3 63.3 450.2 59.7 454.6 55.2 456.8 46.4 464.2 44.9 469.4 50.8 476 55.2 472.3 61.1 466.4 69.2 458.3 69.2 453.1 74.4 451.6 75.9 456.1 76.6 461.2 81.1 464.2 84.7 463.4 84.7 457.5 84.7 451.6 89.2 446.5 92.9 443.5 98 438.3 96.6 435.4 89.9 432.4"/>
    <path class="st4" d="M36,472.3l-5.9,5.1-5.9.8-8.1-2.9-4.4,2.9v7.4l-2.2,6.6,2.2,2.9,3.7,4.5h-6.6l-3.7.7.7,5.2h5.9l4.4,3.7h10.3s6.6-5.2,7.4-7.4c.7-2.2,3-4.4,3-4.4l8.8-5.9.8-6.7.7-7.4-3-5.1h-8.1Z"/>
    <polygon class="st4" points="206.6 637.7 205.8 629.6 201.4 626.6 193.3 625.1 193.3 632.5 198.5 636.9 202.9 639.2 206.6 637.7"/>
    <polygon class="st4" points="177 649.5 171.1 655.4 169.7 661.3 166 664.3 168.9 672.4 173.3 673.8 177.8 670.9 178.5 662 182.9 656.9 185.2 651.7 183.7 647.3 177 649.5"/>
    <polygon class="st4" points="349.1 814.1 345.4 815.6 343.2 821.5 345.4 823 352.8 819.3 349.1 814.1"/>
    <polygon class="st4" points="372.7 802.3 369 806.8 369 813.4 360.1 822.3 356.4 827.4 354.3 834.1 355 843.7 355 852.5 350.6 858.4 346.8 862.9 341 867.3 342.4 875.4 344.6 882.1 352.8 886.5 358.7 883.5 363.1 878.4 363.1 871 365.3 859.9 371.2 845.9 375.6 838.5 378.6 828.9 375.6 803.8 372.7 802.3"/>
    <polygon class="st4" points="258.3 806.8 256.8 812.7 261.2 812.7 264.9 811.2 263.4 806.8 258.3 806.8"/>
    <polygon class="st4" points="200.7 801.6 200.7 806.8 208 805.3 214.7 803.1 216.9 799.4 210.3 799.4 200.7 801.6"/>
    <polygon class="st4" points="244.2 860.7 239.8 865.1 247.2 871.7 252.3 872.4 256 868 249.4 860.7 244.2 860.7"/>
    <polygon class="st4" points="306.7 874.2 300.1 871.2 293.4 869 287.5 869.8 280.1 874.2 275 879.4 273.5 886.7 274.2 890.5 275.7 894.9 277.2 899.3 279.4 902.2 283.8 907.4 288.3 908.1 294.2 908.9 296.4 908.9 299.4 908.1 301.6 908.1 307.5 905.2 313.4 897.9 315.6 891.9 315.6 884.5 314.1 878.6 306.7 874.2"/>
  </g>
  <g>
    <g>
      <path class="st1" d="M282.7,625.1c0,0-.1,0-.2-.1s-.2,0-.3-.1c-.1,0-.2,0-.3,0,.6-1,1-2.5,1-4.3v-3.3h3.5v-1h.9v1h3.7v.8h-2.8v.9h2.2v2.4h-6.8c0,.8-.1,1.6-.3,2.2-.2.6-.4,1.2-.7,1.7ZM283.8,625.1l-.2-.8c.1,0,.3,0,.5,0,.2,0,.4,0,.6-.1v-2.7h.8v.8h1.6v.8h-1.6v1.1c.3,0,.6-.1.9-.2.3,0,.5-.1.7-.2v.8c-.2,0-.4.1-.7.2s-.6.1-.9.2c-.3,0-.6.1-.9.2-.3,0-.6.1-.8.1ZM283.7,618.8h1.5v-.9h-1.5v.9ZM283.7,620.4h1.5v-.9h-1.5v.9ZM286.1,618.8h1.3v-.9h-1.3v.9ZM286.1,620.4h1.3v-.9h-1.3v.9ZM288.4,625c-.3,0-.6,0-.7-.2s-.2-.3-.2-.5v-2.9h.8v1.1c.3-.1.7-.3,1.1-.4.4-.2.7-.4,1-.5l.5.7c-.4.2-.8.4-1.3.6-.5.2-.9.4-1.4.5v.6c0,0,0,.2,0,.2,0,0,.1,0,.3,0h1.1c.2,0,.3,0,.4,0,0,0,.2-.2.2-.3,0-.2,0-.4.1-.7,0,0,.2.1.4.2.2,0,.3.1.4.1,0,.4-.1.8-.2,1-.1.2-.2.4-.4.4s-.4.1-.7.1h-1.6ZM288.3,620.4h1.4v-.9h-1.4v.9Z"/>
      <path class="st1" d="M293,625.2c0,0,0-.1,0-.2,0-.1,0-.2-.1-.3,0-.1,0-.2-.1-.3.6,0,1.2-.2,1.6-.4.4-.2.8-.5,1-1,.2-.4.4-1,.4-1.7h.9c0,.8-.1,1.5-.4,2-.3.5-.7.9-1.2,1.2s-1.2.5-1.9.6ZM293.7,621.1v-4.8h.9v4.8h-.9ZM295.9,620.8v-4.4h4.6v4.4h-4.6ZM296.8,618.2h2.8v-1h-2.8v1ZM296.8,620h2.8v-1h-2.8v1ZM298.4,625c-.4,0-.6,0-.7-.2-.1-.1-.2-.3-.2-.6v-2.9h.9v2.5c0,0,0,.2,0,.2,0,0,.2,0,.3,0h1.4c.2,0,.3,0,.4,0,.1,0,.2-.2.3-.4,0-.2.1-.4.1-.8.1,0,.2.1.4.2.2,0,.3.1.5.1,0,.5-.1.9-.3,1.1-.1.3-.3.4-.4.5-.2,0-.4.1-.7.1h-1.9Z"/>
      <path class="st1" d="M309.3,625.3c0-.1,0-.3,0-.5s0-.3-.1-.4h.7c.3,0,.4,0,.5-.1,0,0,.2-.2.2-.5,0-.2,0-.4,0-.6,0-.2,0-.4,0-.5h-4v1.3h1.3v-1h.9v1.7h-5.4v-1.7h.9v1h1.3v-1.3h-1.2v-5.7h2c0-.2.1-.3.2-.5,0-.2,0-.3.1-.4h1c0,.2,0,.4-.1.5,0,.2-.1.3-.1.4h2.8v3.2h-4.9v.5h6.6v.7h-6.6v.6h6.1c0,.3,0,.7,0,1.1,0,.4,0,.8-.2,1.1,0,.3-.1.5-.3.7-.1.2-.3.3-.5.3-.2,0-.5,0-.8,0h-.6ZM305.5,618.2h4v-.6h-4v.6ZM305.5,619.4h4v-.6h-4v.6Z"/>
      <path class="st1" d="M314.7,624.9c0,0,0-.1-.2-.2,0,0-.2-.2-.3-.3s-.2-.2-.2-.2c.3-.1.5-.3.8-.5.3-.2.6-.4.8-.6.3-.2.5-.4.6-.6l.7.5c-.2.2-.4.4-.7.7-.3.2-.5.5-.8.7-.3.2-.6.4-.8.5ZM317.8,625.2v-2.9h-3.6v-5.7h.9v4.9h7.6v.8h-4v2.9h-.9ZM316.2,621v-4.7h5.2v4.7h-5.2ZM317.1,617.7h3.4v-.7h-3.4v.7ZM317.1,619h3.4v-.7h-3.4v.7ZM317.1,620.3h3.4v-.7h-3.4v.7ZM321.7,624.9c-.3-.1-.5-.3-.8-.5-.3-.2-.6-.4-.8-.7-.3-.2-.5-.5-.7-.7l.7-.5c.2.2.4.4.6.6.3.2.5.4.8.6.3.2.6.4.8.5,0,0-.1.1-.2.2,0,0-.2.2-.3.3,0,0-.1.2-.2.2Z"/>
    </g>
    <g>
      <path class="st1" d="M274.2,628.9h.7v3.5l3.3-3.5h.9l-2.7,2.9,3,3.9h-.9l-2.6-3.4-1,1v2.3h-.7v-6.8Z"/>
      <path class="st1" d="M282.9,628.9h.3l2.9,6.8h-.8l-.8-2h-2.9l-.8,2h-.8l2.9-6.8ZM284.3,633.1l-1.2-2.8h0l-1.2,2.8h2.4Z"/>
      <path class="st1" d="M287.2,632.3c0-2,1.5-3.5,3.6-3.5s1.5.2,2,.5v.9c-.5-.5-1.2-.7-2-.7-1.5,0-2.8,1.1-2.8,2.8s1.2,2.8,2.8,2.8,1.1-.1,1.6-.3v-1.7h-1.7l.2-.7h2.2v2.8c-.6.3-1.4.6-2.3.6-2.1,0-3.6-1.6-3.6-3.5Z"/>
      <path class="st1" d="M294.7,632.3c0-2,1.5-3.5,3.4-3.5s3.4,1.5,3.4,3.5-1.5,3.5-3.4,3.5-3.4-1.5-3.4-3.5ZM298.1,635.1c1.3,0,2.6-1,2.6-2.8s-1.3-2.8-2.6-2.8-2.6,1-2.6,2.8,1.3,2.8,2.6,2.8Z"/>
      <path class="st1" d="M303,635.2l-.2-1c.6.6,1.5.9,2.2.9s1.3-.4,1.3-1.1-.6-1-1.4-1.4c-1-.5-1.8-.9-1.8-2s.8-1.7,2.1-1.7,1.1.1,1.5.4v.9c-.4-.5-1-.6-1.5-.6-.9,0-1.3.5-1.3,1s.8,1,1.5,1.4c1,.5,1.7.9,1.7,2s-.9,1.9-2.1,1.9-1.4-.2-2-.7Z"/>
      <path class="st1" d="M313.7,632.7h-3.9v3.1h-.7v-6.8h.7v3.1h3.9v-3.1h.7v6.8h-.7v-3.1Z"/>
      <path class="st1" d="M316.9,628.9h.7v6.8h-.7v-6.8Z"/>
      <path class="st1" d="M320,628.9h.3l2.8,3.7h0l2.8-3.7h.3v6.9h-.7v-5.2l-2.3,3.1h-.1l-2.4-3.1v5.2h-.7v-6.9Z"/>
      <path class="st1" d="M330.8,628.9h.3l2.9,6.8h-.8l-.8-2h-2.9l-.8,2h-.8l2.9-6.8ZM332.1,633.1l-1.2-2.8h0l-1.2,2.8h2.4Z"/>
    </g>
    <g>
      <path class="st1" d="M3.3,582.3h0c0-.2.1-.3.2-.4.6-1,1.3-2,1.9-3h0c-.6,1-1.3,2-1.9,3,0,0,0,.2-.1.2l-.3-.2s0,0,0,0h-.2c0-.2,0-.3,0-.3.1-.2.2-.4.3-.6h0c-.1.2-.2.4-.3.5,0,.1-.1.3-.2.4l-.2-.2c0-.1,0-.3,0-.5.3-.5.6-1.1.9-1.7,0,0-.1,0-.2,0-.3.5-.6,1-.9,1.5,0,0,0,0,0,.1h-.2c0-.1,0-.2,0-.2.3-.4.6-.9.8-1.3-.6.2-1.3.4-1.9.7,0,0,0,0-.1,0v-.3c0,0,0,0,0,0,.8-.3,1.6-.5,2.3-.8,0,0,0,0,0,0-.8.2-1.5.5-2.4.8-.2,0-.3.1-.5.2v-.2c0,0,.2-.2.3-.3,1-.3,1.9-.7,2.8-1,0,0,0,0,0-.1-.9.3-1.9.6-2.9,1,0,0-.1,0-.2,0v-.2s0-.2,0-.2c1.2-.4,2.2-.8,3.3-1.1h0c-1.1.2-2.2.6-3.4,1-.1,0-.2,0-.3.1v-.3s.1,0,.2-.1c1.3-.5,2.6-.9,3.8-1.3,3.8-6.3,8-13.4,10.7-19.1,0,0,0-.2.1-.3l.5.3c0,0-.1.2-.2.3-.7,1.4-1.4,2.8-2.2,4.3h0c.8-1.5,1.5-2.9,2.2-4.3,0,0,0-.1,0-.2l.6.3s0,0,0,0l.5.3s0,0,0,.1c-2.5,5.2-6.2,11.7-9.8,17.6,3.4-.9,6-1.2,8.2-1.2,3.5,0,5.7.9,7.3,3,0,0,0,.1.1.2h-.1s0,0-.1,0c-1.1-1.4-2.4-2.3-4.2-2.7h0c1.8.4,3.2,1.3,4.3,2.7,0,0,0,0,0,0l-.4.3c0,0,.1.2.2.2l-.3.2c0-.1-.4,0-.4-.2-1-1.3-2.5-1.9-4.2-2.2h-.2c1.7.4,3.1,1.1,4.1,2.4,0,0,.2.2.2.3h0c0,0-.1-.1-.2-.2-1.4-1.8-3.2-2.5-5.9-2.5s-5.4.5-9.4,1.7c-.7,1.1-1.3,2.1-2,3.1,0,.1-.1.2-.2.3ZM6.1,577h0c.4-.6.7-1.2,1.1-1.8h0c-.4.6-.7,1.2-1.1,1.8ZM6.1,577.8s0,0,0,0c.1,0,.3,0,.4-.1h0c-.1,0-.2,0-.4,0ZM6.4,577.3h0c.3,0,.6-.1.9-.2h0c-.3,0-.6.1-.9.2ZM6.5,576.9s0,0,0,0c.3-.5.6-1,1-1.6h0c-.3.5-.6,1.1-1,1.6ZM15.1,560.6c-.5.9-.9,1.8-1.4,2.7h0c.5-.9,1-1.8,1.4-2.7ZM18.7,576.9c-.4-.2-.9-.3-1.4-.4h0c.5.1,1,.2,1.4.4Z"/>
      <path class="st1" d="M24.5,577.4c0-2.2,2.6-5.8,4.8-8.4,0,0,.1-.2.2-.3l.5.4c0,0-.2.2-.2.3-.7.8-1.4,1.7-2,2.6h0c.6-.8,1.3-1.7,2-2.5,0,0,.1-.2.2-.3l.7.6c0,0-.1.2-.2.2-1.5,1.9-3.2,4.1-3.9,5.8h0c.7-1.7,2.4-3.9,3.9-5.8,0,0,0,0,0,0h.1c0,.1,0,.1,0,.2-2,2.4-4.2,5.5-4.2,7.2s.3,1,1.3,1c1.7,0,4-.9,6.8-2.3.1,0,.3-.1.4-.2v.2c0,0-.2.1-.3.2-.8.4-1.5.8-2.3,1.1h0c.7-.3,1.5-.6,2.2-1.1,0,0,.2-.1.2-.1l.2.5c0,0,.2-.1.3-.1l.2.4c0,0-.2,0-.3.1l.2.4c0,0-.2,0-.3.1-3.4,1.7-5.7,2.5-7.8,2.5s-2.9-1.1-2.9-2.6ZM30.4,578.6c-.4.1-.7.2-1,.3h0c.3,0,.7-.2,1-.3ZM31.5,567.2c0,0,.1,0,.2,0,.8-.5,1.6-.9,2.4-1.4h0c-.8.4-1.5.9-2.4,1.4,0,0,0,0-.1,0h0c0,0,0-.2,0-.2,1.5-.9,2.9-1.8,4.2-2.7h0c-1.3.9-2.7,1.8-4.2,2.6-.1,0-.2.1-.3.2l-.2-.3c.1,0,.2-.2.3-.3,1.6-.9,3.1-1.9,4.5-2.9h0c-1.4,1-2.9,1.9-4.5,2.8,0,0-.2.1-.2.1l-.2-.3c0,0,.2,0,.2-.1,2.1-1.2,4-2.3,5.6-3.7,0,0,0,0,.1,0h0s0,0-.1.1c-.7.6-1.3,1.1-2.1,1.6h0c.7-.5,1.4-1,2.1-1.6,0,0,.1-.1.2-.2l.3.3c0,0,0,.2-.2.2-1.6,1.4-3.5,2.6-5.5,3.8h0c2.1-1.1,3.9-2.3,5.6-3.7,0,0,.1-.2.2-.2l.5.6s0,0,0,0v.2c0,0,0,.1,0,.1-1.7,1.4-3.7,2.7-5.8,3.9,0,0-.1,0-.2.1l-.2-.4ZM35,577.1c0,0,.2,0,.2-.1,0,0-.2,0-.2.1-1.1.6-2.2,1-3.1,1.4h0c.9-.3,2-.8,3.1-1.4ZM37.6,563.5s0,0,0,0c0,0,0,0,0,0-1.3,1-2.6,1.9-4.1,2.8h0c1.5-.8,2.8-1.8,4.1-2.8Z"/>
      <path class="st1" d="M32.6,587.7s0,0,.1,0c2.4-1.5,4.3-2.7,5.8-3.9h0c-1.6,1.2-3.4,2.4-5.8,3.9,0,0,0,0,0,0v-.2c0,0-.2-.2-.1-.2,1.3-.8,2.4-1.7,3.4-2.4h0c-1,.6-2.1,1.4-3.5,2.2,0,0-.2.1-.3.2v-.2c0,0,0-.1.2-.2,3.7-2.2,6-3.9,8-5.9,0,0,0,0,.1-.1l.2.2s-.1,0-.1.1c-1.1,1.1-2.4,2.2-3.9,3.3h0c1.5-1,2.8-2.1,3.9-3.2,0,0,0,0,0,0l.3.3s0,0,0,0h0c0,0,0,0,0,0h0c0,0,0,0,0,0l.4.4s0,0,0,0c-.5.5-.9,1-1.5,1.4h0c.5-.4,1-.9,1.5-1.3s0,0,0,0h.1c0,.2,0,.2,0,.2-2.1,2.1-4.5,3.8-8.3,6.1,0,0,0,0,0,0l-.4-.6ZM33.9,584.7l-.4-.2c0,0,0-.1.1-.2.6-1.2,1.3-2.4,2-3.6h0c-.7,1.2-1.4,2.4-2,3.6,0,0,0,.1,0,.2l-.5-.2c0,0,0-.1,0-.2.9-1.7,1.9-3.5,3-5.2h0c-1.1,1.7-2.1,3.5-3,5.2,0,.1,0,.2-.1.3l-.6-.3h0s-.2,0-.2,0c0-.1.1-.2.2-.3,2.1-4,4.8-8.2,7.3-11.9-.7,0-1.3.1-1.9.2,0,0-.1,0-.2,0v-.3s.1,0,.2,0c.7,0,1.4-.1,2.1-.2h0c-.7,0-1.5,0-2.1.2,0,0-.1,0-.2,0v-.6s0,0,.1,0c.8,0,1.6-.1,2.4-.2h0c-.8,0-1.6.1-2.4.2,0,0-.1,0-.2,0v-.2s0-.1.1-.1c.9,0,1.9-.3,3-.4h0c-1.1,0-2.1.1-3,.2,0,0-.2,0-.3,0v-.3c0,0,.2,0,.2,0,1,0,2.1-.2,3.2-.3,2.1-3,4-5.4,5.2-6.8,2.7-2.8,4.9-4,7.4-4s3.7,1.1,4.2,3.5c0,.1,0,.2,0,.3h-.4s0-.1,0-.2c-.4-1.7-1.2-2.7-2.5-3.1h0c1.3.4,2.1,1.3,2.5,3.1,0,0,0,.2,0,.3h0c0,0-.3-.1-.3-.2-.4-1.9-1.7-2.7-3.1-2.8h0c1.4.2,2.5,1,2.9,2.9,0,.1,0,.2,0,.3h-.3s0-.2,0-.3c-.4-1.9-1.5-2.7-2.9-2.7h0c1.5,0,2.5.8,2.9,2.7,0,0,0,0,0,.1h-.5c0,.1,0,0,0,0-.3-1.6-1.2-2.3-2.4-2.3-2.1,0-3.9,1.2-6.2,3.5-1,1.1-2.6,3-4.3,5.4,2-.1,4.1-.2,6.2-.2s.2,0,.3,0v.3c-.1,0-.2,0-.3,0-.8,0-1.6,0-2.5,0h0c.8,0,1.6,0,2.5,0s.3,0,.5,0v.2c-.2,0-.3.1-.5.1-1.8,0-3.5.2-5.2.2h0c1.7,0,3.4,0,5.2,0s.2,0,.3,0v.9s0,0-.1,0h0c0,0-.2,0-.2,0-2.6,0-5.1,0-7.4.2-2.7,3.9-5.6,8.6-7.9,12.9,0,0,0,.1,0,.2ZM33.6,581.9c.8-1.3,1.6-2.6,2.4-3.9h0c-.8,1.3-1.6,2.6-2.3,3.9ZM38.7,583.3c-.5.4-1,.8-1.5,1.1h0c.5-.4,1-.8,1.5-1.1ZM40.8,581.5s0,0,0,0c0,0,0,0,0,0h0c-.4.4-.7.7-1.1,1h0c.4-.3.7-.7,1.1-1ZM42.1,571.3h0c.4,0,.8,0,1.3,0h0c-.4,0-.8,0-1.2,0Z"/>
      <path class="st1" d="M84.3,580.1c-2.1,0-3-1-3-2.7s.8-3,1.5-4.1c.7-1.3,1.1-2,1.1-2.6s-.2-.6-.6-.6c-2,0-5.1,2.3-11.7,7.5-.7.6-1.4,1-2,1-.8,0-1.5-.3-1.5-1.9s.5-2.4,1.2-4c0,0,0-.1,0-.2s0,0,0,0c-.3,0-2.1,1.4-6.8,4.5-2.7,1.8-6,3.1-9.2,3.1s-4.4-1.2-4.4-3.5c0-3.9,5.5-8.2,9.6-8.2s2.9,1.1,2.9,2.3c0,2.4-3,4.2-7.7,4.6-.5,0-.9,0-1.3.1v-.3c.4,0,.8,0,1.3-.1,1.6-.2,3.1-.5,4.3-.9h0c-1.2.4-2.6.7-4.3.9-.7,0-1.4.1-2,.2v-.4c.5,0,1,0,1.5-.1v-.5c-.5,0-.9.1-1.3.1v-.4c.5,0,1.1-.1,1.6-.2,3.3-.4,6-1.2,6-2.9s-.4-.8-1.2-.8c-2.9,0-7.6,3.3-7.6,6.5s.9,2,2.8,2,5.5-1.1,8.1-2.8c5.5-3.6,7.4-5.2,9.1-5.2s1.1.4,1.1.9-.2.7-.3.9c-.9,1.6-1.5,3.8-1.5,4.3s0,.1,0,.1,0,0,.3-.2c7.1-5.4,10.6-8.1,13.2-8.1s2.3.8,2.3,2.1-.5,2-1.4,3.7c-.5.9-1.1,2.2-1.1,3.2s.3,1.1,1.1,1.1,2.2-.3,3.5-.8c.2,0,.3-.1.5-.2v.2c0,0-.2.1-.4.2-.6.2-1.1.4-1.6.5h0c.5,0,1.1-.3,1.6-.5.4-.1.8-.3,1.1-.5l.2.5h0s0,.2,0,.2c-.4.2-.8.4-1.2.6-.4.2-.8.3-1.2.5h0c.4,0,.8-.2,1.3-.4,0,0,.2,0,.3-.1v.3s0,.1-.2.2c-1.5.5-3,.9-4,.9h0c1,0,2.6-.3,4-.9,0,0,0,0,.1,0h0c0,.1,0,.1-.1.2-1.5.5-3.1.9-4.1.9ZM53.2,574.4c.1,0,.3,0,.4,0,1.1-.1,2.1-.3,3-.5h0c-.9.2-1.9.4-3,.5-.1,0-.3,0-.4,0ZM59.4,571.9c.2-.2.3-.5.4-.7h0c0,.3-.2.5-.4.7ZM86.7,578.8c-.5.1-1,.2-1.5.3h0c.4,0,.9-.1,1.4-.3Z"/>
      <path class="st1" d="M91.7,576.7c0,0,0-.1,0-.1h.1s0,0,0,0c.4.7.9,1.4,1.4,1.9h0c-.6-.5-1.1-1.2-1.4-1.9,0,0,0-.1-.1-.2l.4-.3c0,0,0-.1-.1-.2l.5-.4c0,.1.2.2.3.4.1.2.3.4.5.5h.1c-.1-.3-.3-.4-.4-.6,0,0-.1-.1-.2-.2h.1c0,0,.1,0,.2.2,1.1,1.7,2,2.5,3,2.5s1.4-.6,1.4-1.6c0-1.8-.6-3.8-.6-5.2s1.2-3.4,3.7-3.4,3.5.7,5.5,2.4c0,0,0,0,0,0l-.2.3s0,0,0,0c-1.7-1.4-3.2-2.2-4.7-2.3h0c1.5.2,3,.9,4.7,2.3.1.1.3.2.4.3l-.5.6c0,0,0-.1-.1-.2h0c0,0-.2,0-.3,0-.9-.8-1.8-1.2-2.6-1.6h0c.8.4,1.6.9,2.5,1.7,0,0,0,0,.1,0l-.2.2s0,0-.1-.1c-1.6-1.5-3.1-2.1-4.3-2.1s-1.8.6-1.8,1.7.6,3.3.6,5.1-1.6,3.4-3.3,3.4-3.4-1.4-4.3-3.2ZM96.1,579.3c-.7,0-1.4-.3-2-.7.6.5,1.3.7,2,.7h0Z"/>
      <path class="st1" d="M109.1,579.8c-2.1,0-3.2-.9-3.2-2.7,0-3.7,6.1-8.3,11.2-8.3s2.7,1,2.7,2c0,2.2-2.7,3.8-7.2,4.8-.7.2-1.3.3-2,.4v-.6c.5,0,1.1-.2,1.8-.4,2.3-.5,4.2-1.2,5.3-2h0c-1.1.8-3,1.5-5.3,2-.3,0-.5.1-.8.2v-.2c.2,0,.4-.3.7-.4,2.1-.5,3.8-1.2,4.9-2h0c-1,.6-2.8,1.2-4.9,1.7-.3,0-.6.2-.9.2v-.2c.3,0,.5-.1.9-.2,3.1-.7,5.6-1.6,5.6-2.9s-.4-.7-1.1-.7c-4,0-9.1,3.9-9.1,6.6s.5,1.2,1.6,1.2c3,0,7.3-1.8,10.8-4,.3-.2.6-.4.9-.7h0c-.3.3-.6.6-.9.8-.8.5-1.6,1-2.5,1.5h0c.9-.4,1.7-.9,2.5-1.5.2-.1.3-.2.5-.3l.2.3s0,0-.1,0l.4.6h.1c0,0,.3.3.3.3-.2.1-.3.2-.5.3-4.3,2.8-8.4,4.3-11.9,4.3ZM119.8,575.8c-1.1.7-2.2,1.2-3.3,1.7h0c1.1-.4,2.2-1,3.3-1.7ZM120.4,574.5c0,0,.1,0,.2-.1,0,0-.1,0-.2.1-.4.3-.8.5-1.2.8h0c.4-.2.8-.5,1.2-.7Z"/>
      <path class="st1" d="M71.7,557.4v4.2h1.5v.7h-2.3v-4.9h.8Z"/>
      <path class="st1" d="M75.9,557.4v4.9h-.8v-4.9h.8Z"/>
      <path class="st1" d="M78.9,560.2v2.2h-.8v-4.9h2.3v.7h-1.5v1.3h1.1v.7h-1.1Z"/>
      <path class="st1" d="M84.6,557.4v.7h-1.5v1.3h1.1v.7h-1.1v1.5h1.5v.7h-2.2v-4.9h2.2Z"/>
      <path class="st1" d="M88.7,560.1h.7c0,.5-.2,1-.4,1.3.1.1.3.3.5.3v.7c-.3,0-.6-.2-.9-.5-.1.1-.3.2-.4.3-.2.1-.4.2-.6.2s-.6-.1-.8-.3c-.2-.2-.4-.5-.4-.9s0-.6.3-.9c0-.1.2-.3.4-.5-.2-.4-.3-.8-.3-1.2s0-.6.3-.9c.2-.2.4-.4.8-.4s.5,0,.6.3c.2.2.3.4.3.7s0,.6-.3.9c0,.1-.3.3-.5.6.2.4.3.7.6,1,.1-.2.2-.5.2-.8ZM87.5,560.5c-.2.2-.2.5-.2.7s0,.3.1.4c0,.1.2.2.3.2s.3,0,.5-.2c-.3-.3-.5-.6-.7-1ZM87.7,559.2c.3-.3.4-.6.4-1s0-.4-.3-.4-.2,0-.2.2c0,0,0,.2,0,.3,0,.3,0,.6.2.9Z"/>
      <path class="st1" d="M92.3,557.4v4.2h1.5v.7h-2.3v-4.9h.8Z"/>
      <path class="st1" d="M96.6,557.4v4.9h-.8v-4.9h.8Z"/>
      <path class="st1" d="M101.4,559h-.8c0-.7-.2-1-.6-1s-.4,0-.5.2c0,.1,0,.2-.1.3,0,.1,0,.2,0,.4v1.6c0,.3,0,.6,0,.7,0,.2.2.3.5.3.4,0,.6-.3.6-1h0c0-.1.8-.1.8-.1,0,0,0,.1,0,.2,0,.5,0,.9-.3,1.1-.2.3-.6.5-1.1.5s-.9-.2-1.1-.5c-.1-.2-.2-.4-.2-.6,0-.2,0-.4,0-.7v-1.4c0-.5,0-.8,0-1,.1-.3.3-.6.6-.7.2,0,.4-.1.7-.1.4,0,.7.1,1,.4.2.3.4.6.4,1.1s0,0,0,.2Z"/>
      <path class="st1" d="M105.8,557.4v.7h-1.5v1.3h1.1v.7h-1.1v1.5h1.5v.7h-2.2v-4.9h2.2Z"/>
      <path class="st1" d="M110.6,557.4v4.9h-.7l-1.3-3.3v3.3h-.7v-4.9h.8l1.2,3.1v-3.1h.7Z"/>
      <path class="st1" d="M115.4,558.6l-.7.2c-.1-.5-.3-.7-.7-.7s-.3,0-.3.1c0,0-.1.2-.1.4s0,.3.2.5c0,0,.3.3.7.5.4.3.6.5.7.7.2.3.3.6.3.9s-.1.7-.4.9c-.2.2-.6.4-1,.4-.8,0-1.3-.5-1.5-1.4l.7-.2c.1.6.4.9.8.9s.3,0,.4-.2c.1-.1.2-.2.2-.4s0-.3-.2-.5c-.1-.1-.3-.3-.5-.5-.4-.3-.6-.5-.7-.5-.3-.3-.5-.7-.5-1.1s.1-.7.4-.9c.2-.2.5-.3.9-.3.7,0,1.2.4,1.4,1.2Z"/>
      <path class="st1" d="M119.7,557.4v.7h-1.5v1.3h1.1v.7h-1.1v1.5h1.5v.7h-2.2v-4.9h2.2Z"/>
    </g>
    <g>
      <path class="st1" d="M279,557v-4.2h1.1v3.1h3.1v-4h-3.9v-4.2h1.2v3.2h2.7v-4.1h1.1v4.1h2.7v-3.2h1.2v4.2h-3.8v4h3.1v-3.1h1.1v4.2h-9.6Z"/>
      <path class="st1" d="M291.6,556.4c-.1-.1-.2-.3-.4-.4s-.3-.3-.4-.3c.6-.4,1.1-.9,1.6-1.5.5-.6.8-1.1,1.1-1.8s.5-1.2.6-1.8h-2.8v-1h4c-.1,1.5-.5,2.8-1.1,4s-1.5,2.1-2.5,2.9ZM294.7,557.5c0-.2,0-.3,0-.6,0-.2,0-.4-.1-.5h1c.2,0,.3,0,.4,0,0,0,.1-.2.1-.3v-9.4h1.1v2.3c.2.7.4,1.4.8,2.1.3-.2.6-.5.9-.8.3-.3.6-.6.9-.9.3-.3.6-.6.8-.8l.8.7c-.2.3-.5.5-.9.8s-.7.6-1,.9c-.4.3-.7.6-1.1.8.5.7,1,1.4,1.6,2,.6.6,1.3,1.1,2,1.5,0,0-.2.1-.3.3-.1.1-.2.2-.3.4,0,.1-.2.2-.2.3-.8-.5-1.6-1.2-2.3-2.1-.7-.8-1.3-1.8-1.8-2.8v4.9c0,.8-.4,1.1-1.3,1.1h-1Z"/>
      <path class="st1" d="M308.4,557.5v-5.9h-2.4v4.8h-1.1v-5.9h3.5v-1.3h-4.9v-1h4.9v-1.6h1.1v1.6h4.9v1h-4.9v1.3h3.6v4.6c0,.4-.1.7-.3.9s-.6.3-1,.3h-1c0-.2,0-.4,0-.6,0-.2,0-.4-.2-.5h1c.2,0,.3,0,.4,0,0,0,.1-.2.1-.3v-3.2h-2.5v5.9h-1.1Z"/>
    </g>
    <g>
      <path class="st1" d="M283.7,560.3h.7v6.8h-.7v-6.8Z"/>
      <path class="st1" d="M286.2,566.8l4-5.8h-3.9v-.7h5v.3l-4,5.8h4v.7h-5.1v-.3Z"/>
      <path class="st1" d="M292.9,564.4v-4.1h.7v4.1c0,1.3.7,2.2,2,2.2s2-.8,2-2.1v-4.1h.7v4.1c0,1.6-1,2.8-2.7,2.8s-2.7-1.2-2.7-2.8Z"/>
      <path class="st1" d="M300.7,560.3h.3l2.8,3.7h0l2.8-3.7h.3v6.9h-.7v-5.2l-2.3,3.1h-.1l-2.4-3.1v5.2h-.7v-6.9Z"/>
      <path class="st1" d="M309.4,560.3h.7v6.8h-.7v-6.8Z"/>
    </g>
  </g>
  <path class="st3" d="M256.3,580l-5.3-4.2-1.4,7.1,1.7,5.1,5.2,5.4v5.2l6.5,3.2,4.9,4.9s5.8,4.7,7.6,1.9c1.9-2.8,2-4.8,3.9-4.2,1.9.6,4.1,1.4,4.9-.5.8-1.9-2.8-4.3,2.4-3.8,5.2.5,5.5.2,6-1.1s1.6-.3,3.3-1.6c1.8-1.3.7.5,1.8-1.3,4.6-7.3-5.5-18.5-7.1-16.8h0l-5.3.9-2.9-1-1.5-2.8-1.4-8-5.5-2.3-.8,6.6-4.4,5.1-5.5,2.5-7.2-.5Z"/>
  <ellipse class="st2" cx="271.8" cy="578.9" rx="2.8" ry="2.8"/>
  <line class="st5" x1="136.9" y1="567.9" x2="271.7" y2="567.9"/>
</svg>