<?xml version="1.0" encoding="UTF-8"?><svg id="_レイヤー_2" xmlns="http://www.w3.org/2000/svg" viewBox="0 0 131.29 131.29"><defs><style>.cls-1{fill:none;}.cls-2{fill:#fff;}</style></defs><g id="_レイヤー_1-2"><path class="cls-2" d="M15.27,91.99l-4.03,2.1c.57.3,1.12.63,1.65.98.53.35,1.02.71,1.48,1.07-.07.1-.14.22-.22.37-.08.15-.15.31-.22.46-.07.16-.11.3-.13.43-.47-.44-1.02-.87-1.63-1.28-.61-.42-1.25-.79-1.9-1.13s-1.31-.62-1.96-.86c-.65-.23-1.25-.38-1.81-.45l.16-1.31c.49.08,1,.21,1.53.38.53.17,1.06.38,1.59.61l4.89-2.54.61,1.16Z"/><path class="cls-2" d="M12.3,86.79l-.99,1.09c-.26-.44-.59-.88-1-1.32-.41-.44-.85-.87-1.34-1.29s-.99-.8-1.5-1.15c-.51-.35-1.02-.65-1.51-.91-.49-.26-.95-.45-1.36-.58.1-.06.23-.16.37-.28s.28-.24.41-.37.23-.23.3-.31c.53.18,1.09.45,1.68.79.59.34,1.19.74,1.78,1.2s1.16.95,1.71,1.48c.54.53,1.03,1.08,1.45,1.65ZM7.55,87.21c-.06.12-.13.28-.21.47s-.15.42-.22.65c-.08.24-.14.46-.2.68-.06.22-.09.4-.11.56l-1.27-.45c.03-.16.07-.34.12-.56.05-.22.11-.44.18-.68.07-.23.14-.46.21-.67.07-.21.14-.38.21-.51l1.28.51Z"/><path class="cls-2" d="M10.46,78.16c-.18.12-.36.27-.55.43-.19.17-.33.32-.42.45-.4-.72-.89-1.39-1.45-2-.56-.61-1.18-1.15-1.85-1.6-.1.23-.2.46-.28.67s-.15.43-.2.63l-1.07-.56c.11-.42.27-.88.48-1.38-.29-.14-.57-.26-.87-.38-.29-.11-.59-.21-.88-.28.06.29.13.6.2.93s.14.64.2.93c.06.29.11.51.14.68.51.23,1.01.49,1.49.8.48.31.94.67,1.37,1.07-.12.13-.25.31-.4.51-.15.21-.25.39-.3.54-.43-.43-.91-.81-1.46-1.16-.55-.34-1.12-.63-1.71-.85-.59-.22-1.16-.37-1.7-.44l.17-1.25c.23.04.45.09.68.14.23.05.45.12.67.19-.06-.3-.12-.63-.19-.98-.07-.35-.14-.68-.21-.99-.07-.31-.13-.54-.18-.71l.3-.88c.58.09,1.14.21,1.68.38s1.05.36,1.54.59c.15-.29.3-.57.46-.84.16-.26.31-.49.46-.67.08.09.2.18.34.28.14.1.29.19.44.28.15.08.28.15.38.2-.31.39-.63.85-.95,1.4.74.47,1.41,1.03,2.03,1.68s1.16,1.37,1.65,2.17Z"/><path class="cls-2" d="M1.86,62.21c-.15.09-.3.19-.46.32s-.32.26-.47.4c-.15.14-.28.27-.37.38l-.45-.58c.09-.11.22-.23.38-.38.16-.15.33-.29.5-.43.17-.14.31-.25.43-.33l.45.61ZM2.63,63.18c-.22.13-.46.3-.72.52s-.46.41-.61.58l-.44-.59c.09-.1.22-.22.38-.37s.33-.29.5-.43c.17-.14.32-.24.44-.32l.45.61ZM8.47,67.16c0,.56-.02,1-.09,1.33s-.2.55-.39.69c-.19.14-.48.21-.86.21l-6.21.1-.02-1.3c.17,0,.4,0,.71.01.3,0,.65,0,1.03,0,.38,0,.77,0,1.17-.01-.14-.42-.3-.86-.47-1.33s-.35-.92-.54-1.36c-.18-.43-.35-.8-.51-1.1l1.17-.71c.13.29.26.62.4,1,.14.37.27.76.4,1.17.13.41.26.82.38,1.21.12.4.23.76.34,1.1l1.64-.03c.16,0,.28-.02.36-.06.08-.04.13-.12.16-.24.03-.12.04-.29.03-.53,0-.3-.02-.64-.04-1.02-.02-.38-.05-.77-.08-1.16s-.07-.78-.11-1.14-.08-.68-.13-.94c.13.03.28.06.46.08s.35.04.53.04c.17,0,.31.01.41,0,.04.37.08.79.12,1.26.04.47.07.94.1,1.42.03.48.04.91.05,1.3Z"/><path class="cls-2" d="M7.84,60.82l-.98-.14c.02-.1.05-.27.09-.51.04-.24.08-.51.12-.82.05-.31.1-.64.14-.99.05-.35.1-.68.14-1.01l.06-.41-1.85-.5c-.02.22-.05.46-.08.75-.03.28-.06.56-.1.83-.03.27-.06.51-.08.73-.02.21-.04.36-.04.45l-1.02-.08c.02-.1.05-.29.1-.56.04-.27.08-.58.13-.94.04-.35.09-.7.13-1.04.04-.34.07-.65.1-.91.03-.26.04-.43.05-.52l2.8.75c.06-.4.1-.76.15-1.08.04-.32.07-.54.08-.65l.98.14c-.03.12-.07.34-.12.67-.05.33-.11.72-.17,1.16s-.13.89-.19,1.34c-.04.27-.08.58-.13.92-.05.34-.09.68-.14,1.01-.04.33-.08.63-.11.88-.03.25-.04.43-.05.52Z"/><path class="cls-2" d="M6.66,52.3c-.09-.04-.22-.08-.38-.12-.16-.05-.32-.1-.48-.15-.16-.05-.29-.08-.38-.1.04-.12.12-.35.22-.67s.23-.71.37-1.16.29-.93.45-1.45c.16-.52.32-1.03.47-1.55.16-.52.3-1,.43-1.47s.25-.86.34-1.2c.09-.34.16-.58.18-.72.08.03.21.08.37.13.16.05.32.1.49.15s.29.08.38.11c-.06.17-.14.41-.24.73-.1.32-.23.7-.36,1.13-.14.43-.28.89-.43,1.37-.15.49-.29.98-.44,1.47s-.29.97-.42,1.42c-.13.45-.24.86-.34,1.22s-.18.65-.23.86Z"/><path class="cls-2" d="M6.12,40.52l-.88-.44,1.45-2.89.88.44-1.45,2.89ZM7.21,41.63l-.85-.43,1.88-3.75.85.43-1.88,3.75ZM15.74,39.26c-.2.39-.39.63-.59.73s-.44.08-.72-.06l-4.43-2.22,1.36-2.7-1.88-.94-1.4,2.79-.99-.49,1.97-3.93,3.88,1.95-1.36,2.7,2.84,1.43c.09.05.17.06.24.03.06-.03.13-.11.2-.25l.55-1.1c.08-.17.12-.32.1-.44-.02-.12-.09-.25-.23-.37-.14-.12-.34-.27-.62-.44.08-.06.19-.14.31-.25.12-.1.24-.22.35-.33.11-.12.21-.22.28-.31.46.32.79.59.99.83.2.24.3.47.3.71,0,.23-.09.51-.25.83l-.93,1.86ZM8.76,41.84l-.86-.43,1.45-2.89.86.43-1.45,2.89ZM10.08,42.5l-.86-.43,1.45-2.89.86.43-1.45,2.89ZM13.27,44.19l-2.74-1.38,1.53-3.04,2.74,1.38-1.53,3.04ZM12.92,42.75l.52-1.03-1.02-.51-.52,1.03,1.02.51Z"/><path class="cls-2" d="M19.51,33.49c-.15-.09-.32-.18-.52-.26-.2-.08-.37-.14-.52-.17l.55-.74c.09-.12.13-.22.13-.29,0-.08-.05-.16-.17-.24l-.26-.19-2.03,2.73-.72-.54,2.03-2.73-.35-.26-2.52,3.4-.66-.49,2.52-3.4-.34-.25-2.04,2.74-.65-.48,2.04-2.74-.33-.24-1.62,2.18-1.64-1.22,1.62-2.18-.3-.23-2.34,3.15-.72-.54,2.34-3.15-.56-.41.75-1.01.56.41,2.34-3.14.72.54-2.34,3.14.3.23,1.6-2.16,1.64,1.22-1.6,2.16.33.24,1.94-2.61.99.73.57-.77.66.49-.57.77,1.08.8-1.94,2.61.54.4c.31.23.47.49.48.77,0,.28-.12.6-.39.96l-.59.79ZM14.09,30.1l.93-1.26-.36-.27-.93,1.26.36.27ZM15.78,27.83l.92-1.23-.36-.27-.92,1.23.36.27ZM17.73,29.28l1.22-1.63-.34-.25-1.21,1.63.34.25ZM18.74,30.03l1.21-1.63-.35-.26-1.22,1.63.35.26Z"/><path class="cls-2" d="M27.4,24.12c-.42.39-.83.71-1.24.95-.41.24-.8.36-1.17.36-.36,0-.69-.14-.96-.44-.23-.24-.37-.54-.41-.88-.04-.34-.01-.72.09-1.13.1-.41.25-.84.45-1.29l-.06-.06c-.17-.18-.34-.27-.5-.27s-.33.06-.47.18c-.25.21-.44.45-.58.73s-.21.63-.21,1.04c0,.12,0,.27-.02.46s-.02.37-.03.55-.02.34-.03.47l-1.28-.03c.13-.57.19-1.18.17-1.84-.02-.65-.11-1.29-.28-1.89-.27.28-.53.53-.75.76s-.4.4-.52.5l-.86-.85c.19-.15.43-.37.74-.66s.63-.62.98-.97c-.2-.45-.43-.82-.7-1.13l.95-.81c.24.28.45.61.64.98.35-.39.66-.75.95-1.1.29-.34.49-.62.62-.84l.86.79c-.12.16-.28.36-.48.61-.2.25-.43.51-.68.8s-.51.58-.79.87c.07.21.13.42.18.64s.1.45.13.67c.13-.27.29-.51.5-.71.3-.28.63-.45.98-.48.35-.04.73.1,1.12.41.19-.37.4-.73.62-1.09.22-.36.44-.71.66-1.04l1.05.59c-.31.39-.59.78-.86,1.17-.27.39-.5.77-.7,1.14l.96,1.01-.9.85-.63-.67c-.14.36-.22.68-.25.96-.03.27.01.47.12.59.16.17.38.19.66.07.27-.13.62-.4,1.05-.8.17-.16.36-.36.55-.59s.38-.46.56-.71.33-.46.45-.66c.05.08.13.18.24.31s.22.26.34.38c.12.12.21.21.27.27-.19.3-.43.61-.7.94-.28.33-.55.62-.82.87Z"/><path class="cls-2" d="M29.1,17.79c-.11-.04-.25-.07-.41-.09-.17-.02-.33-.03-.5-.04-.17,0-.31,0-.42.02.14-.33.24-.7.31-1.11s.11-.84.12-1.28,0-.85-.04-1.24c-.04-.39-.1-.72-.18-1l1.28-.27c.17.88.24,1.75.2,2.62-.04.87-.16,1.67-.36,2.38ZM35.97,13.1c-.64.05-1.27.02-1.88-.09-.61-.1-1.19-.27-1.72-.51-.53-.23-1-.52-1.4-.86l-1.48.98-.63-.95,2.33-1.54c.3.36.65.66,1.04.89.39.23.81.41,1.25.52.44.12.88.19,1.34.21s.89.02,1.32-.02c-.03.12-.06.26-.09.42-.03.17-.04.34-.05.51,0,.17-.01.31-.01.43ZM37.17,16.95c-.15-.08-.32-.17-.53-.26-.21-.09-.44-.19-.68-.29-.24.21-.53.47-.88.77s-.72.61-1.11.94c-.39.33-.78.65-1.16.97-.38.32-.73.6-1.05.86-.32.26-.57.46-.76.61l-.91-.88c.12-.09.29-.21.49-.36.2-.15.43-.32.67-.52-.03-.35-.07-.75-.13-1.21-.06-.45-.12-.91-.2-1.38-.08-.47-.16-.9-.24-1.3-.08-.39-.16-.71-.23-.94l1.31-.31c.06.26.12.56.19.91s.12.71.18,1.1c.06.39.11.78.16,1.16.05.38.08.74.11,1.07.43-.33.85-.67,1.27-1.01s.79-.65,1.1-.91c-.34-.12-.67-.22-.98-.31-.31-.09-.59-.14-.82-.18l.35-1.16c.28.05.62.12.99.22.38.1.77.21,1.18.34s.8.26,1.18.4c.38.14.71.27,1,.39-.06.11-.12.25-.19.41-.07.16-.13.32-.19.48s-.1.29-.13.41Z"/><path class="cls-2" d="M39.33,15.73l-3.68-8.55,3.77-1.62,1.39,3.24-2.68,1.15,2.28,5.3-1.09.47ZM37.29,7.99l1.63-.7-.21-.48-1.63.7.21.48ZM37.8,9.17l1.63-.7-.21-.48-1.63.7.21.48ZM41.13,14.88c-.12-.1-.26-.2-.42-.3-.16-.1-.32-.17-.46-.21.36-.38.61-.73.74-1.04s.15-.68.06-1.09l-1.21.52-.39-.9,1.27-.55-.32-.75-.98.42-.36-.84,4.67-2.01.36.84-.95.41.32.75,1.23-.53.39.9-1.23.53.91,2.12-1.01.44-.91-2.12-.8.34c.16.64.15,1.21-.02,1.7-.17.49-.46.95-.88,1.37ZM45.71,12.98c-.08-.16-.19-.33-.31-.54-.12-.2-.25-.36-.36-.47l.65-.28c.13-.06.2-.11.23-.18.02-.06,0-.15-.04-.27l-1.68-3.9-2.7,1.16-1.39-3.24,3.79-1.63,3.25,7.55c.14.33.16.62.05.86-.11.24-.36.44-.76.61l-.72.31ZM41.7,10.88l.74-.32-.32-.75-.74.32.32.75ZM41.7,6.09l1.65-.71-.21-.48-1.65.71.21.48ZM42.21,7.27l1.65-.71-.21-.48-1.65.71.21.48Z"/><path class="cls-2" d="M51.66,10.71c-.54.13-1,.19-1.36.16s-.65-.15-.87-.37c-.22-.22-.38-.55-.49-.99l-1.67-6.74,1.36-.25c.01.12.05.32.1.59.05.28.12.57.19.88.05.25.12.53.19.83.07.3.15.63.24.99l.78,3.14c.07.3.21.48.4.55s.5.05.91-.05c.67-.17,1.26-.45,1.8-.85s.97-.84,1.31-1.32c.04.13.09.28.16.45s.14.34.21.49c.07.15.13.27.17.35-.4.47-.9.9-1.49,1.29-.59.38-1.24.66-1.93.83Z"/><path class="cls-2" d="M62.02,9.11c-.73,0-1.4-.15-1.99-.43-.59-.28-1.08-.67-1.45-1.19-.37-.51-.6-1.12-.67-1.81-.05-.5.01-1.02.2-1.57.19-.54.5-1.04.93-1.5-.55.15-1.09.3-1.63.46-.54.16-1.03.31-1.47.45-.44.14-.78.26-1.01.35l-.43-1.33c.23-.04.54-.1.95-.2.4-.09.85-.2,1.36-.33s1.02-.26,1.56-.41,1.06-.29,1.56-.44c.5-.14.95-.28,1.35-.41.4-.13.71-.24.93-.34l.47,1.24c-.1.02-.23.05-.39.09s-.33.09-.53.14c-.37.09-.72.25-1.05.47-.33.23-.62.5-.86.83-.24.33-.42.69-.54,1.09-.12.4-.16.82-.11,1.27.06.53.24.96.55,1.28.31.33.71.56,1.2.71.49.15,1.03.23,1.62.23-.09.12-.18.27-.26.43-.08.17-.15.33-.2.5s-.08.3-.09.41Z"/><path class="cls-2" d="M68.12,7.63c-.36.18-.69.24-1,.18-.31-.06-.57-.27-.78-.64-.2-.35-.37-.75-.53-1.22-.16-.46-.28-.96-.38-1.47-.1-.52-.17-1.03-.21-1.55-.04-.51-.04-.99,0-1.44l1.28.08c-.04.34-.05.72-.03,1.12.02.41.06.82.13,1.24.07.42.15.81.26,1.17s.23.66.36.91c.09.17.19.28.3.31.11.03.24,0,.38-.07.17-.1.36-.25.56-.43.2-.18.36-.37.5-.54.03.11.08.23.15.37.07.14.15.27.24.4.09.13.17.24.24.32-.21.27-.43.52-.69.74-.25.22-.51.4-.76.52ZM72.19,5.89c-.06-.21-.15-.46-.28-.77-.13-.31-.28-.63-.45-.97-.17-.33-.34-.65-.51-.93s-.33-.51-.49-.67l1.04-.58c.17.18.35.43.54.74s.39.63.58.97.35.68.5,1c.14.32.24.59.3.81-.22.03-.44.08-.67.16s-.41.16-.56.25Z"/><path class="cls-2" d="M76.23,10.18c-.58-.15-.99-.41-1.25-.78-.26-.37-.33-.78-.23-1.22.07-.29.22-.54.46-.73s.53-.32.89-.38.75-.03,1.17.08c.12.02.23.05.33.09.1.03.21.07.32.11l.22-1.19c-.12-.02-.24-.04-.36-.07-.12-.03-.24-.05-.35-.08-.41-.09-.73-.19-.95-.31s-.39-.27-.49-.45c-.11-.18-.2-.43-.28-.73l1.07-.27c.06.21.14.35.26.43.12.08.33.15.65.22.1.02.21.04.32.07.11.02.23.04.35.06.03-.19.07-.38.11-.57s.07-.38.11-.57c-.5-.08-.98-.17-1.43-.25-.45-.09-.79-.16-1.04-.22l.2-1.16c.24.07.58.16,1.03.25.45.09.94.19,1.45.28.05-.25.09-.48.14-.71.05-.23.09-.43.14-.63l1.19.26c-.04.18-.08.38-.13.59-.05.21-.09.44-.13.67.47.07.91.12,1.31.16s.7.06.89.05l-.25,1.13c-.19,0-.49-.02-.88-.07-.39-.05-.83-.1-1.3-.17-.03.19-.07.37-.11.56-.04.19-.07.38-.11.56.41.05.81.08,1.18.1.38.02.68.02.9,0l-.26,1.2c-.27,0-.58-.01-.93-.04s-.73-.06-1.12-.11c-.05.28-.09.54-.15.8-.05.25-.1.49-.14.71.48.25.92.53,1.32.84.4.32.78.65,1.12.99-.1.05-.22.13-.36.24s-.26.22-.38.34c-.12.12-.21.22-.28.3-.47-.61-1.02-1.13-1.64-1.56-.12.51-.39.88-.8,1.11-.42.23-1.02.24-1.8.04ZM76.51,9.1c.35.09.62.09.8.01s.29-.22.34-.41l.06-.29c-.14-.06-.28-.11-.41-.15-.14-.04-.27-.08-.41-.11-.29-.06-.52-.06-.69,0-.17.06-.27.16-.3.3-.07.31.14.52.61.65Z"/><path class="cls-2" d="M84.85,12.71c-.03-.16-.07-.36-.13-.59-.06-.23-.15-.45-.26-.65.77.08,1.39.06,1.86-.05.47-.11.85-.31,1.13-.61-.25.02-.48,0-.69-.09-.49-.2-.84-.49-1.03-.89-.19-.4-.2-.84-.03-1.32.12-.33.3-.6.54-.8.25-.2.53-.32.85-.37.32-.05.65,0,.98.13.05.02.1.04.13.06.04.02.08.04.12.07.03-.12.07-.25.1-.38s.08-.26.14-.4c-.54-.19-1.06-.36-1.58-.52-.52-.16-.99-.3-1.43-.41-.44-.12-.8-.2-1.1-.24l.28-1.2c.24.07.58.18,1.01.33.43.15.92.31,1.48.5.55.19,1.12.39,1.71.59l.54-1.38,1.13.45-.53,1.33c.52.18,1.01.36,1.48.52.47.17.89.32,1.26.45.37.13.66.25.86.33l-.53,1.11c-.36-.2-.85-.42-1.47-.68-.62-.26-1.28-.51-1.98-.78-.09.23-.18.48-.26.72s-.16.48-.23.71c.17.5.13,1.07-.12,1.69-.34.87-.88,1.49-1.62,1.88s-1.61.55-2.64.47ZM87.17,9.75c.19.06.36.05.5-.02.15-.07.26-.19.33-.37.02-.06.04-.12.06-.2.02-.07.03-.15.05-.23-.08-.21-.22-.36-.42-.44-.18-.07-.36-.07-.53,0s-.29.19-.35.38c-.08.19-.08.37-.01.53.07.17.19.28.38.35Z"/><path class="cls-2" d="M116.01,39.3l4.03-2.1c-.57-.3-1.12-.63-1.65-.98s-1.02-.71-1.48-1.07c.07-.1.14-.22.22-.38s.15-.31.22-.46c.07-.16.11-.3.13-.43.47.44,1.02.87,1.63,1.28.61.42,1.25.79,1.9,1.13s1.31.63,1.96.86c.65.23,1.25.38,1.81.44l-.16,1.31c-.49-.08-1-.21-1.53-.38s-1.06-.38-1.59-.61l-4.89,2.54-.61-1.17Z"/><path class="cls-2" d="M118.99,44.5l.99-1.09c.26.44.59.88,1,1.32.41.44.85.87,1.34,1.29s.99.8,1.5,1.15c.51.35,1.02.65,1.51.91.49.26.95.45,1.36.58-.1.06-.23.16-.37.28s-.28.24-.41.37-.23.23-.3.31c-.53-.18-1.09-.45-1.68-.79-.59-.34-1.19-.74-1.78-1.2s-1.16-.95-1.71-1.48c-.54-.53-1.03-1.08-1.45-1.65ZM123.73,44.08c.06-.12.13-.28.21-.47s.15-.42.22-.65c.08-.24.14-.46.2-.68.06-.22.09-.4.11-.56l1.27.45c-.03.16-.07.34-.12.56-.05.22-.11.44-.18.68-.07.23-.14.46-.21.67-.07.21-.14.38-.21.51l-1.28-.51Z"/><path class="cls-2" d="M120.83,53.13c.18-.12.36-.27.55-.43.19-.17.33-.32.42-.45.4.72.89,1.39,1.45,2,.56.61,1.18,1.15,1.85,1.6.1-.23.2-.46.28-.68s.15-.43.2-.63l1.07.55c-.11.42-.27.88-.48,1.38.29.14.57.26.87.38.29.11.59.21.88.28-.06-.29-.13-.6-.2-.93s-.14-.64-.2-.93c-.06-.29-.11-.51-.14-.68-.51-.23-1.01-.5-1.49-.8s-.94-.67-1.37-1.07c.12-.13.25-.3.4-.51.15-.21.25-.39.3-.54.43.42.91.81,1.46,1.16.55.34,1.12.63,1.71.85.59.22,1.16.37,1.7.44l-.17,1.25c-.23-.04-.45-.09-.68-.14s-.45-.12-.67-.19c.06.3.12.63.19.98.07.35.14.68.21.99s.13.54.18.71l-.3.88c-.58-.09-1.14-.21-1.68-.38s-1.05-.36-1.54-.59c-.15.29-.3.57-.46.84-.16.26-.31.49-.46.67-.08-.08-.2-.18-.34-.28-.14-.1-.29-.19-.44-.28-.15-.08-.28-.15-.38-.2.31-.39.63-.85.95-1.4-.74-.47-1.41-1.03-2.03-1.68s-1.16-1.37-1.65-2.17Z"/><path class="cls-2" d="M122.82,64.13c0-.56.02-1,.09-1.32s.2-.55.39-.69c.19-.14.48-.21.86-.21l6.21-.1.02,1.3c-.17,0-.4,0-.71-.01-.3,0-.65,0-1.03,0-.38,0-.77,0-1.17.01.14.42.3.86.47,1.33s.35.92.54,1.36c.18.43.35.8.51,1.1l-1.17.71c-.13-.29-.26-.62-.4-1-.14-.37-.27-.76-.4-1.17-.13-.41-.26-.81-.38-1.21-.12-.4-.23-.76-.34-1.1l-1.64.03c-.16,0-.28.02-.36.06s-.13.12-.16.24c-.03.12-.04.29-.03.53,0,.3.02.64.04,1.02.02.38.05.77.08,1.17.03.4.07.78.11,1.14s.08.68.13.94c-.13-.03-.28-.06-.46-.08s-.35-.04-.53-.04c-.17,0-.31-.01-.41,0-.04-.37-.08-.79-.12-1.26-.04-.47-.07-.94-.1-1.42-.03-.48-.04-.91-.05-1.3ZM128.66,68.11c.22-.13.46-.3.72-.52.26-.21.46-.41.61-.58l.44.59c-.09.1-.22.22-.38.37-.16.15-.33.29-.5.43s-.32.25-.44.32l-.45-.61ZM129.43,69.07c.15-.09.3-.19.46-.32.16-.13.32-.26.47-.4.15-.14.28-.27.37-.38l.45.58c-.09.11-.22.23-.38.38-.16.15-.33.29-.5.43-.17.14-.31.25-.43.33l-.45-.61Z"/><path class="cls-2" d="M123.44,70.46l.98.14c-.02.1-.05.27-.09.51s-.08.51-.12.82c-.05.31-.1.64-.14.99-.05.35-.1.68-.14,1.01l-.06.41,1.85.5c.02-.22.05-.46.08-.75.03-.28.06-.56.1-.83.03-.27.06-.51.08-.73.02-.21.04-.36.04-.44l1.02.08c-.02.1-.05.29-.1.56-.04.27-.08.58-.13.94-.04.35-.09.7-.13,1.04s-.07.65-.1.91c-.03.26-.04.43-.05.52l-2.8-.75c-.06.4-.1.76-.15,1.08-.04.32-.07.54-.08.65l-.98-.14c.03-.12.07-.34.12-.67.05-.33.11-.72.17-1.16.07-.44.13-.89.19-1.34.04-.27.08-.58.13-.92.05-.34.09-.68.14-1.01.04-.33.08-.63.11-.88.03-.25.04-.43.05-.52Z"/><path class="cls-2" d="M124.63,78.99c.09.03.22.08.38.12s.32.1.48.15.29.08.38.11c-.04.12-.12.35-.22.67s-.23.71-.37,1.16-.29.93-.45,1.45c-.16.51-.32,1.03-.47,1.55-.16.52-.3,1-.43,1.46s-.25.86-.34,1.2c-.09.34-.16.58-.18.72-.08-.03-.21-.08-.37-.13-.16-.05-.32-.1-.49-.15-.17-.05-.29-.08-.38-.11.06-.17.14-.41.24-.73.1-.32.23-.7.36-1.13s.28-.89.43-1.37c.15-.49.29-.98.44-1.47s.29-.97.42-1.42c.13-.45.24-.86.34-1.22.1-.36.18-.65.23-.86Z"/><path class="cls-2" d="M115.55,92.03c.2-.39.39-.63.59-.73s.44-.08.72.06l4.43,2.22-1.36,2.7,1.88.94,1.4-2.79.99.49-1.97,3.93-3.88-1.95,1.36-2.7-2.84-1.43c-.09-.05-.17-.06-.24-.03-.06.03-.13.11-.2.25l-.55,1.1c-.08.17-.12.32-.1.44.02.12.09.25.23.37.14.12.34.27.62.44-.08.06-.19.14-.31.25-.12.1-.24.22-.35.33-.11.12-.21.22-.28.31-.46-.32-.79-.59-.99-.83-.2-.24-.3-.47-.3-.71,0-.23.09-.51.25-.83l.93-1.86ZM118.02,87.1l2.74,1.38-1.53,3.04-2.74-1.38,1.53-3.04ZM118.37,88.53l-.52,1.03,1.02.51.52-1.03-1.02-.51ZM121.21,88.78l.86.43-1.45,2.89-.86-.43,1.45-2.89ZM122.53,89.45l.86.43-1.45,2.89-.86-.43,1.45-2.89ZM124.08,89.66l.85.43-1.88,3.75-.85-.43,1.88-3.75ZM125.17,90.77l.88.44-1.45,2.89-.88-.44,1.45-2.89Z"/><path class="cls-2" d="M111.78,97.79c.15.09.32.18.52.26.2.08.37.14.52.17l-.55.74c-.09.12-.13.22-.13.29s.05.16.17.24l.26.19,2.03-2.73.72.54-2.03,2.73.35.26,2.52-3.4.66.49-2.52,3.4.34.25,2.04-2.74.65.48-2.04,2.74.33.24,1.62-2.18,1.64,1.22-1.62,2.18.3.23,2.34-3.15.72.54-2.34,3.15.56.41-.75,1.01-.56-.41-2.34,3.14-.72-.54,2.34-3.14-.3-.23-1.6,2.16-1.64-1.22,1.6-2.16-.33-.24-1.94,2.61-.99-.73-.57.77-.66-.49.57-.77-1.08-.8,1.94-2.61-.54-.4c-.31-.23-.47-.49-.48-.77,0-.28.12-.6.39-.96l.59-.79ZM112.54,101.25l-1.21,1.63.35.26,1.22-1.63-.35-.26ZM113.55,102l-1.21,1.63.34.25,1.21-1.63-.34-.25ZM115.51,103.46l-.91,1.23.36.27.91-1.23-.36-.27ZM117.19,101.19l-.93,1.26.36.27.93-1.25-.36-.27Z"/><path class="cls-2" d="M103.89,107.17c.42-.4.83-.71,1.24-.95.41-.24.8-.36,1.17-.36.36,0,.69.14.96.44.23.24.37.54.41.88.04.34.01.72-.09,1.13-.1.41-.25.84-.45,1.29l.06.06c.17.18.34.27.5.27.17,0,.33-.06.47-.18.25-.21.44-.45.58-.74.14-.28.21-.63.21-1.04,0-.12,0-.27.02-.46,0-.19.02-.37.03-.55,0-.18.02-.34.03-.47l1.28.03c-.13.57-.19,1.18-.17,1.84.02.65.11,1.29.28,1.89.27-.28.53-.53.75-.76.23-.23.4-.4.52-.5l.86.85c-.19.15-.43.37-.74.66-.31.29-.63.62-.98.97.2.45.43.82.7,1.13l-.95.81c-.24-.28-.45-.61-.64-.98-.35.39-.66.75-.95,1.1-.29.34-.49.62-.62.84l-.86-.8c.12-.16.28-.36.48-.61.2-.24.43-.51.68-.8s.51-.58.79-.87c-.07-.2-.13-.42-.18-.64-.05-.22-.1-.45-.13-.66-.13.27-.29.51-.5.71-.3.28-.63.44-.98.48-.36.04-.73-.1-1.12-.41-.19.37-.4.73-.62,1.09-.22.36-.44.71-.66,1.04l-1.05-.59c.31-.39.59-.78.86-1.17s.5-.77.7-1.14l-.96-1.01.9-.85.63.67c.14-.36.22-.68.25-.96.03-.27-.01-.47-.12-.59-.16-.17-.38-.2-.66-.07s-.62.4-1.05.8c-.17.16-.36.36-.55.59s-.38.46-.56.71c-.18.24-.33.46-.45.66-.05-.08-.13-.18-.24-.31s-.22-.26-.34-.38c-.12-.12-.21-.21-.27-.27.19-.3.43-.61.7-.94.28-.33.55-.62.82-.87Z"/><path class="cls-2" d="M94.12,114.34c.15.08.32.17.53.26.21.1.44.19.68.29.24-.21.53-.47.88-.77s.72-.61,1.11-.94c.39-.33.78-.65,1.16-.97.38-.32.73-.6,1.05-.86.32-.26.57-.46.76-.61l.91.88c-.12.09-.29.21-.49.36-.2.15-.43.32-.67.52.03.35.07.75.13,1.21.06.45.12.91.2,1.38.08.47.16.9.24,1.3.08.39.16.71.23.94l-1.31.31c-.06-.26-.12-.56-.19-.91-.06-.35-.12-.71-.18-1.1-.06-.39-.11-.78-.16-1.16-.05-.38-.08-.74-.11-1.07-.43.33-.85.67-1.27,1.01s-.79.65-1.1.91c.34.12.67.22.98.31.31.09.59.14.82.18l-.35,1.16c-.28-.05-.62-.12-.99-.22-.38-.1-.77-.21-1.18-.34-.41-.13-.8-.26-1.18-.4s-.71-.27-1-.39c.06-.11.12-.25.19-.41s.13-.32.19-.48.1-.29.13-.41ZM95.32,118.18c.64-.05,1.27-.02,1.88.09.62.1,1.19.27,1.72.51.53.23,1,.52,1.4.86l1.48-.98.63.95-2.33,1.54c-.3-.36-.65-.66-1.04-.89-.39-.23-.81-.41-1.25-.52-.44-.12-.88-.19-1.34-.21-.45-.02-.89-.02-1.32.02.03-.12.06-.26.09-.42.03-.17.04-.34.05-.51,0-.17.01-.31.01-.43ZM102.19,113.5c.11.04.25.07.41.09.17.02.33.03.5.04.17,0,.31,0,.42-.02-.14.33-.24.7-.31,1.11s-.11.84-.12,1.28,0,.85.04,1.24c.04.39.1.72.18,1l-1.28.27c-.17-.88-.24-1.75-.2-2.62.04-.87.16-1.67.36-2.38Z"/><path class="cls-2" d="M85.58,118.31c.08.16.19.33.31.54.12.2.25.36.36.47l-.65.28c-.13.06-.2.12-.23.18-.02.06,0,.15.04.27l1.68,3.9,2.7-1.16,1.39,3.24-3.79,1.63-3.25-7.55c-.14-.33-.16-.62-.05-.86.11-.24.36-.44.76-.61l.72-.31ZM90.15,116.41c.12.1.26.2.42.3.16.1.32.17.46.21-.36.38-.61.73-.74,1.04-.13.31-.15.68-.06,1.09l1.21-.52.39.9-1.27.55.32.75.98-.42.36.84-4.67,2.01-.36-.84.95-.41-.32-.75-1.23.53-.39-.9,1.23-.53-.91-2.12,1.01-.44.91,2.12.8-.34c-.16-.64-.15-1.21.02-1.7.17-.49.46-.95.88-1.37ZM89.08,124.02l-1.65.71.21.48,1.65-.71-.21-.48ZM89.59,125.19l-1.65.71.21.48,1.65-.71-.21-.48ZM89.58,120.41l-.74.32.32.75.74-.32-.32-.75ZM91.96,115.56l3.68,8.55-3.77,1.62-1.39-3.24,2.68-1.15-2.28-5.31,1.09-.47ZM93.49,122.12l-1.63.7.21.48,1.63-.7-.21-.48ZM94,123.3l-1.63.7.21.48,1.63-.7-.21-.48Z"/><path class="cls-2" d="M79.63,120.58c.54-.13,1-.19,1.36-.16s.65.15.87.37c.22.22.38.55.49.99l1.67,6.74-1.36.25c-.01-.12-.05-.32-.1-.59-.05-.28-.12-.57-.19-.88-.05-.25-.12-.53-.19-.83-.07-.3-.15-.63-.24-.99l-.78-3.14c-.07-.3-.21-.48-.4-.55s-.5-.05-.91.05c-.67.17-1.26.45-1.8.85s-.97.84-1.31,1.32c-.04-.13-.09-.28-.16-.45s-.14-.34-.21-.49c-.07-.15-.13-.27-.17-.35.4-.47.9-.9,1.49-1.29.59-.38,1.24-.66,1.93-.83Z"/><path class="cls-2" d="M69.27,122.17c.73,0,1.4.15,1.99.43.59.28,1.08.67,1.45,1.19.37.51.6,1.12.67,1.81.05.5-.01,1.02-.2,1.57-.19.54-.5,1.04-.93,1.5.55-.15,1.09-.3,1.63-.46.54-.16,1.03-.31,1.47-.45.44-.14.78-.26,1.01-.35l.43,1.33c-.23.04-.54.1-.95.2-.4.09-.85.2-1.36.33s-1.02.26-1.56.41-1.06.29-1.56.44c-.5.14-.95.28-1.35.41-.4.13-.71.24-.93.34l-.47-1.24c.1-.02.23-.05.39-.09s.33-.09.53-.14c.37-.09.72-.25,1.05-.47.33-.23.62-.5.86-.83.24-.33.42-.69.54-1.09.12-.4.16-.82.11-1.27-.06-.53-.24-.96-.55-1.28-.31-.33-.71-.56-1.2-.71-.49-.15-1.03-.23-1.62-.23.09-.12.18-.27.26-.43.08-.17.15-.33.2-.5s.08-.3.09-.41Z"/><path class="cls-2" d="M59.09,125.39c.06.21.15.46.28.77.13.31.28.63.45.97.17.33.34.65.51.93s.33.51.49.67l-1.04.58c-.17-.18-.35-.43-.54-.74s-.39-.63-.58-.97-.35-.68-.5-1c-.14-.32-.24-.59-.3-.81.22-.03.44-.08.67-.16s.41-.16.56-.25ZM63.17,123.66c.36-.18.69-.24,1-.18.31.06.57.27.78.64.2.35.37.75.53,1.22.16.46.28.96.38,1.47.1.52.17,1.03.21,1.55.04.51.04.99,0,1.44l-1.28-.08c.04-.34.05-.72.03-1.12-.02-.41-.06-.82-.13-1.24-.07-.42-.15-.81-.26-1.17s-.23-.66-.36-.91c-.09-.17-.19-.28-.3-.31-.11-.03-.24,0-.38.07-.17.1-.36.25-.56.43-.2.18-.36.37-.5.54-.03-.11-.08-.23-.15-.37-.07-.14-.15-.27-.24-.4-.09-.13-.17-.24-.24-.32.21-.27.43-.52.69-.74.25-.22.51-.4.76-.52Z"/><path class="cls-2" d="M55.05,121.1c.58.15.99.41,1.25.78.26.37.33.78.23,1.22-.07.29-.22.54-.46.73s-.53.32-.89.38-.75.03-1.17-.08c-.12-.02-.23-.05-.33-.09-.1-.03-.21-.07-.32-.11l-.22,1.19c.12.02.24.04.36.07.12.03.24.05.35.08.41.09.73.19.95.31s.39.27.49.45c.11.18.2.43.28.73l-1.07.27c-.06-.21-.14-.35-.26-.43-.12-.08-.33-.15-.65-.22-.1-.02-.21-.04-.32-.07-.11-.02-.23-.04-.35-.06-.03.19-.07.38-.11.57s-.07.38-.11.57c.5.08.98.17,1.43.25.45.09.79.16,1.04.22l-.2,1.16c-.24-.07-.58-.16-1.03-.25-.45-.09-.94-.19-1.45-.28-.05.25-.09.48-.14.71-.05.23-.09.43-.14.63l-1.19-.26c.04-.18.08-.38.13-.59.05-.21.09-.44.13-.67-.47-.07-.91-.12-1.31-.16s-.7-.06-.89-.05l.25-1.13c.19,0,.49.02.88.07.39.05.83.1,1.3.17.03-.19.07-.37.11-.56.04-.19.07-.38.11-.56-.41-.05-.81-.08-1.18-.1-.38-.02-.68-.02-.9,0l.26-1.2c.27,0,.58.01.93.04s.73.06,1.12.11c.05-.28.09-.54.15-.8.05-.25.1-.49.14-.71-.48-.25-.92-.53-1.32-.84-.4-.32-.78-.65-1.12-.99.1-.05.22-.13.36-.24s.26-.22.38-.34c.12-.12.21-.22.28-.3.47.61,1.02,1.13,1.64,1.56.12-.51.39-.88.8-1.11.42-.23,1.02-.24,1.8-.04ZM54.77,122.19c-.35-.09-.62-.09-.8-.01s-.29.22-.34.41l-.06.29c.14.06.28.11.41.15.14.04.27.08.41.11.29.06.52.06.69,0,.17-.06.27-.16.3-.3.07-.31-.14-.52-.61-.65Z"/><path class="cls-2" d="M46.43,118.58c.03.16.07.36.13.59.06.23.15.45.26.65-.77-.08-1.39-.06-1.86.05-.47.11-.85.31-1.13.61.25-.02.48,0,.69.09.49.2.84.49,1.03.89.19.4.2.84.03,1.32-.12.33-.3.6-.54.8-.25.2-.53.32-.85.37-.32.05-.65,0-.98-.13-.05-.02-.1-.04-.13-.06-.04-.02-.08-.04-.12-.07-.03.12-.07.25-.1.38s-.08.26-.14.4c.54.19,1.06.36,1.58.52.52.16.99.3,1.43.41.44.12.8.2,1.1.24l-.28,1.2c-.24-.07-.58-.18-1.01-.33-.43-.15-.92-.31-1.48-.5-.55-.19-1.12-.39-1.71-.59l-.54,1.38-1.13-.45.53-1.33c-.52-.18-1.01-.36-1.48-.52-.47-.17-.89-.32-1.26-.45-.37-.13-.66-.25-.86-.33l.53-1.11c.36.2.85.42,1.47.68.62.26,1.28.51,1.98.78.09-.23.18-.48.26-.72s.16-.48.23-.71c-.17-.5-.13-1.07.12-1.69.34-.87.88-1.49,1.62-1.88s1.61-.55,2.64-.47ZM44.12,121.54c-.19-.06-.36-.05-.5.02-.15.07-.26.19-.33.37-.02.06-.04.12-.06.2-.02.07-.03.15-.05.23.08.21.22.36.42.44.18.07.36.07.53,0s.29-.19.35-.38c.08-.19.08-.37.01-.53-.07-.17-.19-.28-.38-.35Z"/><circle class="cls-1" cx="65.64" cy="65.64" r="65.64"/></g></svg>